<svg xmlns="http://www.w3.org/2000/svg" viewBox="0 0 145 145">
  <defs>
    <style>
      .a {
        fill: #39bdac;
      }

      .b {
        fill: #fff;
      }
    </style>
  </defs>
  <path class="a" d="M124.58,123a.25.25,0,0,0,0,.27,48,48,0,0,1-4.69,3.85c1.83-1.83,3.62-3.7,5.59-5.38q-.45.62-.87,1.26M110,135.26c1-.4,2-.83,3-1.29a.34.34,0,0,0,.37.4l-3.38.89m-18.61,1.86,1.68-.35a9,9,0,0,0,2.25-.26c.53-.1,1.05-.22,1.57-.35a32.38,32.38,0,0,0,6.15-1.38l1.82-.29a69.92,69.92,0,0,1-13.47,2.63M56.9,134.24a50,50,0,0,0-7.23-2.55l5,1.36c2.27.62,4.55,1.24,6.8,1.95.77.24,1.53.49,2.28.79l0,0q-3.45-.66-6.89-1.57m-38-18.6c.49.5,1,1,1.49,1.5.7.68,1.41,1.34,2.14,2a8.1,8.1,0,0,1-3.63-3.48M9.49,97.44h0c0-.31,0-.63,0-.94l.14.46c.06.41.11.83.17,1.25-.12-.25-.23-.51-.35-.76M6.32,82.62a34.59,34.59,0,0,1,1,3.53c.3,1.4.63,2.81.9,4.23-.5-1.56-1-3.1-1.44-4.69a13,13,0,0,1-.49-3.07m2,11.85A54.82,54.82,0,0,1,5.25,80.83a.28.28,0,0,0,0-.16c0-.5.08-1,.13-1.49a16.65,16.65,0,0,0,.44,2A8.6,8.6,0,0,0,6,84.8a40.18,40.18,0,0,0,1.48,5.14c.48,1.45.91,2.93,1.36,4.39.05.58.08,1.15.09,1.73-.21-.53-.42-1.06-.61-1.59M5.5,68c0-.33.1-.66.15-1a.24.24,0,0,0,.19-.29c0-.21,0-.42,0-.63.15-.9.33-1.79.52-2.68a.3.3,0,0,0,.38,0l-.24.63a.27.27,0,0,0,.1.32c-.37,2.17-.47,4.39-.67,6.58S5.32,75.29,5,77.44A55.62,55.62,0,0,1,5.5,68M8.74,55.49c.37-.87.75-1.73,1.12-2.6a.28.28,0,0,0,0-.25c.46-1,.94-2.06,1.45-3.07-.18.74-.31,1.5-.45,2.25-.67,1.63-1.33,3.26-2.07,4.85-.16.36.36.67.53.31l0-.12c-.62,1.63-1.32,3.23-2,4.85a.28.28,0,0,0-.25.21c-.13.42-.24.85-.34,1.27v0a49,49,0,0,1,1.94-7.72m4.14-8.25c-.3.6-.58,1.22-.85,1.84a7,7,0,0,1,.85-1.84m.68-7.05c.47-.47.95-.94,1.45-1.4a.69.69,0,0,0,0,.1q-1.29,1.8-2.48,3.68a.32.32,0,0,0-.26-.09c.45-.76.89-1.52,1.33-2.29M53.42,10.34a.34.34,0,0,0,.43.15,39.73,39.73,0,0,1,8.51-2.56c-1.2.4-2.38.84-3.55,1.35l0,0a74.43,74.43,0,0,0-14,5,67.45,67.45,0,0,1,8.63-4m18.84-.56c-2.3.21-4.6.45-6.89.69a66.15,66.15,0,0,1,6.89-.69m.26-3.49a1.37,1.37,0,0,0,.27.66c-1,.14-1.9.32-2.85.51a68.17,68.17,0,0,0-7.11,1,54.59,54.59,0,0,1,9.69-2.12m11.1,3a.26.26,0,0,0,.1-.41l1,.21L84,9.41l-.38-.11h0m2.3,0,.89.2-.9.37L85,9.67l.94-.34m1.92.43.79.19-.81.38-.89-.19.91-.38m1.77.44h0l1.55.41a37.34,37.34,0,0,1,4.54,1.55c-2.26-.68-4.58-1.14-6.9-1.61.26-.12.53-.24.8-.34m19.06,6.49c.46.33.92.68,1.37,1l.32.3c.93.87,1.79,1.8,2.64,2.74l.81.94c-1.39-1.39-2.83-2.72-4.34-4-.84-.7-1.7-1.37-2.58-2a13.81,13.81,0,0,1,1.78,1m10.42,14.84.48.64a13.07,13.07,0,0,1-1-1.11l.51.47m22.77,48.65c-.08.2-.15.39-.22.59a.38.38,0,0,0,0-.1c0-1.42,0-2.84-.08-4.26l0,.58c0,.39.63.4.61,0a85.37,85.37,0,0,0-2.31-16.3.31.31,0,0,0-.59.17,79.62,79.62,0,0,1,2,12.28A.34.34,0,0,0,141,73c0-.63,0-1.26,0-1.89a.31.31,0,0,0-.61,0c0,.53,0,1.05,0,1.58-.36-1.71-.78-3.4-1.24-5.08a31.47,31.47,0,0,1-.47-5.49.31.31,0,0,0-.61,0q0,1,.06,2c-.33-1.05-.67-2.1-1-3.14.11.23.21.46.31.7s.73.2.58-.17a26,26,0,0,0-2.13-4c-1.2-3.18-2.54-6.32-4-9.39a.35.35,0,0,0,.06-.14c.67.83,1.32,1.68,1.92,2.56a.33.33,0,0,0-.18.44c1.45,3.15,3.53,6,4.3,9.47.08.38.67.22.58-.16a24.44,24.44,0,0,0-2.58-6.18c.19,0,.38-.14.28-.36a26.7,26.7,0,0,0-4.58-7,13.83,13.83,0,0,0-1.77-3.57,16.9,16.9,0,0,0-3.15-5.42,6.82,6.82,0,0,1-.23-.77.3.3,0,0,0-.51-.13l-.22-.25c-1.4-2.8-2.93-5.53-4.16-8.41.37.49.74,1,1.1,1.49A31.93,31.93,0,0,1,127,37.28c.13.37.72.21.59-.16a33.47,33.47,0,0,0-4.34-7.74c-.78-1.09-1.59-2.16-2.43-3.2,0-.12-.09-.24-.13-.37a.3.3,0,0,0-.34-.2c-.83-1-1.69-2-2.58-2.93-.27-.29-.7.15-.43.43,1,1.09,2,2.23,3,3.39a61.17,61.17,0,0,0,3.21,7q-1.58-2.32-3.31-4.56a1.34,1.34,0,0,1,.2-.42c.22-.32-.3-.63-.53-.31l-.11.18c-.79-1-1.6-2-2.44-2.94a31.71,31.71,0,0,0-1.88-2.7,19.81,19.81,0,0,0-5.14-5.58l0,0a4.29,4.29,0,0,1-1-1.51c-.13-.36-.72-.21-.58.17a1.89,1.89,0,0,0,.09.21,13.93,13.93,0,0,0-1.34-.8c-1-.54-2.72-1.17-3-2.44-.09-.38-.68-.22-.58.17a2.39,2.39,0,0,0,.46.93A47.49,47.49,0,0,0,98,10.45a64.69,64.69,0,0,0-15.7-4.3c-2.86-.49-5.74-.87-8.63-1.17a1,1,0,0,0-1.1.69l-1.26.17H71.2c-5.72,1-11.58,1.59-17,3.83a.26.26,0,0,0-.34-.15A77.66,77.66,0,0,0,42.25,15a21.5,21.5,0,0,1,6.38-3.55.31.31,0,0,0-.16-.59c-2.93.81-5.4,2.93-7.91,4.58-2.78,1.83-5.67,3.48-8.59,5.06a32,32,0,0,1,7.94-5.4c.36-.15.05-.68-.3-.53C34.79,16.71,31,20.64,27.1,24c-.3.26.14.69.43.44,1.23-1.07,2.45-2.19,3.69-3.29a.3.3,0,0,0,.44.2c2.48-1.34,4.92-2.72,7.31-4.2a.35.35,0,0,0,.14.13,83.12,83.12,0,0,0-10.23,7c-.43.35-.85.69-1.27,1.05a.3.3,0,0,0-.51-.22c-.68.79-1.35,1.59-2,2.41l-.41.38a.29.29,0,0,0-.21.14l-.11.16c-.51.48-1,1-1.5,1.45.08-.28-.28-.57-.5-.31a43.46,43.46,0,0,0-4.71,6l-.4.51-1.14,1c0-.33-.52-.45-.59-.09s-.13.54-.19.8l-.78.72,0-.06c.19-.35-.33-.65-.52-.31-.33.61-.66,1.22-1,1.82l0,0A.27.27,0,0,0,13,40c-.61,1.06-1.22,2.11-1.86,3.15a.31.31,0,0,0,.53.31l.15-.25c-.23.53-.44,1.06-.64,1.59a66.6,66.6,0,0,0-3.06,5.94A38.89,38.89,0,0,1,13,38.72c.22-.33-.31-.64-.52-.31A42.47,42.47,0,0,0,6.82,53.74,60.37,60.37,0,0,0,2.75,71a56.42,56.42,0,0,0,0,9.1.3.3,0,0,0-.21.29c0,6.44,2.13,12.82,4.48,18.75a.33.33,0,0,0,.6,0,55.81,55.81,0,0,0,3.29,6.21.31.31,0,0,0-.11.32C12.92,113,19.05,118,22.73,124.43c.19.34.72,0,.52-.31-3.43-6-9.06-10.76-11.46-17.36A60,60,0,0,0,18.27,115a.25.25,0,0,0-.17.35c1,2.76,3.65,4.15,6.18,5.29q1.86,1.55,3.83,3v0a.31.31,0,0,0,.49.31c10.6,7.51,23.21,12.2,35.88,14.47a99.9,99.9,0,0,0,24.78,1.34c1.67-.13,3.35-.3,5-.52a.33.33,0,0,0,.14,0,11.17,11.17,0,0,0,3.93-.51c1.53-.38,3.06-.77,4.59-1.12s3-.71,4.44-1.08a.31.31,0,0,0,.37.25,56.31,56.31,0,0,0,9.34-3.13c.35-.15.2-.74-.17-.59-.9.37-1.8.73-2.71,1.08a.2.2,0,0,0-.13,0l-.59.15h0c3.82-1.69,7.13-4.31,11-6,.36-.16,0-.68-.3-.53a37.88,37.88,0,0,0-3.84,2c.64-.44,1.28-.9,1.9-1.37a42.43,42.43,0,0,1,5.15-2.54c.36-.14.2-.74-.17-.59-.86.34-1.7.73-2.53,1.14a49.12,49.12,0,0,0,8.61-9.64,52.11,52.11,0,0,0,8.34-23.4,58.64,58.64,0,0,0,.17-11.08,20.77,20.77,0,0,1,.67-2c.14-.37-.45-.52-.59-.16"/>
  <path class="a" d="M53.14,10.58c-2.89,1.45-5.92,2.6-8.79,4.09-.35.18,0,.71.31.53,2.87-1.49,5.89-2.64,8.79-4.09.35-.17,0-.7-.31-.53"/>
  <path class="b" d="M97.16,86.33c-1.11.89-2,1.87-3,2.78-.28.23.41-.28-.08,0-.19.13-.4.22-.59.36a10.13,10.13,0,0,0-.77.7,7.68,7.68,0,0,0-.68.6c-.7.75.49-.1-.33.21S90.59,92,90,92.43a16.64,16.64,0,0,0-1.44,1.12c-.24.23-.47.47-.76.71-.45.37.28-.09,0,.09l-.37.16a2.93,2.93,0,0,0-1.78,1.78l1-.82a2.71,2.71,0,0,0-1.38.52,3.37,3.37,0,0,0-.51.49c-.3.35-.67.79.07.22-.65.5-1.28.87-1.94,1.37a4.87,4.87,0,0,0-1,.91c-.37.51.65-.21,0-.07a2,2,0,0,0-.6.31c-.37.25-1.44,1.09-.38.56a7.93,7.93,0,0,0-1.33.68c-.18.14-.24.4-.41.55.59-.53-.29.06-.36.15a2.85,2.85,0,0,0-.37.6c-.39.72.64-.39,0-.07-.27.14-.37.38-.59.56.35-.27.11-.15-.11,0a7.93,7.93,0,0,0-.65.53c-.73.7.72-.2-.07,0-.55.16-.64.56-1,.93.42-.45-.38.23-.63.39a4.39,4.39,0,0,0-2,2l.77-.77a10,10,0,0,0-1.13.57l1.35.68c0-1.19-.13-1-.09-2.1,0-.65,0-1.3.08-1.95a9.14,9.14,0,0,0-.25-4.1c0,.32-.07.64-.11,1,1-1.5.14-3.13.29-4.37a10.23,10.23,0,0,0,.16-1.09c0-.5-.11,0-.11-.22s.14-.48.12-.75-.24-.59-.24-.93.2-.81.16-1.25c0-.18-.1-.73-.15-.27s.25-.26.25-.41a1.24,1.24,0,0,0-.15-.6c-.32-.55-.2.57,0-.12a10,10,0,0,0,.12-2.25c0-.33,0-.69-.06-1,0-.17,0-.35,0-.51,0-.52,0,.26,0-.35,0-.17,0-.44.07-.62.09-.63,0,.19,0-.35a3.1,3.1,0,0,0,0-1.25c-.16-.63-.12-.15-.1-.75,0-.25-.08-1.32-.09-.86,0-.41.06-.84.07-1.26,0,.47,0-.67,0-.91s-.06.05-.07.1c0-.13.15-.25.16-.38s.05-.41.06-.64,0-.74,0-1.1a6,6,0,0,0-.07-1.12c0-.18-.1-.31-.12-.49s0,.19.07-.28c.17-1.51,0-2.94.1-4.46,0-.72-.06-1.43-.06-2.14a12.13,12.13,0,0,0,.06-2.12,19.42,19.42,0,0,1,0-2.53,8.83,8.83,0,0,0-.14-1.26c0,.39,0,0,0-.2s.11-.43.15-.64a9.15,9.15,0,0,0-.1-2.67c0-.12,0,.13,0-.32,0-.21-.05-.43-.05-.64l0-.53c0-.41-.19.21.13-.33l-.89.58a2.1,2.1,0,0,0,1.82-1.49l-1,.83a2,2,0,0,0,1.42-.54,2.07,2.07,0,0,0,.39-.75l-.15.23c.3-.3.19-.29-.3,0a2,2,0,0,0,1.36-.62c.22-.2.33-.42,0-.14a4.53,4.53,0,0,1,.55-.34,6.24,6.24,0,0,0,1.07-.83c.12-.12.5-.58,0-.1.16-.16.38-.25.53-.42s.28-.45.4-.56c-.68.61-.36.44,0,.26a2.11,2.11,0,0,0,1-1.31l-1,.82a3.33,3.33,0,0,0,1.81-.81,5.9,5.9,0,0,0,.62-.5c.14-.14.86-1.2.4-.75s.24,0,.42-.07a3.9,3.9,0,0,0,.88-.84c-.68.72.09.24.41-.09a2.83,2.83,0,0,0,.53-1l-1,.83a3.3,3.3,0,0,0,1.36-.54,6.77,6.77,0,0,0,.59-.61c.6-.62-.56.34.16-.12a5.18,5.18,0,0,0,1.06-.8c.21-.22,1-.86.5-.59a6.23,6.23,0,0,0,1.3-.94c-.49.45.52-.56.73-.75.53-.51-.3.2.08,0,.19-.12.42-.17.62-.28.51-.3.61-.59.93-1a8.19,8.19,0,0,1,1-.85l.29-.24c.56-.45-.16,0,.36-.2a3.37,3.37,0,0,0,1.23-.76c.15-.16.26-.41.41-.56-.5.5.07,0,.22-.08a4.94,4.94,0,0,0,1.11-1c.36-.44.38-.13-.19.05a4.18,4.18,0,0,0,.76-.31c.81-.46,1.1-1.27,1.92-1.72L96.76,38c-.05,1.1-.1,2.14-.1,3.26a7.61,7.61,0,0,0,.06,1c0,.17.06.91.09.42,0,.58-.15,1.14-.17,1.73A4.83,4.83,0,0,0,96.87,46c.12.46.06-.75,0-.07,0,.13-.1.25-.1.38,0,.31.12.6.11.9a15.13,15.13,0,0,0-.14,1.55c0,.82.09-.34.07.15,0,.17-.15.31-.15.5a2.89,2.89,0,0,0,.29,1c0-.32.07-.64.11-1a2.32,2.32,0,0,0-.39,1.47c0,.67.08-.07,0,.44,0,.17,0,.35-.06.52a3.49,3.49,0,0,0,.06,1.25c0,.25.21.52.24.77-.09-.83-.19-.26-.25.06a3.36,3.36,0,0,0,.2,1.37c0,.17.25-.64,0,.06a2.36,2.36,0,0,0-.19.64A4.3,4.3,0,0,0,97,58.7c0-.32.07-.63.1-1a2.51,2.51,0,0,0-.48,1.39c0,.31.26,1.54.3.54,0,.21-.24.4-.22.63s.15.48.17.72-.13-.18-.1.32a6.18,6.18,0,0,0,.12.62c0-.35.12-.66-.08-.08a1.62,1.62,0,0,0-.18.74s.3.81.25.5,0,.34-.06.43A3.66,3.66,0,0,0,96.9,66c0-.32.07-.64.1-1a2.28,2.28,0,0,0-.42,1.37c0,.44.13.61.15,0,0,.31-.19.54-.16.87s.24.4.26.61c0-.41-.07.1-.09.25a5.54,5.54,0,0,0-.15,1.33c.06.63.17.19.15.92,0,.38,0,.78,0,1.17,0,.23.12.41.11.64s0-.06,0-.1c0,.14-.17.25-.19.39a2.11,2.11,0,0,0,0,.71c.08.56.11,0,.12.44,0,2-.09,2.74-.13,4.54,0,.36.17,1.61.17.67,0,.39,0,.89-.08,1.28a5.44,5.44,0,0,0-.16,1.26,4.48,4.48,0,0,1,.17,1.21c0,.11,0,.76,0,.51s-.18.47-.17.65.22,1.06.2.5-.18.29-.18.42c0,.31.17.55.2.85-.06-.49,0,.33-.06.43,0,.48,0,.16,0,.28a4.47,4.47,0,0,0-.16,1c0,1.36,1.93.91,1.93-.21a8.72,8.72,0,0,0,.15-2.55c-.19-.69-.1.27-.06,0a3.8,3.8,0,0,0,.13-.75c0-.21-.17-.41-.2-.61.1.67.14.22.2-.19a11.12,11.12,0,0,0,.06-1.16,2.7,2.7,0,0,0,0-.57c0-.14-.4-1-.29-.45s.1-.08.14-.29a3.49,3.49,0,0,0,.06-.65c0-.2-.07-.42-.06-.62,0,.54.12-.31.11-.41s-.11-.4-.12-.6c0-.53,0,.22,0-.31s0-.85,0-1.28c0,.44.08-.64.1-.91s.06-.78,0-1.18,0-.69-.06-1c0-.2,0-.42,0-.62-.07-.5-.08-.71-.18-.16a12.23,12.23,0,0,0,.19-2.5c0-.44-.15-.89-.18-1.32,0-.15.09-.41.15-1,0-.45-.25-1.76-.22-.85a4.68,4.68,0,0,0-.07-1.62c0,.32-.07.64-.11,1a2.13,2.13,0,0,0,.42-1.36c-.07-.68-.25-.1-.1-.82a3.5,3.5,0,0,0-.17-2.41c0,.32-.07.64-.11,1A3.48,3.48,0,0,0,98.66,60c-.13-.84,0,.71,0-.06a2.67,2.67,0,0,0,0-.85c0-.13-.38-.65-.22-.18,0-.33,0-.34-.1,0l.22-.38a1,1,0,0,0,.11-1c-.3-.51-.16-.1-.13-.82,0-.33-.08-.59,0-.92a5.14,5.14,0,0,0,.25-1.15c0-.24-.21-1.1-.25-.67,0-.51.23-.69.12-1.24,0-.17-.13-.34-.16-.51-.12-.57,0,.31,0-.31a4.6,4.6,0,0,0-.1-2.15c0,.32-.07.64-.11,1a2.82,2.82,0,0,0,.47-1c0-.29-.13-1.35-.23-.41.07-.63.1-1.18.13-1.8,0-.28.09-.54.09-.83s0-.3,0-.44c0-.54-.07.18,0-.15a17.73,17.73,0,0,0-.13-1.8c0-1.38.11-1.68,0-3.23a24.59,24.59,0,0,1,.1-3.33c0-.83-.73-1-1.36-.68A4.52,4.52,0,0,0,96.1,38l-.44.52c-.52.6.3,0-.24.25a9.88,9.88,0,0,0-1.9,1.39,5.22,5.22,0,0,0-1.13,1.12c.18-.27.69-.36.06-.13a3.43,3.43,0,0,0-.82.39,7.92,7.92,0,0,0-2,1.73c-.13.17-.61.69-.07.28a3.38,3.38,0,0,1-.62.26,4,4,0,0,0-1.12,1c-.43.47.3-.36-.24.23a6,6,0,0,0-.49.52c-.47.6.79-.48-.15-.07a2.4,2.4,0,0,0-.66.47c-.69.61-1.33,1.09-2,1.71s.33,0-.2.29c.38-.21,0-.07-.18,0a2.14,2.14,0,0,0-1.25,1.36l.77-.76a3.57,3.57,0,0,0-1.39,1c.93-.9-.47,0-.74.27a1.88,1.88,0,0,0-.47.71c-.26.66.73-.38,0,.08-.18.11-.33.28-.51.4-.36.25.28,0-.42.14a1.31,1.31,0,0,0-1,.82c-.08.19-.15.37-.23.55.26-.25.51-.51.77-.77a2.49,2.49,0,0,0-1.28.79c-.44.44.32-.33-.22.26-.18.19-.38.43-.57.61s.36-.24-.21.09l-.49.32A3,3,0,0,0,75.53,55l.89-.58c-1.25.1-1.7.71-2.22,1.81l1-.83a1.93,1.93,0,0,0-1.86,1.44l1-.83a2.2,2.2,0,0,0-2,2.22,10.31,10.31,0,0,0,0,1.36c0,.22.07.46.08.67a2.67,2.67,0,0,1,0,.51c0,.9-.27,1.85-.17,2.72s.21.4.12,1.16A11.38,11.38,0,0,0,72.36,66c0,.43.06.86.09,1.28,0,.69.06-.11,0,.42,0,.25-.07.5-.08.76,0,.87.11,1.78.08,2.66,0,.46-.09.89-.07,1.35s.06.18.06.29c0,.3-.13.57-.13.89s0,.79.07,1.17c0,.12,0,1,0,.4,0,.33-.16.6-.16.94a4.91,4.91,0,0,0,.09.67c.1.58.12,0,.12.44s0,.92,0,1.31-.17.82-.17,1.28.12.14.12,0c0,.13-.11.26-.11.39s0,.6,0,.87c0-.57-.12.32-.12.41s.1.43.1.64a6.38,6.38,0,0,0,0,1.45,3.43,3.43,0,0,1,.16.61c0-.53-.16.28-.17.41s.05.77.08.52-.2.56-.2.76c0,.85.17,1.75.14,2.61,0,.2,0,.43,0,.64s0,.52.08,0c0,.13-.13.26-.14.39a1.49,1.49,0,0,0,.06.78c.28.79.15-.64,0,.25a3.38,3.38,0,0,0,0,.78c0,.57.07-.13,0,.37a4,4,0,0,0-.11,1.41c.06.29.26,1,.27.16,0,.25-.14.51-.16.76,0,.45,0,.89-.08,1.36a10.27,10.27,0,0,0,0,1.57c0,.13.13.25.14.38,0-.33-.13-.1-.11.12a2.93,2.93,0,0,0,.13.83c.26.65.28-.28,0,.16a1.38,1.38,0,0,0-.23,1,8.32,8.32,0,0,1,.2,1.34c0,1-.12,2-.12,3,0,.56,0,1.1,0,1.66s.06,1.17.06,1.36c0,.8.71,1.06,1.36.68a3.37,3.37,0,0,0,1.54-1.35c.2-.35-.76.37-.09.16.08,0,.14-.12.22-.16a7.77,7.77,0,0,0,.91-.54,5.75,5.75,0,0,0,1.35-1.3c-.66.75-.08.31.3,0a2,2,0,0,0,.38-.43c.46-.6-.75.35,0,.05a4.69,4.69,0,0,0,1.38-1,2.93,2.93,0,0,0,.33-.53c.32-.53.22-.16-.18.13a2.8,2.8,0,0,0,.83-.71c.39-.57-.74.12,0,0a1,1,0,0,0,.25-.12,2.9,2.9,0,0,0,1-.68c.51-.52-.25,0,.2-.29a6.72,6.72,0,0,0,1-.67c.73-.63,1.72-1.17,2.45-1.85a2.63,2.63,0,0,0,.69-1.06c-.2.44-.53.46-.12.28a2.23,2.23,0,0,0,1-.61c.11-.13.09-.26.18-.39.16-.34.15-.34,0,0,.23-.19.25-.21.07-.08s.53-.17.63-.22a4.53,4.53,0,0,0,.86-.63c.34-.28.77-.81,1.11-1.09s1-.58,1.4-1a4.44,4.44,0,0,0,.6-.7c0,.07-.93.37-.21.16a2.4,2.4,0,0,0,.64-.21A10.91,10.91,0,0,0,94,91.34l.27-.27c.48-.43,0,0,.17-.15a9.63,9.63,0,0,0,1-.68c.25-.21.46-.42.68-.64.49-.49-.29,0,.47-.39a3.29,3.29,0,0,0,.85-.63,3.79,3.79,0,0,0,.32-.38c.46-.55-.23,0,.19-.29,1-.78.33-2.47-.77-1.58"/>
  <path class="b" d="M78.93,62.38a7.51,7.51,0,0,1,1.81-1.55c.4-.27.85-.5,1.22-.8a2.78,2.78,0,0,0,.26-.34c.27-.36.18-.3-.28.16a1.91,1.91,0,0,0,.66-.22,5.4,5.4,0,0,0,.62-.74c-.69.8-.1.33.17.08s1.07-1.11.56-.74a9.17,9.17,0,0,0,1.26-1c.42-.45-.35.31.31-.17a2.91,2.91,0,0,0,.68-.58c.59-.7-.78.19,0,0a2.28,2.28,0,0,0,.7-.38,9.31,9.31,0,0,0,1-.83c.19-.2.34-.43.53-.64.52-.57-.55.28.15-.11a3.59,3.59,0,0,0,1.28-.9,3.79,3.79,0,0,1,.34-.45c-.5.47.23,0,.36-.13a10.07,10.07,0,0,0,1.14-.93c.32-.3.68-.5-.12-.08.29-.16.56-.26.84-.45s.66-.49,1-.74c1.06-.68.41-2.34-.77-1.58-.42.27-.82.54-1.21.83s.31-.29-.32.17c-.27.2-.47.42-.72.64-.46.39.29-.36-.28.18-.06.06-.88.78-.25.32a8.54,8.54,0,0,0-1.4,1c-.56.6.33,0-.2.27-.19.12-.44.11-.64.25a3.42,3.42,0,0,0-.56.58c-.08.09-.79.85-.21.32-.31.28-.69.6-1,.82s-.58.23-.84.44c-.09.07-.79.82-.19.38s-.33,0-.42.06a3.49,3.49,0,0,0-.56.59c-.39.46-.7.48,0,.18a3.26,3.26,0,0,0-.86.42,2.57,2.57,0,0,0-.56.58c-.56.81.66-.21,0,.09a2.3,2.3,0,0,0-.77.58c-.7.72.74-.15-.06,0-.38.09-.51.32-.79.56-.62.53.28-.12-.24.23-.37.24-.72.48-1.07.74a10.5,10.5,0,0,0-2.21,2c-.87,1.11.81,1.75,1.58.77"/>
  <path class="b" d="M78.12,69.29A5.33,5.33,0,0,0,80,68c-.47.46.24-.09.41-.23a4,4,0,0,0,.8-.94l-.89.58A4.72,4.72,0,0,0,82.65,66c-.46.35.64-.36.81-.69.38-.73-.81.5.06,0a3.18,3.18,0,0,0,.69-.57c.65-.67-.78.27,0,0a1.75,1.75,0,0,0,.58-.33,2.94,2.94,0,0,0,.61-.56c.08-.11.62-.92.12-.42s.6-.23.82-.39a2.57,2.57,0,0,0,1-1.32l-1,.82a2.27,2.27,0,0,0,1.52-.6,1.69,1.69,0,0,0,.44-.52c.34-.73-.78.5,0-.06a4.7,4.7,0,0,0,.65-.53c.58-.53-.33,0,.2-.28-.52.26,0,0,.18,0a2.43,2.43,0,0,0,.9-.59c.25-.25.51-.57.77-.86s.73-.37-.1-.13c.22-.06.49,0,.7-.11a5.85,5.85,0,0,0,2.12-2c.67-1.22-1-1.88-1.58-.77-.38.72.21-.09-.21.27a6.1,6.1,0,0,0-.62.52l-.37.37c.57-.23.63-.3.17-.21a2.83,2.83,0,0,0-.4.08,6,6,0,0,0-2.06,2.08l.9-.58a3.42,3.42,0,0,0-1.17.38c-.3.18-1.15,1.18-.71.79s-.63.36-.81.59c-.63.78.5.15-.34.25a1.3,1.3,0,0,0-1,.82c-.3.72.48,0-.08.13a2.67,2.67,0,0,0-.63.37,3.05,3.05,0,0,0-.78.74,1.38,1.38,0,0,0-.18.39c-.09.22.62-.22.1-.15a2.46,2.46,0,0,0-.72.37,3.8,3.8,0,0,0-.33.37c-.51.52.06,0,.22-.12a2.32,2.32,0,0,0-.93.55,1.93,1.93,0,0,0-.22.36c-.26.37.88-.46.16-.1a5.18,5.18,0,0,0-1.26.94c-.68.65.29.08-.21.16a1.72,1.72,0,0,0-1,.5c-.13.12-.18.32-.31.45.18-.19.3-.28,0-.06a7.59,7.59,0,0,0-.65.46,1.91,1.91,0,0,0-.37.43c-.29.46.1,0,.3-.14l-.84.38c-1.06.47-1,2.38.28,1.82"/>
  <path class="b" d="M78.76,82.36a10.15,10.15,0,0,1,.9-.73c.2-.19,1-1,.48-.59a8.92,8.92,0,0,0,1.15-.9c.1-.11.47-.63,0-.15a2.4,2.4,0,0,1,.5-.39c.1,0-.23.14.29-.1a3.17,3.17,0,0,0,.71-.36,5.75,5.75,0,0,0,.79-.77c.59-.6-.41.22.2-.19.19-.14.41-.2.6-.36a5.06,5.06,0,0,0,.86-1l-.9.59a3.2,3.2,0,0,0,1.57-.71,6,6,0,0,0,.71-.63c.5-.56-.19.11.24-.34.21-.22.46-.56.69-.76-.51.43.23-.09.4-.2s.39-.35.09-.16.2,0,.29,0a4.38,4.38,0,0,0,.79-.76c.06-.06-.24.15.19-.08a9.17,9.17,0,0,0,.8-.52c.33-.24,1.65-1.47.64-.8a16,16,0,0,0,1.42-.82c.19-.15.63-.48.69-.76,0,0,.44-.5-.08-.08-.36.29-.08.09.2,0,1.09-.17,1.55-2.14.22-1.94a2.23,2.23,0,0,0-1.57.76c-.18.2-.31.46-.5.65.57-.57-.25.12-.34.16-.67.33.17-.14-.32.16a2.65,2.65,0,0,0-.79.58c-.53.64.23-.14-.2.28a7.55,7.55,0,0,1-.59.54c.58-.44-.24.08-.35.15a3.92,3.92,0,0,0-.67.45,1.46,1.46,0,0,0-.26.34c-.26.37-.16.32.29-.14a4.57,4.57,0,0,0-.87.41,7.47,7.47,0,0,0-1.06,1c-.43.43.29-.36-.23.23-.2.23-.41.53-.62.75.6-.62-.3.18-.31.2l-.29.26c.56-.24.63-.31.19-.2-.68.12-.88.52-1.28.92s.33-.31-.31.17a6.73,6.73,0,0,0-.72.6,2.85,2.85,0,0,0-.45.47c-.41.68.49,0-.08.08a2.77,2.77,0,0,0-1.35.76,4.85,4.85,0,0,0-.59.61c-.41.49.44-.23-.21.26a13.38,13.38,0,0,0-2.17,1.87c-.89,1,.32,2.23,1.22,1.21"/>
  <path class="b" d="M78.49,75.91a12.39,12.39,0,0,0,1.9-1.39c.15-.15.23-.42.4-.56-.53.46,0,.07.17,0A4.69,4.69,0,0,0,82,73c-.9.87.24,0,.5-.19a3,3,0,0,0,.52-.6c.28-.4.57-.59-.11-.08.73-.54,1.44-.79,1.88-1.65l-.9.58a2.07,2.07,0,0,0,1.49-.67c.06-.08.51-1.08.1-.44s0,0,.24-.09a3.64,3.64,0,0,0,2-1.86l-1,.83a2.05,2.05,0,0,0,1.4-.57,2.34,2.34,0,0,0,.32-.63c.18-.36-.79.48-.06.1.39-.2.62-.57,1-.8-.56.37.54-.19.73-.3a3.65,3.65,0,0,0,.94-.77,3.79,3.79,0,0,0,.29-.65c-.35.67-.11.38-.39.36,1.06,0,1.71-1,2.06-1.8-.25.26-.51.51-.77.77a4.16,4.16,0,0,0,1.39-.82c1-.88-.2-2.08-1.22-1.22-.23.19-.43.29-.06.08-.25.14-.52.15-.75.35a2.74,2.74,0,0,0-.44.63c-.32.48-.08.09-.09.17s.74-.33-.05-.06a2.63,2.63,0,0,0-.6.25,2,2,0,0,0-.9,1c-.2.48.49-.08,0,0a3.7,3.7,0,0,0-.44.28,8,8,0,0,0-1,.52,4.4,4.4,0,0,0-1.62,1.91l1-.82a2.11,2.11,0,0,0-1.49.67c-.11.13-.64.83-.13.41s-.19,0-.27,0a3.3,3.3,0,0,0-2,2l1-.83a2,2,0,0,0-1.48.68c-.65.79.76-.14,0,.13a2.42,2.42,0,0,0-.48.25,4.45,4.45,0,0,0-1.12,1s-.48.89-.23.51c.12-.19.08-.17-.12,0,.32-.18.32-.2,0,0s-1.37,1-.82.66a11.25,11.25,0,0,0-1.19.86c-.09.09-.49.62,0,.13a6.12,6.12,0,0,1-.64.5c-.28.21-.59.4-.93.63-1,.71-.39,2.38.77,1.58"/>
  <path class="b" d="M78.7,88.87c.44-.51-.16,0,.24-.25a7.85,7.85,0,0,0,.73-.44,4.23,4.23,0,0,0,.58-.7c.27-.3-.88.4-.11.17a1.06,1.06,0,0,0,.38-.16,3.63,3.63,0,0,0,.63-.73c.32-.38-.35.11.2-.17a4.57,4.57,0,0,0,1.41-1.13c-.5.53-.23.46.21.13a3.67,3.67,0,0,0,.64-.72c-.15.18-.76.53-.15.22a3.5,3.5,0,0,0,.42-.24,3.57,3.57,0,0,0,.53-.5c.41-.46-.3.06.3-.29.23-.13.48-.23.7-.38a2.67,2.67,0,0,0,1.13-1.54l-1,.83a2.44,2.44,0,0,0,1.4-.55,6.3,6.3,0,0,0,.48-.57c.58-.65-.34.32.2-.17.17-.15.36-.33.53-.47.62-.49-.2.17.25-.21a2.12,2.12,0,0,0,.44-.35c.34-.47-.81.12.12,0a1.32,1.32,0,0,0,1-.82c.18-.51.1-.31.44-.45a3.54,3.54,0,0,0,.87-.38,1.52,1.52,0,0,0,.26-.35c.36-.61-.58.26-.19.08a2.55,2.55,0,0,0,.81-.52c.11-.11.13-.25.22-.36.31-.37-.35.35-.05,0s.46-.38.66-.61c.46-.55-.69.24.17,0,1.14-.33,1.07-2.21-.28-1.82a2.5,2.5,0,0,0-1.19.68c-.1.08-.54.59,0,.1-.16.15-.4.22-.54.4s-.24.4-.38.59c.17-.23.68-.58.08-.19a2.79,2.79,0,0,0-.94,1l.9-.58a3.13,3.13,0,0,0-2.63,2.12l1-.82a4.09,4.09,0,0,0-2.33,1.38c-.63.56.33-.32-.22.15a5.66,5.66,0,0,0-.52.47s-.23.39-.22.32c-.3.3-.2.28.3-.05l-.44.07a1.28,1.28,0,0,0-1,.83c0,.14-.11.28-.15.42.08-.33.63-.39.17-.26a3.29,3.29,0,0,0-.44.28,5.94,5.94,0,0,0-1.25,1c-.34.35.25-.21-.29.19a3.13,3.13,0,0,0-.73.63c-.41.51.69-.48-.12,0a2,2,0,0,0-.8.75c-.22.35.64-.32.26-.18-.1,0-.2.11-.3.15a3.39,3.39,0,0,0-.78.4,3.08,3.08,0,0,0-.55.59,4.15,4.15,0,0,0-.24.34c-.23.34.64-.35.23-.23a1.72,1.72,0,0,0-.83.49c-.11.1-.13.24-.22.36-.31.35.42-.29.06,0a8.24,8.24,0,0,0-1.26.94c-.89,1,.31,2.23,1.22,1.22"/>
  <path class="b" d="M78.52,95.69a3.39,3.39,0,0,0,1.21-1,2.68,2.68,0,0,1,.4-.48c-.56.47.29,0,.39-.09a5.12,5.12,0,0,0,.58-.56c.57-.57-.29.06.24-.26a8.54,8.54,0,0,0,1.13-.66,2.6,2.6,0,0,0,.63-.73c.47-.78-.58,0,0-.12a5,5,0,0,0,1.15-.64,6.35,6.35,0,0,0,1.06-.79,3.4,3.4,0,0,0,.57-.74c.52-.85-.6.17.06-.06A5.17,5.17,0,0,0,87,88.77c.29-.19,1.66-1.25.54-.58a6.44,6.44,0,0,0,1.29-.86c.21-.2,1.21-1.14.69-.8a9.65,9.65,0,0,0,.88-.4c.18-.14.25-.4.41-.55.59-.52-.48.38.22-.06a3,3,0,0,0,.78-.56,3.26,3.26,0,0,0,.18-.38c.22-.41.14-.35-.23.17a4.67,4.67,0,0,0,.62-.24,4.22,4.22,0,0,0,1.12-1.15c.89-1-.31-2.23-1.21-1.21a4.67,4.67,0,0,0-.57.68c-.36.56.64-.37-.3.06a2.77,2.77,0,0,0-1.31,1.54l.77-.77a2.79,2.79,0,0,0-1.28.73,2.36,2.36,0,0,0-.36.42c-.42.63.78-.47-.14-.06a3.35,3.35,0,0,0-1,.89c-.44.51,0,0-.12.18a5.52,5.52,0,0,1-.53.43c-.68.52.56-.38-.17.12a5.17,5.17,0,0,0-.69.46c-.3.26-.69.64.15.13-.18.11-.41.18-.6.28A5.36,5.36,0,0,0,84.19,89c-.25.35.46-.37-.07.06-.13.11-.29.19-.43.29-.34.24-.73.42-1.12.65a3.5,3.5,0,0,0-.95.76,2.32,2.32,0,0,0-.18.39c-.2.42-.11.37.26-.16a2.47,2.47,0,0,1-.42.3,3.5,3.5,0,0,0-1.15.68c-.13.11-.21.28-.34.4-.62.57.56-.34-.18.11s-1.19,1.25-1.85,1.61c-1.12.61-.46,2.25.76,1.58"/>
  <path class="b" d="M101.78,45.45a2.68,2.68,0,0,0,.72-.53c.38-.51-.59.12-.21,0a2.1,2.1,0,0,0,.51-.1,5.93,5.93,0,0,0,1.56-1.23l-1.57-.26a11,11,0,0,1,.12,2.06,3.48,3.48,0,0,0,.14,2.27c0-.32.07-.64.1-1-.67,1-.46,1.66-.29,2.77a3.48,3.48,0,0,0,0,.55c.19.65.21-.23,0,.16a1.7,1.7,0,0,0-.12,1.49c.1.3.17.88.2.05,0,.24-.13.51-.16.75a6.92,6.92,0,0,0,.07,1.37c.06.43.08.22.08.31a3.4,3.4,0,0,1,0,.64,2.76,2.76,0,0,0,0,1.37c.06.23,0-.64-.16.06a2.11,2.11,0,0,0,0,.75,4.26,4.26,0,0,0,.13.62c.14.52.26-.52,0,.18a3.29,3.29,0,0,0-.17,1.39c0,.22.09.43.11.65,0,.61,0,0,0,.41a4.15,4.15,0,0,0,.1,1.27c.09.58,0-.38,0,.34,0,.27-.06.54-.07.82a20.13,20.13,0,0,0,0,2.46c0,.63.15.84.13,1,.06-.49-.11.09-.16.28a2.88,2.88,0,0,0-.1.87c0,.4.15.78.18,1.17,0,.21-.08.42-.06.64.06.5.06.7.17.16a6.5,6.5,0,0,0-.28,1.46,3,3,0,0,0,.08.67c.14.55.13,0,.17.43.09.7,0,.55,0,.92a3.73,3.73,0,0,0-.22,1.4c0,.28.22.47.27.73-.09-.43-.06.16,0,.31.09.47-.06.6.15,0a3.1,3.1,0,0,0-.37.88c0,.31.16.44.21.72s0-.16,0,.31.15,1,.13,1.41-.32.77-.32,1.17a4,4,0,0,0,.13.6c.06.52.1.18.08.05,0,.16-.09.33-.06.5s.1.77.14.28c0,.24-.2.5-.22.76s0,.87,0,1.29c0,.91.13,1.59.08,2.46a3.37,3.37,0,0,0,0,.71c0,.14.15,1,.16.46s-.26.32-.29.52.07.48.08.78a6.28,6.28,0,0,0,.15,1.49c.14.58.18-.63,0,.19a2.25,2.25,0,0,0-.08.77c0,.88.27.53.1,1.3a4.3,4.3,0,0,0-.12,1.52l.58-1.14c-.43.24-.83.42-1.26.7s.45-.23-.17.12l-.7.36c-.37.19-.71.31-1.07.5-.06,0-1,.68-.29.26-.19.12-.43.11-.61.25s-.4.55-.65.75c.71-.58.38-.42,0-.27a9.14,9.14,0,0,0-1.2.83c-.53.32.43-.15-.23.09a6.71,6.71,0,0,0-.75.27c-.21.11-.37.25-.56.37-.68.42.22-.12-.31.17s-.75.48-1.1.71c-.18.12-1.2.62-.66.43a5.6,5.6,0,0,0-1.5.53,6.7,6.7,0,0,1-.93.68,21.61,21.61,0,0,0-2.21,1.09,3,3,0,0,0-.69.45c-.48.5.73-.15,0,0s-1,.53-1.33,1.15l.9-.59c-1,0-1.41.45-2.08,1.13l1-.35-.61,0a1.23,1.23,0,0,0-1.14.58c-.34.65-1.78,1-2.51,1.27a22,22,0,0,0-3.2,1.74c-.19.12-1,.84-.49.48a8.07,8.07,0,0,0-.94.52c-.54.46,0,.09-.49.25a3.14,3.14,0,0,0-1,.39c-.14.1-.25.23-.38.32-.72.5.62-.21-.18.12a6.63,6.63,0,0,0-.88.33,5.2,5.2,0,0,0-1.61,1.46l.89-.59a2.35,2.35,0,0,0-1.78.86l1.52.75a3.32,3.32,0,0,0,.18-1.39c0-.08-.21-.62-.16-.32s0-.37,0-.44c0-.74.07-.1.16-.73a2.26,2.26,0,0,0-.23-1.27c-.44-1.1-2.2.13-1.8,1.15.31.76.23-.34,0,.32a3,3,0,0,0-.07,1,3.32,3.32,0,0,0,0,.89c.2.79.29-.39,0,.51s.83,1.43,1.52.75c.44-.43.39-.25-.09-.11.25-.07.45,0,.69-.08s1.23-1,.71-.63c.2-.16,1.19-.72.62-.47.32-.14.71-.16,1-.33,1.26-.73,2.06-1.26,3.33-2.1-.57.37.51-.22.69-.32s.51-.32.79-.45.57-.21.85-.37.27-.22.42-.3c.61-.32-.37.14.25-.07a16,16,0,0,0,2.08-1.12c-.57.29.53-.08.74-.22a2.32,2.32,0,0,0,.81-1l-1.14.58a2.07,2.07,0,0,0,1.62-.38,1.8,1.8,0,0,0,.43-.44c.22-.43-.66.07.16.08a1.18,1.18,0,0,0,.9-.58l.29-.54-.9.58a3.31,3.31,0,0,0,1.36-.55c.52-.32-.4.2.29-.19.19-.1.36-.26.55-.36.68-.35,1.47-.55,2.14-1,.23-.15.42-.34.64-.5.53-.42-.41.07.17-.13a9.78,9.78,0,0,0,1.25-.44c.35-.19.69-.38,1-.6.09-.06.94-.63.29-.26.23-.13.49-.19.73-.33a4.14,4.14,0,0,0,.4-.33c.57-.34-.43.17.31-.1a5.16,5.16,0,0,0,1.23-.59c.19-.13.36-.29.55-.41.61-.39-.42.35.27-.09a3.16,3.16,0,0,0,.72-.54c.69-.69-.38.14-.07,0s.48-.26.72-.39c.57-.3,0,0,.2-.1l1.15-.61c.39-.22.75-.47,1.13-.7.17-.1-.37.22.22-.06.23-.11.45-.24.68-.36a1.21,1.21,0,0,0,.58-1.14c-.08-.69-.07.15,0-.4,0-.17.08-.34.11-.51a5.72,5.72,0,0,0,0-1.37c0-.12-.1-.65-.1-.19,0-.25.1-.41.12-.65a5.5,5.5,0,0,0-.16-1.15c0-.43,0-.84-.08-1.28-.2.54-.2.62,0,.22l.14-.26a3.13,3.13,0,0,0,.08-.75,10.81,10.81,0,0,0-.21-2.41c-.09-.34-.06.79,0-.06,0-.23,0-.41,0-.63s.08-.82.07-1.17-.11-.44-.1-.63c0,.62.17-.32.18-.41a5.48,5.48,0,0,0,0-1.15c0-.27-.18-.47-.25-.73.16.64-.06.44.1.07a3,3,0,0,0,.25-1.29,5.66,5.66,0,0,0-.39-2.52c0,.31-.07.63-.1,1a3.17,3.17,0,0,0,.42-1.9c-.1-1.07-.29-.64-.12-1.57a5.84,5.84,0,0,0,.16-1.91c0-.34-.27-.54-.29-.9s.28-.6.28-.92c0-.11-.18-1.15-.14-.65,0-.34,0-.66,0-1a2.83,2.83,0,0,0-.12-.78c-.28-.55-.18.4-.07.09a4.57,4.57,0,0,0,.32-.75,3.57,3.57,0,0,0,0-1c-.06-.63,0,.08,0-.57s-.12-1.28-.12-1.93c0-.14.07-1.09,0-.53a4.19,4.19,0,0,0,.18-1c0-.34-.23-.65-.29-1,.14.86.19-.1.19-.49a4.72,4.72,0,0,0-.11-.83,3,3,0,0,1,0-.52c0,.47,0,.11,0,0a5.69,5.69,0,0,0,.24-.9c0-.41-.24-.73-.21-1.14,0,.54.25-.46.25-.65s-.21-.4-.23-.6c0,.08,0,.86.09.19a7.12,7.12,0,0,0,0-2c0-.15,0-1,0-1.21a1.56,1.56,0,0,0-.17-1.1s-.14-.67-.12,0,.24-.21.28-.4a5.32,5.32,0,0,0-.19-2.14,1.89,1.89,0,0,0,0-.41c-.19-.53.12-.29-.12.09a1.66,1.66,0,0,0,.36-1.34c0-.15-.14-.28-.17-.43-.11-.57-.1.36,0-.27a7.6,7.6,0,0,0,.21-1.14c0-.68-.15-1.37-.18-2,0-.84-1.17-.68-1.57-.26-.2.21-.43.32-.63.51a2.26,2.26,0,0,1-.29.25c-.31.22.91-.24.15-.13s-.92.54-1.37.82c-1.08.65-.43,2.31.77,1.58"/>
  <path class="b" d="M106.91,51.05a2.35,2.35,0,0,0,1.35-.31,2.84,2.84,0,0,0,.57-.41c.49-.52-.75.15,0,0a2.4,2.4,0,0,0,1.09-.52,3.08,3.08,0,0,0,.49-.53c.43-.56-.74.27.2,0l-1.11-.8a7.56,7.56,0,0,0,.11,1.9c0,.14,0,.57,0,.09,0,.18-.2.32-.21.51a2,2,0,0,0,.26,1.11c0-.32.07-.64.11-1a2,2,0,0,0-.33,1.61c.08.32.06,1,.26.08-.07.32-.34.54-.38.88a19.19,19.19,0,0,0,.24,2.59,17.28,17.28,0,0,0-.2,2.59c0,.06.1,1,.12.4,0,.3-.18.55-.18.88s.17,1,.27.16c0,.23-.17.45-.19.7a3.18,3.18,0,0,0,0,.69c0,.08.23,1,.18.41a13,13,0,0,1,0,1.53c0-.46-.28.7-.29.93s.22.54.25.85c0-.51-.09.24-.1.32a3.49,3.49,0,0,0,.06,1.51c.15.63.16-.27.09.3,0,.2-.2.44-.24.65-.07.36.12,1.93.16.93a2.78,2.78,0,0,0,.12,1.61c0-.31.08-.63.11-1a2.49,2.49,0,0,0-.38,1.51c0,.27.18,1.83.32.7-.07.58-.34.81-.26,1.47.11.84,0-.71,0,.06a2.67,2.67,0,0,0,0,.85c.18.85.18-.26.13.06s-.14.47-.15.75.14,1.19.18.17c0,.21-.15.42-.16.63s.14,1.42.16.92c0,.74-.28.88.15,1.62,0-.32.07-.64.1-1a3.26,3.26,0,0,0-.31,2.52c0,.15.14.28.15.43,0,.53,0-.26-.09.28a3.9,3.9,0,0,0,.08,1.13,5.18,5.18,0,0,0-.3.94,4.09,4.09,0,0,0,.19,1.26,17.49,17.49,0,0,1-.08,2.17c0,.72-.19,1.44-.12,2.15,0,.26.17.48.21.72s.09-.31,0,.19a6,6,0,0,0-.14,1.27c0,.7,0,1.41.07,2.11a4,4,0,0,0,0,1.15c.13.41.06.42.2-.08-.07.27-.31.47-.35.75a1.86,1.86,0,0,0,.13.85c0,.2,0-.64-.07.07a3,3,0,0,0,.11,1.37c.15.57.21-.56,0,.13a2.86,2.86,0,0,0-.1.77,4.18,4.18,0,0,0,0,1.32l.83-1.26c-1.4.48-2.36.38-3.44,1.83l.9-.58a4.09,4.09,0,0,0-2.64,1.12l1-.36c-1.25-.24-1.77.44-2.79,1,.55-.29-.71.19-1,.28s-1.48.58-1,.45-.32-.09-.42-.08a3.79,3.79,0,0,0-.75.21c-.39.15-.75.32-1.13.48a5.13,5.13,0,0,0-.79.37c-.84.52.68,0-.1,0s-1,.58-1.4,1.07l.89-.59a6.38,6.38,0,0,0-.76.15c-.14,0-.91.47-.33.25-.46.18-1,.32-1.47.48a17.74,17.74,0,0,0-2.62.76A14.37,14.37,0,0,1,90,105.76a5.9,5.9,0,0,0-1.19.47,4.39,4.39,0,0,0-.71.44c-.43.34.71-.33-.27-.07-.46.12-.74.5-1.12.69s.15-.1-.45,0a1.59,1.59,0,0,0-1,.41c-.6.53.59.08,0,.07a2.9,2.9,0,0,0-.76.18c-.46.13-.94.26-1.38.43-.8.32-1.67.78-2.48,1.08a6.87,6.87,0,0,0-1.43.67c1-.6-.53-.08-.92.12a1.75,1.75,0,0,0-.33.28c-.51.48.57-.07.15-.06a2.43,2.43,0,0,0-.88.22,3.16,3.16,0,0,0-.6.25c-.18.1-1,.87-.51.49-.31.22.09-.06-.45,0a5.08,5.08,0,0,0-1,.33c-.42.14.43-.16,0,0-.16,0-.36,0-.52.07a2.78,2.78,0,0,0-.86.74l1-.35-.46,0,.61.62c0-.51-.14-1.06-.15-1.57s0,.16.14-.43a3.45,3.45,0,0,0,.08-.85c0-1.36-1.94-.91-1.93.21,0,.6-.26,1.08-.22,1.7s.11,1.09.16,1.64a.7.7,0,0,0,.61.61,1.93,1.93,0,0,0,1.42-.34c.79-.58-.73.2.34-.14a1.53,1.53,0,0,0,.48-.23c.52-.38-.67-.08,0,0a2.35,2.35,0,0,0,1.08-.18c.22-.1,1.1-.87.57-.52a4,4,0,0,1,1-.31,5.06,5.06,0,0,0,1-.46c.64-.36-.43.08.2-.1.12,0,.29,0,.41,0,.27-.08,1.31-.72.79-.51s.54,0,.77-.12c.59-.25,1.07-.44,1.7-.66.24-.08,1.21-.6.68-.4.28-.1.69-.17,1-.26a3.34,3.34,0,0,0,2-1l-1,.36a2.56,2.56,0,0,0,2-.44c.12-.07.21-.17.33-.24.78-.4-.59.25.25,0a6.58,6.58,0,0,0,1-.45c.52-.27-.22.12.09,0a4.19,4.19,0,0,1,.49-.2c.12,0,.64-.28.09-.12.16,0,.36,0,.53,0a6.88,6.88,0,0,0,1.8-.73,22,22,0,0,1,3.2-1.19l1.77-.66c.77-.3-.54.21.22-.1a2.7,2.7,0,0,0,.39-.08,2.93,2.93,0,0,0,1-1l-.89.58a2.17,2.17,0,0,0,1.26-.38c.71-.46-.69.08.34-.12a3.06,3.06,0,0,0,1-.37c.56-.31.09-.11.57-.19a11.34,11.34,0,0,0,2-.64c.27-.1.58-.19.84-.31s1.27-.76.67-.44c.15-.08,1.29-.57.69-.41s0,.15.21.14a1.37,1.37,0,0,0,.74-.17,3.08,3.08,0,0,0,.51-.51c-.17.17-.83.29-.15.21a5.15,5.15,0,0,0,.93-.26,2,2,0,0,0,1.13-.74c.3-.43-.62.18.24,0,.23-.05,1.24-.56.71-.35.33-.13.74-.17,1.09-.29a1.22,1.22,0,0,0,.82-1.26c-.15-.8.23-1.5.13-2.28,0-.14-.11-.29-.13-.43-.09-.66,0,.32,0-.28a2.94,2.94,0,0,0-.16-1.37c0,.32-.07.64-.11,1a3.75,3.75,0,0,0,.32-2.44c-.06-.74.08-1.49,0-2.22s-.11-.19.06-.91a2.4,2.4,0,0,0-.07-1.25c-.18-.66-.14.29-.14-.3a3.64,3.64,0,0,1,.12-.53,6,6,0,0,0,0-1.27c0-.74.18-1.47.11-2.21,0-.39-.27-.77-.29-1.13,0,.36.27-.62.3-.84.07-.49-.14-.79-.16-1.24.06,1,.27-.46.22-.81,0-.17-.1-.33-.13-.49-.15-.86.07.51-.07-.31,0-.16,0-.34,0-.51-.2-.48-.39.57,0-.17a1,1,0,0,0,.11-1c-.42-.73-.26.37-.09-.26a2,2,0,0,0,0-.94c0-.14,0-.26-.05-.4,0-.48,0,.68,0-.15a2.84,2.84,0,0,0,0-.92c-.14-.77-.08.63.07-.25a1.92,1.92,0,0,0-.13-1c-.13-.49-.08.69,0,.2,0-.18.16-.33.16-.51a2.86,2.86,0,0,0-.27-1c0,.32-.07.64-.11,1a3.12,3.12,0,0,0,.24-2.55c-.08-.26-.29.72,0,0a1.62,1.62,0,0,0,.21-.8c0-.21-.18-.41-.23-.6.15.59.18.23.16-.19a3.75,3.75,0,0,0-.12-.6c-.06-.55-.14.27,0-.32a3.66,3.66,0,0,0,.27-1.28c0-.28-.28-1.18-.29-.8a7.16,7.16,0,0,0,.2-1.4c0-.21-.21-.39-.24-.6.07.46-.05.48.13.06a3.33,3.33,0,0,0,.12-1.4,9.13,9.13,0,0,0,0-1.05c0-.25-.19-.48-.21-.73,0,.39,0,0,0-.19a3,3,0,0,0-.12-1.36c.08.36,0,.56.12.06a6.22,6.22,0,0,0,0-.87,5.54,5.54,0,0,0-.09-.93,5.59,5.59,0,0,0,.31-1.16,7.77,7.77,0,0,0-.19-2.64c-.14-.4,0-.57-.2,0,.09-.31.34-.54.38-.88a4,4,0,0,0-.34-1.5c0,.32-.07.64-.11,1a2.89,2.89,0,0,0,.44-1.25c0-.22-.2-.41-.23-.61.12.76.17.3.23-.06.12-.76-.23-1.47-.12-2.24s-.55-1-1.11-.8a2.35,2.35,0,0,0-1.22.68c-.08.08-.42.57-.18.25.06-.07,0,0,0,0a4.26,4.26,0,0,0-1.1.52,2,2,0,0,1-.44.28c.42-.17,0-.11-.24-.11-1.12,0-1.57,2-.22,1.94"/>
  <path class="b" d="M48.45,87.87c.39.37.87.68,1.24,1.06.16.17.24.43.4.58.35.32.58.27,1,.47-.66-.33-.16.13.11.38s.48.24.68.41c.43.34.79.65,1.22,1,.82.61,1.64,1.31,2.43,2a11.44,11.44,0,0,0,1.09,1,5.09,5.09,0,0,1,1.19,1,20.65,20.65,0,0,0,2.61,1.84c.34.27-.11-.08.29.36.18.19.34.33.54.51l1.29,1.07c.8.66,1.57,1.4,2.39,2,.39.3.89.42,1.26.74a6.73,6.73,0,0,0,1.3,1.14,6.78,6.78,0,0,1,1.3,1.09c.07.06.45.24.25,0s.13.38.18.43c.3.27.55.25.9.43.08,0,.38.23.18.07s.19.31.24.36c.21.2.43.43.65.61.47.4,1,.78,1.47,1.18.72.59,1.87-.23,1.72-1.11-.1-.6,0,0,0-.45s.1-.49.1-.76a3.58,3.58,0,0,0-.13-.74c0-.1,0-.21-.06-.3-.07-.51,0,.17,0-.15a6.5,6.5,0,0,0-.12-3c0,.32-.07.63-.11,1l.31-.51a1,1,0,0,0,.1-1l-.32-.52c0,.32-.07.64-.11,1,.74-1.45.43-3.43.27-5a5.6,5.6,0,0,1,0-1.16c0-.08,0,.18.09-.28,0-.26.07-.5.09-.77a2.74,2.74,0,0,0-.19-1.24s0-.21-.1.05a5.77,5.77,0,0,0,.35-.76,10.67,10.67,0,0,0-.22-2.5c-.06-.7-.06.22,0-.34,0-.21,0-.49.07-.7,0-.49-.08,0-.06-.21s.12-.55.15-.82c.05-.56,0,.14,0-.35,0-.2.08-.4.08-.62,0-.39-.07-.83-.08-1.25s0-1.64,0-2.07.07-.91,0-1.34-.07-.74-.17-.17a4.1,4.1,0,0,0,.21-.87,7.85,7.85,0,0,1-.09-1.19,2,2,0,0,0-.15-1.63c0,.32-.07.64-.11,1a3.23,3.23,0,0,0,.26-2.42c-.09-.56,0,.3,0-.41,0-.19,0-.44,0-.63.11-.81,0,.57.06-.27a3.64,3.64,0,0,0,.06-.74,9.31,9.31,0,0,1,0-1.84A5.39,5.39,0,0,0,74.09,70c0,.32-.07.64-.1,1a2.32,2.32,0,0,0,.48-1.13,1,1,0,0,0-.14-.48c-.4-.7-.12.67-.07,0,0-.32,0-.7.08-1-.06.5.12-.48.12-.66s-.23-.94-.23-.79c0,.33.12-.18.12-.27a4.33,4.33,0,0,0,0-.72c-.06-.59-.19,0-.1-.57.05-.31.23-.61.25-.92a3.28,3.28,0,0,0-.15-.87,8,8,0,0,0,0-.92c-.06-.66,0-.16.08-.54a3.55,3.55,0,0,0,0-1,14.68,14.68,0,0,1,0-3.56.77.77,0,0,0-.4-.79c-.41-.17-.49-.46-1.13-.93-.41-.3-.81-.62-1.22-.93s-.9-.59-1.33-.9a7.11,7.11,0,0,1-.6-.49c-.06-.05-.42-.28-.09,0-.16-.14-.16-.41-.33-.56-.39-.34-.84-.61-1.24-.95a11.93,11.93,0,0,0-1.3-1.05c-.51-.32-.26,0-.52-.26s-.38-.34-.54-.49c-.43-.38-.74-.84-1.2-1.23a14,14,0,0,0-1.34-.77c-.52-.37-.64-.85-1.27-1.11-.12-.06-.26-.09-.38-.16-.38-.23.27.27-.07,0-.19-.18-.35-.49-.55-.69A8.28,8.28,0,0,0,59.71,45c-.78-.5-.66-.08-1.24-.71-.3-.32.05-.07-.34-.4s-.67-.3-1-.51c.33.25-.1-.29-.17-.38a1.9,1.9,0,0,0-.63-.63c-.25-.16-.58-.16-.82-.31.31.2-.16-.37-.26-.47-.72-.66-.76-.31-1.37-1a5.88,5.88,0,0,0-1.62-1.16c.75.46,0-.28-.2-.46a5.4,5.4,0,0,0-.7-.42,6.51,6.51,0,0,1-1.52-1.23c-.61-.77-1.87.36-1.72,1.11a3.22,3.22,0,0,1,.09.76c0-.48-.18.12-.21.28a2.13,2.13,0,0,0,.07.75,2.61,2.61,0,0,1,.06.27c.06.54.06-.19,0,.15a26.54,26.54,0,0,0-.28,2.7,12.21,12.21,0,0,0,.1,2.71c.19.75.23.25.14.92-.07.46-.09,1-.13,1.42-.08.84.16,2.13.12,2.59,0-.26-.15.4-.15.52,0,.34.2.53.26.85-.1-.49-.14-.45-.18.06a4.05,4.05,0,0,0,.12.85c0,.11-.05-.13,0,.31,0,.21,0,.44,0,.65,0,.47-.09,1-.07,1.42,0,.12.11.77.11.51s-.12.43-.13.52c0,.43-.09.9-.12,1.31a1.19,1.19,0,0,0,.09.85c.26.5.27-.52,0,.12a3.05,3.05,0,0,0,0,1.53c0,.18,0,.68.06.22,0,.3-.15.57-.15.88a3.29,3.29,0,0,0,.08.63c0,.08.06.16.08.24.19.79.1-.51,0-.07,0,.28-.09.54-.13.82-.07.56,0-.16,0,.35a2.25,2.25,0,0,0-.08.73,2.22,2.22,0,0,0,.21.37c.19.42.19-.82.06-.07A9.4,9.4,0,0,0,48,65.88a4.9,4.9,0,0,0,.08.76c0,.18,0,.76.07.3a7,7,0,0,0-.11,1.46l.09.58c.07.48.11.18.11,0,0,.16-.1.34-.12.51A6,6,0,0,0,48.28,71c-.05-.42,0,.12-.06.26s-.17.44-.2.65a2.21,2.21,0,0,0,0,.85c.08.55.06-.08.12.37a4.56,4.56,0,0,1,0,.64c0,.44,0-.42,0,0,0,.17-.12.34-.12.51s.09,1.37.15.92A5.88,5.88,0,0,0,48,76.84c.08.66.16-.06.12.45,0,.26-.14.51-.16.78a2.22,2.22,0,0,0,0,.85c.24.91.09-.46.05.19a4.59,4.59,0,0,0,0,.91c.08.65.16-.15.09.4a7.37,7.37,0,0,0-.23.87c0,.12.11.25.13.36.09.7.12-.55,0-.07a2.07,2.07,0,0,0-.12.86c0,.14.17.24.18.37.07.5.1-.63,0,.18A4.76,4.76,0,0,0,48,84.48a5.62,5.62,0,0,1,.16.71c0,.45,0-.43,0,0,0,.17-.16.32-.17.51a12.88,12.88,0,0,0,.25,1.73c.1,1.26,2,.38,1.93-.7,0-.36-.23-1.24-.23-1.24,0,.23.2-.39.21-.53a3.29,3.29,0,0,0-.09-.76c0-.22-.13-.43-.15-.66,0-.5,0,.25.11-.34A2.32,2.32,0,0,0,50,81.67c-.09-.29,0,.75.08-.07a1.87,1.87,0,0,0,0-.78c-.19-.76-.29.56,0-.19a2,2,0,0,0,.11-.77A2.85,2.85,0,0,0,50,79.2c-.16-.68-.09.71.07-.19.12-.68-.19-1-.17-1.18a7.22,7.22,0,0,0,.24-1.39c0-.14-.27-.71-.25-.51s.14-.41.17-.56A7.16,7.16,0,0,0,50,74c0,.55.1-.3.1-.41s0-.43-.05-.65a3.64,3.64,0,0,0,0-.74c-.15-.83-.22,0-.14-.18a3.22,3.22,0,0,0,.26-1.41,5.84,5.84,0,0,0-.11-.73c-.09-.57-.08.31,0-.31a7.22,7.22,0,0,0,0-1.47A5.73,5.73,0,0,1,50,67.5c0-.52,0,.25,0-.35a12,12,0,0,0,0-1.47,9.49,9.49,0,0,1,.18-1.19,1.24,1.24,0,0,0-.06-.78c-.31-.75-.27.56-.1-.19a3.76,3.76,0,0,0,0-.82c0-.07,0,.17.07-.28a4,4,0,0,0,0-.78c0-.11-.13-.93-.14-.39,0-.47.14-.91.13-1.4s.15-.88.14-1.31a1.55,1.55,0,0,0-.22-.72c-.12-.24-.11.65.06-.07a3.21,3.21,0,0,0,.07-.76c0-.17,0-.91,0-.41a26.7,26.7,0,0,0,.12-2.7,12.82,12.82,0,0,0-.05-1.39c-.07-.49-.07-.56-.13-.05,0-.39.24-.55.17-1s-.25-.68-.23-.05c0-.27.14-.6.16-.88A10.88,10.88,0,0,0,50,49.24c-.06-.94.14-1.91.15-2.87A11.09,11.09,0,0,0,49.9,45c0-.51.06-1.07,0-1.59A7.94,7.94,0,0,1,50,42c0-.25,0-.51,0-.76,0-.65,0,.1.09-.48a2.7,2.7,0,0,0,0-.94c0-.18-.12-.78-.15-.3a5.65,5.65,0,0,0,.13-1.76l-1.72,1.11a6.22,6.22,0,0,0,1.27,1.07c.21.15.44.33.67.47s.22.13.31.2c.65.53-.44-.33.23.22a3.44,3.44,0,0,0,.69.54c.13.07.71.41.44.15.44.42.63,1,1.2,1.32.33.19.91.54.4,0,.21.21.29.5.53.72.7.6.82.25,1.24.8a3.35,3.35,0,0,0,1.39,1c-.78-.44,0,.26.21.44a3.92,3.92,0,0,0,.6.55,2.84,2.84,0,0,0,.76.24c-.15-.08.39.4.49.48.41.37.76.93,1.16,1.26a4.47,4.47,0,0,0,.69.35c.59.32,0-.13.41.31a5.64,5.64,0,0,0,1.35,1,3.11,3.11,0,0,1,1.12,1,3.52,3.52,0,0,0,.68.71c.11.07.27,0,.38.14-.38-.3.07.15.11.18.91.62,1.68,1.46,2.61,2.09.1.07.22.12.32.19.74.55-.45-.45.23.21a6.58,6.58,0,0,0,.75.63c.45.35.93.67,1.4,1s.94.77,1.44,1.11a3.15,3.15,0,0,1,.31.2c.45.41-.21-.16.2.25a2.09,2.09,0,0,0,.93.68c-.14-.26-.27-.52-.4-.79a7.57,7.57,0,0,0-.06.95c0,.17,0,.35,0,.51,0,.54,0-.18,0,.16a3.41,3.41,0,0,0-.12,1c0,.19.23,1.12.18.67a8.89,8.89,0,0,1,.07,1c0-.52-.18.47-.19.65a6.38,6.38,0,0,0,.15,1.85c.16.61.22-.5-.06.38a4,4,0,0,0-.18.9,3.71,3.71,0,0,0,.22,1.11c-.16-.78-.22,0-.21.43s.2.61.23.91c-.05-.47-.08.43-.11.65s0,.69,0,.16c0,.18-.16.33-.16.51a1.79,1.79,0,0,0,.33,1.11c0-.32.07-.64.11-1a2.21,2.21,0,0,0-.27,1.91c0,.26,0,.51,0,.78.06.7,0,.07,0,.67a9.86,9.86,0,0,0,.06,1.88c.08.59.06-.65-.07.31,0,.17,0,.34,0,.5-.06.59,0-.39,0,.28a3.77,3.77,0,0,0,.12,1.73c.28.65.24-.56,0,.23s0,.72.09,1.34c-.14-.72-.09-.2-.19.26a3.3,3.3,0,0,0-.09.83c0,.12.17,1.1.18.54,0,.44-.13.75-.1,1.23s0,0,0,.56a7,7,0,0,0,0,.78c0,.34.17.67.19,1,0-1-.2.24-.21.49a11,11,0,0,0,.06,1.62c.08.81.09-.33.11.16,0,.16-.13.34-.12.5s0,.27,0,.38c-.06.64,0-.33,0,.28,0,.36,0,.67,0,1,0-.57-.11.53-.11.65a12.31,12.31,0,0,0,.19,1.69c0,.36,0,1.18.26.3a10.08,10.08,0,0,0-.39,1c-.15.91.22,1,.18,1.55s-.25,1.29-.23,1.94.28,1.28.26,1.93a6,6,0,0,0-.05,1.93c.09.3-.1.79.16-.08-.07.21-.29.41-.32.62a1.51,1.51,0,0,0,.34,1.23c0-.32.07-.63.11-1a2.48,2.48,0,0,0-.48,1c0,.17.2,1.09.17.65,0,.26-.08.56-.08.83s0,.3,0,.45c0,.53.06-.19,0,.15a9.78,9.78,0,0,0,.1,1.87c.06.53-.08-.19-.14.46a4.11,4.11,0,0,0,0,1l1.73-1.11c-.44-.36-1-.67-1.38-1s-.61-.82-1-1.12a2.93,2.93,0,0,0-.88-.45c-.84-.28.24.29-.17-.17a10.17,10.17,0,0,0-1.23-1.12c-.27-.21-1.32-.75-1.1-.57-.44-.38-.68-.91-1.24-1.27-.9-.58-1.63-1.21-2.47-1.85-1.72-1.31-3.27-2.76-4.92-4.09-.45-.36-.07.1-.38-.24s-.3-.42-.54-.63c-.42-.36-1-.51-1.39-.86-.84-.65-1.66-1.37-2.48-2-.42-.34-.89-.65-1.28-1-.23-.19-.37-.49-.62-.68-.08-.06-.23-.12-.32-.19a2.42,2.42,0,0,0-.24-.19,3,3,0,0,0-.77-.54c-.82-.38.34.48,0,.07-.12-.14-.2-.33-.32-.48A16.24,16.24,0,0,0,50,86.35c-.84-.78-2.36.75-1.53,1.52"/>
  <path class="b" d="M69.49,61.44a2.32,2.32,0,0,0-1-1.09,6.33,6.33,0,0,1-.78-.42c.32.29-.12-.41-.26-.53s-.91-.43-.54-.18a5.27,5.27,0,0,1-.55-.51c-.12-.13-.28-.19-.08,0-.12-.13-.14-.35-.25-.48a3.24,3.24,0,0,0-.71-.5c-.47-.3-.06,0-.37-.24s-.41-.37-.64-.55-.4-.34-.61-.48c-.48-.32-.06,0-.38-.24s-.44-.38-.63-.56c0,0,0-.21-.34-.45a3.19,3.19,0,0,0-.71-.31c-.47-.25-.16.08-.36-.48a.72.72,0,0,0-.54-.4L60.25,54c.18.13.2.13,0,0a1.1,1.1,0,0,1-.28-.52.74.74,0,0,0-.55-.4c-.5-.06-.43-.14-.11.18-.19-.19-.17-.47-.41-.65s-.42-.08-.6-.19.29.45.07-.25a.74.74,0,0,0-.55-.39l-.62-.05.61.61-.18-.6c-.1-.3-.26-.58-.62-.61-.94-.09.34.33-.37-.3-.15-.14-1-.54-.71-.33-.26-.17-.41-.45-.65-.64-.54-.45-.31-.06-.56-.6-.51-1.09-2.26.15-1.8,1.14a3.84,3.84,0,0,0,1.19,1.37,3.44,3.44,0,0,0,.7.5c.83.41,0-.42.34.33a.74.74,0,0,0,.55.4l.61.06-.61-.62.18.6c.1.3.26.59.62.61.69.06.05-.42.26.25a.74.74,0,0,0,.55.4c.42.07.48.26.09-.15.15.15.12.45.31.58a5.1,5.1,0,0,0,.57.22c.64.33-.32-.43,0,0s.27.55.65.78a4.53,4.53,0,0,0,.57.23c.88.45-.6-.65,0,.1a2.71,2.71,0,0,0,.79.67c.57.35.1,0,.55.35l.45.38c.39.38-.22-.2.24.2a9.55,9.55,0,0,0,.78.61c.79.58.58.53,1.32,1.11.09.07.92.6.6.29a8.83,8.83,0,0,0,.85.89c.33.25.33.39.73.57.8.37-.21-.36,0,0,.1.14.1.34.24.46a5.15,5.15,0,0,0,.93.49c.56.27.37.14.58.56.56,1.06,2.3-.17,1.79-1.15"/>
  <path class="b" d="M69.39,67.8c-.67-.49-1.22-1.07-1.86-1.58-.19-.15-.44-.26-.62-.43.35.33,0-.13-.08-.21-.32-.28-.68-.46-1-.73-1.26-1-2.53-2.08-3.84-3.11-.58-.45.12.26-.32-.21-.15-.15-.24-.35-.39-.5a5.34,5.34,0,0,0-1-.76l-.88-.6c.21.23-.27-.45-.29-.46-.25-.18-.48-.12-.72-.23s.14.14-.25-.22c-.14-.14-.26-.29-.41-.42a9.82,9.82,0,0,0-1-.78c-.82-.6-1.33-.69-1.56-1.42a.76.76,0,0,0-.55-.4L54,55.67c-1.07-.12-2,1.78-.7,1.93.94.11-.2-.36.21.12l.43.51a6.26,6.26,0,0,0,1.11.73c.49.32-.26-.16.23.22.19.14.44.28.62.43s.49.53.75.77,1.5.72.82.28c.29.19.58.66.89.9.73.57,1.25,1.07,1.92,1.7s1.37.88,2,1.5a14.77,14.77,0,0,0,1.94,1.5A22.88,22.88,0,0,1,66,67.72c.63.55,1.21,1.1,1.89,1.6.91.67,2.42-.86,1.52-1.52"/>
  <path class="b" d="M69.42,80.92a11.66,11.66,0,0,0-1-.91,2.36,2.36,0,0,0-.54-.4c-.93-.4.26.51-.24-.06a3.31,3.31,0,0,0-1-.86c-.35-.19-.5-.08-1.05-.61.27.26-.59-.54-.75-.71.38.39-.19-.32-.24-.37s-.25-.24-.37-.37c-.62-.63-1.45-.91-2.12-1.48S60.8,74,60.09,73.43c-.27-.21-.5-.5-.8-.71a3.19,3.19,0,0,0-.69-.46c-.37-.17-.43-.34-.06.1a11.44,11.44,0,0,0-1.89-1.92,11.63,11.63,0,0,1-2-1.62c-.7-.87-2.23.64-1.52,1.53A11.65,11.65,0,0,0,55.21,72c.62.48,1.06,1.11,1.61,1.61a3.58,3.58,0,0,0,.68.44c.54.36-.2-.14.27.17s.68.62,1.06.91a21.59,21.59,0,0,1,1.8,1.52c.6.6,1.39.85,2,1.39a9.68,9.68,0,0,1,.86,1c.07.08.68.47.3.13.2.17.36.46.55.65a4.25,4.25,0,0,0,1,.72l.43.07c-.19-.12-.21-.12-.07,0s.17.37.3.5a1.89,1.89,0,0,0,.71.41c.89.43-.55-.62.13,0,.33.3.67.65,1,1,.82.79,2.34-.73,1.52-1.52"/>
  <path class="b" d="M69.35,74.42c-.17-.17-.38-.32-.55-.5-.48-.46.07.08-.29-.34s-.78-.45-1.26-.81c.34.25-.38-.65-.54-.81s-1.3-.66-1.09-.51a11.23,11.23,0,0,1-.85-1,7,7,0,0,0-1.32-.75c.29.19-.31-.58-.49-.75a5.07,5.07,0,0,0-.67-.5l-.39-.12c.25.11.26.06,0-.16-.69-.53-1.42-1-2.11-1.5s-.88-1-1.78-1.67a13,13,0,0,0-1.16-.77c-.61-.37.43.58-.1-.24a1.53,1.53,0,0,0-.44-.4c-.26-.2-1.21-.66-1-.49-.52-.48-.49-.72-1.29-.91-1.06-.25-1.95,1.63-.7,1.93.89.21-.22-.35.2.13a3.12,3.12,0,0,0,.5.53c.36.27.84.3,1.17.6-.4-.36.09.44.15.49s.4.12.56.23c.4.28-.19,0,.32.33.16.12.39.18.54.3.66.52,1.12,1.21,1.8,1.73s1.37,1.09,2,1.5c.17.11.42.19.59.3.41.28-.11-.17.33.31a4.87,4.87,0,0,0,.85,1c.63.41.39-.12.93.49a6.89,6.89,0,0,0,.83,1,2.19,2.19,0,0,0,.61.27c.51.21,0-.29.44.18.32.32.43.75.79,1,.18.13.44.14.62.26.54.35-.28-.31.22.22.32.33.67.62,1,1,.81.8,2.34-.72,1.52-1.52"/>
  <path class="b" d="M69.32,87.63a22,22,0,0,0-3-2.66c-.57-.43-1-.82-1.47-1.29-.7-.61-1.11-.49-1.57-.94a28.5,28.5,0,0,0-3-2.59c-.73-.54.45.41-.23-.21-.15-.14-.22-.32-.39-.45s-.64-.21-.88-.4-.39-.58-.68-.77-.42-.1-.59-.21.3.42.07-.26a.74.74,0,0,0-.55-.4c-.81-.11.13.41-.3-.2a4,4,0,0,0-.72-.7,14.57,14.57,0,0,1-1.29-1c-.68-1-2.4.25-1.79,1.15s1.4,1,2,1.75c.13.15.19.48.36.6s.67.11.86.26c-.66-.5-.31.13-.13.31s.4.19.62.33c.44.27-.11-.18.35.29a3.46,3.46,0,0,0,.51.57c.14.1.36.1.51.18.59.33,0-.07.35.28a10,10,0,0,0,1.09.82c.17.12,1,.88.77.59.34.35.45.74.9,1s0-.12.43.18c.16.13.35.36.52.51a4.5,4.5,0,0,0,1.05.68c.61.32-.19-.35.32.17.18.18.27.44.45.62a15.23,15.23,0,0,0,2.14,1.62c.09,0,.57.31.23,0,.17.15.31.54.49.73s.69.54,1,.85c.8.81,2.32-.71,1.52-1.52"/>
  <path class="b" d="M69.28,93.89a5.43,5.43,0,0,1-.59-.3c-.52-.32.23.23-.27-.26a5,5,0,0,0-.94-.84c-.77-.45-1.24-1.08-2-1.58s-1.15-1-1.78-1.5a10.82,10.82,0,0,0-1-.85,5.27,5.27,0,0,0-1-.43c-.31-.24-.46-.6-.82-.84,0,0-.73-.43-.5-.21s-.24-.46-.27-.49c-.28-.26-.71-.36-1-.61s-.57-.65-.9-.93c-.6-.51-1.24-1.14-1.84-1.59-.34-.25-.75-.29-1.08-.57a7.27,7.27,0,0,0-1-1c-.94-.56-2.18,1.17-1.15,1.8.4.23.21.27.74.78a6.2,6.2,0,0,0,1.11.65A18.59,18.59,0,0,1,57,86.73c.29.26.5.62.8.87a4.52,4.52,0,0,0,.51.34c.09.07.71.45.34.11a20.52,20.52,0,0,0,1.85,1.75,4.8,4.8,0,0,0,.6.3c.65.33-.12-.19.36.16a10.69,10.69,0,0,1,.89.75,23.18,23.18,0,0,0,1.84,1.62c1.34,1,2.44,2.33,4,3.05,1,.47,2.23-1.28,1.14-1.79"/>
  <path class="b" d="M46.41,44a7.3,7.3,0,0,1-1.26-1c-.44-.32-1-.42-1.4-.75-.86-.67-2,.41-1.66,1.34.06.16.11.33.17.5,0-.32.07-.63.11-1a2.07,2.07,0,0,0-.32,1.73c.07.5.07-.7,0-.2a4.16,4.16,0,0,0-.16.5,2.31,2.31,0,0,0,.08.87c0,.16.22.35.23.5,0-.12,0-.48,0,.05,0,.19-.19.44-.21.65a11.27,11.27,0,0,0-.06,1.54c0,.3.23.58.24.85,0-.48-.16.31-.18.44a11.44,11.44,0,0,0,0,1.55c0,1-.11,2,0,3.07,0,.42,0,.92,0,1.31a4.36,4.36,0,0,1,.17,1.41c0,.1,0,.91,0,.65s-.15.54-.15.64a6.83,6.83,0,0,0,.12.77c0,.12,0,.5.06,0,0,.21-.19.41-.21.63a3.84,3.84,0,0,0,0,.76c.07.65.11-.07.09.41A12.84,12.84,0,0,0,42,63,13.48,13.48,0,0,1,42,64.38a2.53,2.53,0,0,1,0,.38c-.07.43,0-.42,0,0a2.46,2.46,0,0,0-.1,1,2.86,2.86,0,0,0,.23.76c0-.14-.13.47-.08.66.14.5.13,0,.18-.22,0,.21-.29.41-.32.63-.09.51.15.64.22,1.09-.08-.47-.08.41-.08.56a7.2,7.2,0,0,1,.07.8c-.08.8-.38,1,.08,1.87,0-.31.07-.63.11-1a2.19,2.19,0,0,0-.44,1.38c0,.24.22,1.22.21.79,0,.76-.11,1.54-.08,2.31,0,.35,0,.69,0,1a3,3,0,0,0,.09.66c.18.79.28-.52-.06.12s.24,1.44-.13,2.2a.88.88,0,0,0,0,.71c.52.77.23-.37.18.19,0,.16-.1.34-.12.51,0,.47.09.9.08,1.35a6.18,6.18,0,0,0,.2,2.6c0-.32.07-.63.11-1A4.78,4.78,0,0,0,42,86.6c0,.38-.18.93.06,1.28s.3-.51,0,0a1.78,1.78,0,0,0-.24.87c0,.09.31,1,.25.38s-.14.28-.17.41a5.79,5.79,0,0,0-.07,1.17c0,.3,0,.57,0,.85s.09.59.08.19c0,.48-.09,1-.1,1.5a.76.76,0,0,0,.62.85c.8.1.79.53,1.44.88.4.21.7.08,1.1.2-.88-.27.15.31.4.49,1,.71,2.21,1,3.23,1.68.24.17.44.39.7.55.42.27,0,.06.52.26a8.59,8.59,0,0,1,1.65,1c.5.35,1.1.45,1.63.75a7.71,7.71,0,0,0,.71.53c.15.07,1.07.37.73.17l3.27,2c-.36-.22.36.36.51.43s.63.1.91.22a11.26,11.26,0,0,1,1.55,1c.38.25.19.09.06,0,.17.09.27.33.46.44s.23,0,.36.08c.85.4-.63-.6.11,0a2.41,2.41,0,0,0,.78.58c.11,0,.23.07.35.12.6.24,0,0,.39.21s.65.23.91.38c-.42-.23.36.31.44.37a6.17,6.17,0,0,0,.74.52c.07,0,.29,0,.37.09.38.22-.18,0,.34.32a2.46,2.46,0,0,0,1,.39c.34,0,.52.25,0-.18.16.13.2.43.37.56a4.51,4.51,0,0,0,.92.49l.55.22.29.14c1.22.61,2.35,1.71,3.74,2a1.21,1.21,0,0,0,1.31-1.32c-.16-.61-.07,0-.06-.55,0-.32.08-.62.06-1a5.76,5.76,0,0,1,0-1.55c.27-1.32-1.72-.86-1.93.21a6.38,6.38,0,0,0,0,1.9c.06.61,0,0-.05.54a2.37,2.37,0,0,0,.07,1.12c.43-.44.87-.87,1.31-1.31a4.66,4.66,0,0,1-1.54-.85,5.74,5.74,0,0,0-.7-.59c-.16-.09-1.09-.37-.68-.18-.28-.13-.54-.38-.84-.51-.75-.35.42.22-.31-.09a2.82,2.82,0,0,1-.36-.24c-.11-.07-.53-.21-.2,0-.14-.11-.15-.36-.29-.47-.32-.25-.62-.19-.93-.37s-.42-.45-.71-.6-.45,0-.63-.12c.39.2.06-.11-.05-.17-.57-.3-1.22-.55-1.76-.86a12.31,12.31,0,0,0-1.15-.57,6.11,6.11,0,0,0-.78-.65c-.1-.06-.59-.15-.17,0-.15-.07-.3-.35-.46-.45-.49-.32-2.48-1.23-2.93-1.47a10.9,10.9,0,0,1-1.43-.82c-.48-.32-1-.58-1.48-.88-1.3-.81-1.81-.83-3.23-1.64-.52-.31-.85-.83-1.42-1.12-.16-.08-.36,0-.52-.09.4.18,0-.07-.08-.12s-.35-.18-.47-.24l-.38-.1c.2.11.23.09.09,0a17.62,17.62,0,0,0-1.74-1.08A9.75,9.75,0,0,1,46.72,94a5.5,5.5,0,0,0-.83-.65,1.51,1.51,0,0,0-.46-.07c-.9-.19.22.42-.26,0a3,3,0,0,0-2-1c.21.29.42.57.62.86,0-.49.11-1,.1-1.49,0-.21,0-.4,0-.6,0-.63,0,0-.06-.44,0-1,.34-1.72-.09-2.67,0,.32-.08.64-.11,1a3.93,3.93,0,0,0,.31-2.43c0-.36,0-.75,0-1.11a5.25,5.25,0,0,0,0-.56c0-.2-.2.7.05,0a11.57,11.57,0,0,0,0-2.43,11,11,0,0,0,0-1.15c0-.33.17-.72.16-1a1.23,1.23,0,0,0-.25-.72c-.13-.24-.19.65.06,0A2.6,2.6,0,0,0,44,78.12a4.27,4.27,0,0,1-.14-.64c0-.19.06.3.12-.21a5,5,0,0,0,0-.67c0-.13-.15-.75-.12-.3a23.62,23.62,0,0,1,0-2.38c0-.33.11-.7.11-1a3.09,3.09,0,0,0-.08-.6c0-.12-.2-.94-.21-.37s.23-.2.27-.4a1.3,1.3,0,0,0-.06-.78c-.23-.65-.35.38-.06-.11a1.84,1.84,0,0,0,.17-.77,4.77,4.77,0,0,0-.35-2.66c0,.31-.07.63-.1,1a3.78,3.78,0,0,0,.3-2.76c0-.18-.13-.63-.15-.19,0-.22.19-.52.23-.76a7.89,7.89,0,0,0,0-1.29c0-.84.07-1.69,0-2.51,0-.19-.13-.38-.14-.58,0-.51,0,.25.1-.34A8.94,8.94,0,0,0,44,58.26c0,.48.08-.1.1-.28s0-.5,0-.75A6.1,6.1,0,0,0,44.09,56c0-.14-.26-.73-.2-.29A5.51,5.51,0,0,1,44,55c0-.45-.13-.89-.13-1.35,0-.79.09-1.6.1-2.4a18.73,18.73,0,0,0,0-2.59,10.37,10.37,0,0,1,.12-2.25,2.32,2.32,0,0,0-.09-.91c0-.16-.2-.65-.2-.5a3.83,3.83,0,0,0,0-1.5c0,.32-.07.64-.1,1a2,2,0,0,0,.23-2l-1.65,1.33c.5.39,1.08.55,1.58.9a9.09,9.09,0,0,0,1.46,1.09c1,.46,2.24-1.29,1.14-1.79"/>
  <path class="b" d="M40.61,49.71A2.69,2.69,0,0,0,39.7,49c-.29-.16-.6-.44-.87-.58s-.41-.09-.6-.16.31.17-.22-.09A8.24,8.24,0,0,0,37,47.65a1.2,1.2,0,0,0-1.54,1.24s-.09.69-.09,1.17,0,.86-.07,1.3-.09.86-.08,1.24.29.8.32,1.24a9.62,9.62,0,0,1-.14,1.41c0,.31.06,0,.07-.1,0,.14-.15.25-.16.38a2.41,2.41,0,0,0,.08.85c.1.49.09-.2.11.44,0,.21-.07.42-.06.64s.06.74.11.28c0,.26-.19.61-.23.89a3.6,3.6,0,0,0,0,1.31c0,.19.15.4.18.61.1.52.11-.24-.12.37-.34.93,0,1.74,0,2.7a15.13,15.13,0,0,0-.14,2.7,10.78,10.78,0,0,1,.12,2.54,7.79,7.79,0,0,0,.06,2.68c0,.14.08-.14.06.32a6.29,6.29,0,0,1-.11.65,6.56,6.56,0,0,0,0,1.4c0,.45.05-.41.05,0,0,.13-.1.26-.1.39s0,.48.07.75c0,.44,0,.87,0,1.31a7.57,7.57,0,0,1,0,1.06c0,.27-.22.47-.21.76,0,.13.2,1,.21.53,0,.51-.32.84-.16,1.37.22.73.24-.09.24.06s-.08.62-.11.89a6.56,6.56,0,0,0-.14,1.18,3.4,3.4,0,0,0,.25.84c-.15-.53,0-.35-.13.19a15.36,15.36,0,0,0,.1,2.71c0,.19,0,1.33,0,.81a6.24,6.24,0,0,0-.19.88c0,.41.07.77.19.16a12.37,12.37,0,0,0-.23,3.1,21.43,21.43,0,0,1,.16,2.87c0,.56-.4,1-.09,1.51s.1-.63,0,.32a4.51,4.51,0,0,0,0,.82,9.31,9.31,0,0,1,0,1.49c.07-.53-.16.28-.17.42a2.85,2.85,0,0,0,.25.94.75.75,0,0,0,.55.39,13.44,13.44,0,0,1,3.65,1.6,4.34,4.34,0,0,0,1,.44c.21,0,.48-.09.67,0-.47-.12,0,.16.13.19.57.2.86.36,1.79.68s-.55-.19.27.17c.17.07.33.22.51.3s.47,0,.66,0c-.47-.15,0,.17.12.22a19.81,19.81,0,0,1,1.88.86,3,3,0,0,0,1.09.32c.59,0,.3,0,.58.08a13.38,13.38,0,0,0,2.06,1,9.2,9.2,0,0,1,1,.19c.14.06.5.21.13,0,.16.09.3.35.47.46a4.68,4.68,0,0,0,1,.35,4.58,4.58,0,0,0,.63.1c.12,0,.8.2.35,0,.6.27,1.15.72,1.78,1a16.25,16.25,0,0,0,1.75.5c.32.13.66.3.95.42s.78.16,1.2.29c-.93-.28.2.34.45.43l.34.12c.67.26-.09-.15.42.16a6.82,6.82,0,0,0,2.13.69c-.39-.12.24.26.38.34a4.48,4.48,0,0,0,1.18.47c.2,0,.41,0,.61.07.7.14-.61-.38.16.18a3.51,3.51,0,0,0,1,.35c.84.3-.54-.28.28.15.21.12.42.23.65.34a7,7,0,0,0,1.22.4,10.68,10.68,0,0,1,2.07.76c.34.16.64.36,1,.53a6.16,6.16,0,0,0,1.16.29,1.12,1.12,0,0,0,1.36-.51c.71-1.43.08-2,.21-3.6.11-1.35-1.84-.9-1.94.21a6.54,6.54,0,0,0,.27,3.12c0-.32.07-.64.11-1l-.23.45,1.36-.51a2.85,2.85,0,0,0-.75-.24c-.14,0-.8-.07-.34.07s-.18-.21-.32-.3a3.81,3.81,0,0,0-.55-.33,8.43,8.43,0,0,0-2.19-.79c-.41-.09-.74-.26-1.12-.38a4.18,4.18,0,0,1-.61-.15c.41.22-.2-.32-.3-.37a5.24,5.24,0,0,0-1-.2,3.39,3.39,0,0,0-1.14-.46c-.21,0,.23,0-.24-.08a4.15,4.15,0,0,1-.66-.2c.34.18,0-.14-.12-.21a2.57,2.57,0,0,0-.67-.32c-.4-.11-.8,0-1.17-.19s-.62-.51-1-.7-.66-.25-1-.38a6.61,6.61,0,0,0-.73-.2c-.55-.18.1,0-.35-.14a9.13,9.13,0,0,0-2.28-.76c-.16,0,.14.06-.29-.11-.16-.07-.33-.11-.48-.18-.4-.18-.73-.44-1.1-.64-.73-.39-1.66-.26-2.37-.7.33.2,0-.2-.1-.27a2.59,2.59,0,0,0-.67-.26c-.37-.13-.81-.12-1.17-.23-.75-.23-1.34-.85-2.08-1a7.41,7.41,0,0,1-1.13-.19c-.38-.16-.67-.49-1-.65s-.71-.2-1-.31a6.58,6.58,0,0,0-.66-.29c-.48-.11-.5-.15-.13.1a2.73,2.73,0,0,0-1.22-.59c-.16,0-.57-.1-.23,0a8.17,8.17,0,0,1-.71-.49c-.91-.51-1.41-.31-2-.61s-1.36-.77-2.08-1.06c-.34-.14-.69-.24-1-.38a2.91,2.91,0,0,0-.62-.29c-.66-.14.09.22,0,.09s-.06.65.09,0a3.35,3.35,0,0,0,0-.63,8,8,0,0,0,0-1.29c-.08-.74.07-.1.1-.81a1.18,1.18,0,0,0-.12-.72c-.28-.49-.26.53,0-.2a6.73,6.73,0,0,0,0-2.45c0-.76,0-1.58,0-2.34,0-.37,0-.81,0-1.16,0-.16.05.26.08-.22a2.21,2.21,0,0,0,0-.85c-.18-.8-.14.57,0-.12,0-.22.08-.41.1-.63,0-.37,0-.79,0-1.17a18.73,18.73,0,0,1-.09-2.23,4.34,4.34,0,0,0-.14-1.36c.06.45.08-.12.09-.25s.07-.46.08-.7c0-.5,0-.14,0-.28a3.78,3.78,0,0,0,.12-.75c0-.25-.25-.39-.31-.61.14.56.07.33.17-.19a2.6,2.6,0,0,0-.11-1.24c-.06-.24-.18.65.07,0a2.25,2.25,0,0,0,.12-.77,15.91,15.91,0,0,0-.07-2.39c-.07-.46-.12-.18-.12-.28s.12-.42.12-.63c0-.42,0-.71,0-1.12a7.17,7.17,0,0,0,.1-1.22,4.75,4.75,0,0,0-.27-1,5.2,5.2,0,0,1,.13-1c0-.21,0-.42,0-.64s0-.94-.05-.41c.18-1.59,0-3.16.07-4.78a7,7,0,0,0,0-1.21,3,3,0,0,0-.09-.52c0-.11,0-.22,0-.33-.1-.32-.25.56,0,.22.6-1,.25-1.67.05-2.64.08.36.09-.49.13-.71a6.18,6.18,0,0,0,.1-1.29,5.16,5.16,0,0,0,0-1.24c-.22-.74-.19.15-.13-.06a3.29,3.29,0,0,0,.15-.82c.05-.48-.08,0-.06-.22s.13-.43.16-.64a3.73,3.73,0,0,0-.15-1.37c-.05-.17-.19-.57-.16-.19a4.72,4.72,0,0,1,.1-.64c0-.42,0-.82,0-1.23s-.06-.83,0-1.21c0,.4.08,0,.09-.16a6.55,6.55,0,0,0,0-.89L35.8,49.44c.52.19,1.6.67,1.78.76a5.2,5.2,0,0,0,.72.55c.36.2.5.14.79.48.74.85,2.27-.66,1.52-1.52"/>
</svg>
