<svg xmlns="http://www.w3.org/2000/svg" viewBox="0 0 145 145">
  <defs>
    <style>
      .a {
        fill: #39bdac;
      }

      .b {
        fill: #fff;
      }
    </style>
  </defs>
  <path class="a" d="M17.12,118.82a.26.26,0,0,0-.27-.06,47.19,47.19,0,0,1-3.25-5.13c1.59,2,3.24,4.05,4.66,6.21q-.56-.53-1.14-1M6.75,102.89C7,104,7.33,105,7.67,106a.34.34,0,0,0-.45.31c-.16-1.15-.32-2.3-.47-3.46m.42-18.7c0,.58.11,1.15.15,1.71a9,9,0,0,0,0,2.26c0,.54.1,1.07.16,1.61A32.29,32.29,0,0,0,8.08,96l.06,1.84a69.61,69.61,0,0,1-1-13.69m7.06-33.91a49.28,49.28,0,0,0,3.42-6.86q-1,2.4-2,4.81c-.89,2.18-1.79,4.37-2.76,6.52-.34.73-.68,1.45-1.07,2.16,0,0,0,0,0,0,.72-2.24,1.51-4.46,2.39-6.65M37.34,14.8c-.57.42-1.12.85-1.67,1.29-.76.62-1.51,1.25-2.24,1.89a8.05,8.05,0,0,1,3.91-3.18m19.2-7.09h0l.93.15L57,8H55.74l.8-.25m15.1-1.35A35.2,35.2,0,0,1,68,7c-1.43.13-2.87.28-4.31.38,1.61-.31,3.2-.65,4.83-.86a12.85,12.85,0,0,1,3.11-.12m-12,.54A55.09,55.09,0,0,1,73.54,5.52a.34.34,0,0,0,.16.08c.49.09,1,.19,1.46.3a17.27,17.27,0,0,0-2,.2,8.56,8.56,0,0,0-3.63-.33,39.49,39.49,0,0,0-5.28.85c-1.5.3-3,.54-4.52.82-.58,0-1.16-.07-1.73-.13.55-.15,1.1-.29,1.65-.41m26.58.43c.32.08.64.18,1,.27a.24.24,0,0,0,.25.23c.22,0,.43,0,.64,0,.87.26,1.73.54,2.59.85a.29.29,0,0,0-.05.37L90,8.77a.26.26,0,0,0-.33.05c-2.1-.63-4.3-1-6.44-1.47S79,6.26,76.94,5.72a54.82,54.82,0,0,1,9.27,1.61m12.06,4.74,2.44,1.43a.33.33,0,0,0,.25,0c1,.57,1.93,1.18,2.87,1.81-.71-.27-1.45-.49-2.17-.72-1.54-.87-3.08-1.72-4.57-2.65-.33-.2-.71.28-.37.49l.11.07c-1.54-.82-3-1.71-4.57-2.56a.3.3,0,0,0-.18-.28c-.4-.18-.81-.34-1.22-.49h0a48.48,48.48,0,0,1,7.43,2.86M106,17.19c-.56-.37-1.13-.72-1.72-1.07A6.83,6.83,0,0,1,106,17.19m6.92,1.53c.41.53.81,1.07,1.21,1.61l-.1,0q-1.62-1.5-3.35-2.91a.33.33,0,0,0,.13-.25c.69.54,1.4,1.07,2.11,1.6m24.77,43.21a.33.33,0,0,0-.2.4,40.16,40.16,0,0,1,1.5,8.76c-.25-1.24-.55-2.47-.91-3.68,0,0,0,0,0,0a75.47,75.47,0,0,0-3.3-14.51,66.87,66.87,0,0,1,2.92,9.06m-1.75,18.76c.08-2.31.12-4.62.16-6.92a64,64,0,0,1-.16,6.92m3.44.68a1.52,1.52,0,0,0-.69.19c0-1-.08-1.93-.16-2.88a66.13,66.13,0,0,0-.08-7.18,54.61,54.61,0,0,1,.93,9.87M135,92a.27.27,0,0,0,.4.15c-.11.34-.23.68-.34,1-.07-.27-.14-.53-.22-.8s.11-.24.16-.37h0m-.31,2.28-.3.86-.27-.94.34-.9c.08.33.16.65.23,1M134,96.16c-.09.26-.19.51-.29.76-.08-.29-.18-.57-.27-.85l.3-.86c.09.32.18.63.26,1m-.65,1.7v0c-.19.49-.38,1-.59,1.48a39.09,39.09,0,0,1-2.09,4.32c.95-2.16,1.68-4.41,2.44-6.65.09.27.17.55.24.83M124.6,116c-.39.41-.78.83-1.19,1.23l-.35.29c-1,.81-2,1.55-3,2.28l-1,.69c1.54-1.21,3-2.48,4.47-3.82.79-.75,1.57-1.52,2.32-2.31A13.4,13.4,0,0,1,124.6,116m-16,8.53-.69.4a11,11,0,0,1,1.22-.84l-.53.44M57.54,141.19l-.56-.28h.1c1.41.17,2.82.31,4.24.43l-.58,0c-.39,0-.47.58-.07.61a84.52,84.52,0,0,0,16.45-.31A.3.3,0,0,0,77,141a79.45,79.45,0,0,1-12.43.5.32.32,0,0,0,.15-.3l1.88.21a.3.3,0,0,0,.07-.6l-1.56-.18c1.73-.15,3.46-.35,5.18-.6a30.9,30.9,0,0,1,5.52.2.31.31,0,0,0,.07-.61c-.66-.09-1.32-.15-2-.19q1.62-.28,3.24-.63l-.73.22c-.37.1-.29.7.09.6A25.84,25.84,0,0,0,80.77,138q5-1.22,9.81-2.83a.33.33,0,0,0,.13.07c-.9.57-1.82,1.11-2.77,1.59a.35.35,0,0,0-.42-.23c-3.3,1.06-6.43,2.77-9.92,3.12-.39,0-.3.64.09.6a24.33,24.33,0,0,0,6.45-1.82c0,.19.09.4.32.33a26.82,26.82,0,0,0,7.51-3.7,14.12,14.12,0,0,0,3.76-1.31,17.1,17.1,0,0,0,5.76-2.47,7,7,0,0,1,.8-.14.3.3,0,0,0,.18-.49l.27-.18c3-1.05,5.86-2.24,8.86-3.11-.53.31-1.07.61-1.62.91a31.8,31.8,0,0,1-8,3.32c-.38.09-.3.69.09.61a33.19,33.19,0,0,0,8.21-3.37c1.18-.63,2.33-1.31,3.47-2l.38-.09a.31.31,0,0,0,.25-.31c1.1-.7,2.17-1.44,3.22-2.21.32-.23-.06-.71-.38-.48-1.2.89-2.45,1.73-3.72,2.52a58.78,58.78,0,0,0-7.32,2.34c1.67-.86,3.32-1.77,4.93-2.73a1.15,1.15,0,0,1,.39.24c.3.26.67-.22.37-.48l-.16-.13c1.09-.67,2.17-1.35,3.22-2.07,1-.46,2-1,2.91-1.54a19.92,19.92,0,0,0,6.16-4.42l0,0a4.56,4.56,0,0,1,1.63-.85c.38-.09.29-.69-.09-.6l-.22.06a14.83,14.83,0,0,0,1-1.23c.66-1,1.5-2.55,2.79-2.71a.31.31,0,0,0-.09-.61,2.62,2.62,0,0,0-1,.35,47,47,0,0,0,4.11-5.72,64.85,64.85,0,0,0,6.17-15.06c.84-2.78,1.57-5.6,2.22-8.43a1,1,0,0,0-.55-1.17c0-.42,0-.84,0-1.27a.36.36,0,0,0,0-.11c-.25-5.8-.17-11.69-1.74-17.32a.25.25,0,0,0,.19-.32,76.6,76.6,0,0,0-4-12.21A21.16,21.16,0,0,1,137.09,57a.31.31,0,0,0,.61-.09c-.44-3-2.24-5.72-3.58-8.41-1.47-3-2.76-6-4-9.14a31.75,31.75,0,0,1,4.4,8.54c.11.37.67.13.56-.24-1.51-5-5-9.26-7.86-13.57-.22-.32-.7,0-.48.38.91,1.35,1.88,2.69,2.81,4.06a.31.31,0,0,0-.25.41c1,2.62,2.1,5.22,3.28,7.77a.33.33,0,0,0-.14.12,82.91,82.91,0,0,0-5.69-11c-.29-.47-.58-.93-.88-1.39.24,0,.47-.26.27-.48-.69-.78-1.41-1.54-2.14-2.28l-.33-.45a.26.26,0,0,0-.11-.22l-.15-.14c-.41-.56-.83-1.12-1.25-1.67.26.12.59-.2.37-.45a43.28,43.28,0,0,0-5.42-5.41l-.45-.46-.89-1.26c.32,0,.5-.46.15-.58l-.77-.28c-.21-.29-.41-.58-.62-.86l0,0c.33.23.7-.26.38-.48-.57-.4-1.13-.81-1.68-1.22l0,0a.36.36,0,0,0-.17-.11c-1-.72-1.94-1.46-2.9-2.22a.3.3,0,0,0-.37.48l.23.18c-.5-.29-1-.56-1.5-.83A64.68,64.68,0,0,0,103,12a38.91,38.91,0,0,1,11.37,6.33c.3.25.67-.23.37-.48-4.11-3.47-9.36-5.82-14.53-7.46A60.34,60.34,0,0,0,83.59,4.24a55.72,55.72,0,0,0-9-1.12.27.27,0,0,0-.26-.24c-6.4-.75-13,.55-19.15,2.15a.33.33,0,0,0-.09.6A56.47,56.47,0,0,0,48.5,8.14.3.3,0,0,0,48.2,8C40.66,9.21,35,14.7,28.14,17.56a.3.3,0,0,0,.24.56C34.79,15.44,40.16,10.43,47,8.85a60.24,60.24,0,0,0-9,5.43.25.25,0,0,0-.33-.21c-2.86.69-4.56,3.11-6,5.49-1.18,1.11-2.31,2.26-3.41,3.44h0a.31.31,0,0,0-.37.45C19.14,33.05,13,45,9.16,57.29A99.09,99.09,0,0,0,4.81,81.72c-.08,1.68-.12,3.36-.1,5a.31.31,0,0,0-.06.13,11.27,11.27,0,0,0,0,4c.19,1.56.39,3.13.55,4.69s.35,3,.54,4.54a.31.31,0,0,0-.3.34,55.7,55.7,0,0,0,2,9.64c.11.38.71.29.61-.09-.26-.94-.51-1.88-.74-2.82a.28.28,0,0,0,0-.13c0-.2,0-.4-.08-.6h0c1.21,4,3.41,7.61,4.62,11.61.11.37.67.13.56-.25a39.57,39.57,0,0,0-1.53-4c.36.69.73,1.38,1.13,2.06a45,45,0,0,1,1.89,5.41c.1.38.71.29.6-.09-.23-.89-.51-1.78-.82-2.65a48.94,48.94,0,0,0,8.52,9.72,52.09,52.09,0,0,0,22.21,11.13,59.22,59.22,0,0,0,11,1.52,21,21,0,0,1,1.92.91c.35.18.57-.38.23-.57"/>
  <path class="b" d="M49.85,42.39a2.63,2.63,0,0,0-.05.79c.08.43.27.56.27.55,0,.68-.16.91.09,1.57s.08-.17.16.43a3.92,3.92,0,0,0,.08.9c.15.42.47.9.66,1.35a8,8,0,0,0,1.5,2.67c.11.1.77.51.46.19.16.17.24.5.4.69a1.82,1.82,0,0,0,.74.56c.52.28,0-.18.53.23.9.75,2.46-.83,1.57-1.58-.27-.23-1.34-.81-1.11-.56-.18-.19-.18-.46-.34-.66s-.5-.29-.73-.52c.36.35-.13-.18-.2-.29A6.94,6.94,0,0,1,53.5,48c-.2-.41-.42-.83-.59-1.24a10.76,10.76,0,0,0-.7-1.4c.37.66.13.16.11-.25a2.87,2.87,0,0,0-.11-.77A2.43,2.43,0,0,0,52,44c-.25-.36-.27-.3,0,.18,0-.28.16-.55.16-.83a2.68,2.68,0,0,0-.13-.75c-.14-.56-.18.27-.11-.46.14-1.39-1.89-.92-2,.23"/>
  <path class="b" d="M61,48.77a5.88,5.88,0,0,0-2.18.31c-.62.28,0,0,.19,0a3.78,3.78,0,0,0-.67,0,2.11,2.11,0,0,0-1.15.84l1-.37c-2-.26-4.58,1.93-5.46,3.53-.11.19-.39,1-.06.41-.15.26-.45.45-.62.73a6,6,0,0,0-.52,1.65c.07-.26.43-.78,0-.23a1.73,1.73,0,0,0-.3.41,2.5,2.5,0,0,0-.1,1.05c0,.5,0,1-.08,1.48-.11,1.39,1.91.92,2-.23A17.27,17.27,0,0,0,53.06,56c-.13.33-.25.66-.37,1a10.66,10.66,0,0,0,1.22-2.21,4.09,4.09,0,0,0,.42-.58c.33-.76-.22.15.08-.37a5,5,0,0,1,.34-.46c.45-.61-.49.37.16-.21a10.64,10.64,0,0,1,1.87-1.35,2.38,2.38,0,0,0,.5-.26c.51-.47-.8.1.16,0a1.89,1.89,0,0,0,1.4-.84l-1,.37a3,3,0,0,0,.94,0,2.14,2.14,0,0,0,.44-.18c.44-.21.35,0-.19-.05.59,0,1.13-.08,1.71-.09,1.16,0,1.63-2,.23-2"/>
  <path class="b" d="M41.36,53.69a3,3,0,0,0,.51.5,3.55,3.55,0,0,0,.78.25c.11,0,.07,0-.1,0l.21.13.24.15a3.08,3.08,0,0,0,.52.24,7.19,7.19,0,0,0,1.3.29,1.55,1.55,0,0,0,.71,0c.25-.13-.51-.24-.12,0a2.44,2.44,0,0,0,.34.14c1,.45,2.32-1.36,1.19-1.85a2.57,2.57,0,0,0-1.46-.25c-.32,0,.26.08,0,0l-.37-.1c-.18,0-.37,0-.56-.09.35.09-.21-.11-.33-.17a4.8,4.8,0,0,0-.48-.3,1.77,1.77,0,0,0-.69-.18s.4.36.18,0a3.07,3.07,0,0,0-.25-.26c-.82-.85-2.4.72-1.58,1.57"/>
  <path class="b" d="M66.62,73a5.78,5.78,0,0,0,1.61-1.81c.09-.21.2-.62,0-.2a3.1,3.1,0,0,1,.26-.47c.21-.31.44-.57.63-.84a5.25,5.25,0,0,0,.94-2.13,6.23,6.23,0,0,0,0-1.22,2.77,2.77,0,0,1,.1-.53c-.18.59.08,0,.11-.14a4.69,4.69,0,0,0,.21-2.41c-.06-.22-.25-.41-.3-.61.09.41.1-.08.06-.22s-.53-1.12-.42-.85c-.61-1.42-.29-2.81-2-3.78-1-.55-2.28,1.24-1.19,1.85.59.33,0,0,.45.45a2,2,0,0,1,.31.41c.24.41-.16-.89,0,0a8.08,8.08,0,0,0,.5,1.79,6.16,6.16,0,0,0,.43.8c.25.44-.14-.73-.06,0,0,.17,0,.34,0,.52a8.59,8.59,0,0,1,.3,1.54c-.23.9-.46,2.36-.74,3.16s.17-.2-.28.43c-.19.26-.37.53-.54.8a6,6,0,0,0-.78,1.9l.6-.93a13.57,13.57,0,0,0-1.47,1.26c-1,1,.27,2.25,1.26,1.26"/>
  <path class="b" d="M52.41,74.78a5.92,5.92,0,0,0-1.44.6c-.25.15-.46.29-.69.45A1.92,1.92,0,0,1,50,76c-.31.16.54,0-.14,0-1.11,0-2-.32-3.13,0l.93.16a2.83,2.83,0,0,0-.88-.57c-.57-.21-.12.25-.54-.1a7.32,7.32,0,0,0-.88-.78c-.46-.28-.08.16-.47-.34a8.16,8.16,0,0,1-1-1.46c-.13-.29-.24-.69-.35-1-.2-.51,0,0,0,.17,0-.21.08-.46.09-.68s-.1-.62-.11-.28.1-.23.1-.28a6.36,6.36,0,0,0-.15-1.14c.1.68.16.15.26-.3a2.57,2.57,0,0,0,.09-1.07s-.08.4.24-.07a6.23,6.23,0,0,0,.52-1c.1-.25-.78.39-.09.17a1.44,1.44,0,0,0,.52-.27,2.54,2.54,0,0,0,.65-1.14c.54-1.34-1.43-1.41-1.88-.29-.07.19-.15.37-.23.56l.8-.79a2.34,2.34,0,0,0-1.48,1.07c-.15.24-.2.54-.34.77.42-.67-.3.19-.35.27-.35.6-.21,1.1-.34,1.71.12-.58-.15.17-.18.28a3.1,3.1,0,0,0-.16.9c0,.23.13,1.19.19.18,0,.29-.15.61-.18.91a4.14,4.14,0,0,0,.21,1.53,7.8,7.8,0,0,0,1.28,2.28,4.77,4.77,0,0,0,.94,1.11c.19.13,1.06.48.35-.1.2.16.3.47.49.65a2.59,2.59,0,0,0,1.25.55,4.44,4.44,0,0,0,.8.31c.17,0,1.29,0,.25-.22A7.73,7.73,0,0,0,50,78c1-.24,1.69-1,2.68-1.3,1.18-.32,1.1-2.27-.29-1.88"/>
  <path class="b" d="M35.78,75.87c.35.2.48.55.81.73a4.46,4.46,0,0,0,1.16.27,6.18,6.18,0,0,0,2.29.3,8.43,8.43,0,0,0,2.18-.43c.07,0,.71-.4.34-.25s.35,0,.42-.06a2.28,2.28,0,0,0,1.13-1.06l-.93.6.58-.12c1.11-.23,1.58-2.29.23-2a2.44,2.44,0,0,0-1.84,1.21l.93-.6a4.33,4.33,0,0,0-1.07.28c-.18.07-.81.35-.36.28-.34,0-.7,0-1,0s-1,.12-.56.17c-.56-.06-1.13-.28-1.69-.39a2.6,2.6,0,0,1-.4-.1c-.76-.24.21.22-.16-.09A4.42,4.42,0,0,0,37,74c-1-.56-2.27,1.24-1.18,1.85"/>
  <path class="b" d="M52.8,89.26a6.47,6.47,0,0,0-3-2.18c-.39-.08-.66,0-.6,0-.3-.06-.62-.18-.94-.24a5.53,5.53,0,0,0-1.9-.13c-.38,0-.72-.26-1.52-.1a8.39,8.39,0,0,0-1,.46c.56-.19-.53,0-.7.12a2.22,2.22,0,0,0-.8.59c-.3.41,0,.06.3,0a3.35,3.35,0,0,0-.69.13,2.38,2.38,0,0,0-.79.69c-.1.12-.21.24-.32.35.32-.29.16-.11-.14,0-1.08.5-1,2.48.29,1.88.49-.22,1.24-.51,1.47-1.06s-.46.07-.18,0a1.94,1.94,0,0,0,.42-.07c.41-.18.56-.45.9-.66s-.3.11.33-.06a5.23,5.23,0,0,0,.93-.43c-.53.26.1,0-.08,0s.3.14.34.15a3.67,3.67,0,0,0,.94,0c.47-.06,1,0,.26-.17.31.08.57.19.88.26l1.61.3c.52.12,0-.22.53.13.24.16.39.32.61.49a10.21,10.21,0,0,1,1.26,1.11c.76.88,2.35-.68,1.57-1.57"/>
  <path class="b" d="M54.53,98.61c-.49.36-1.11.65-1.55,1-.11.11-.19.26-.3.37.31-.32-.11,0-.21.1s-1,1-.76,1.16c-.05,0,.48-.65,0-.1l-.26.3a3.21,3.21,0,0,0-.59,1.07c.15-.4-.07.13-.11.22a1.69,1.69,0,0,0-.2.8,7.54,7.54,0,0,1,0,.81c-.1,1.4,1.93.93,2-.22a7.17,7.17,0,0,0,0-1.31l-.18.76a7.85,7.85,0,0,0,.38-.77,3.71,3.71,0,0,0,.14-.39c.12.12-.53.61,0,.12a3.6,3.6,0,0,0,.94-1.46l-.54.67a3.61,3.61,0,0,0,.69-.46c.08-.08.14-.18.21-.26.22-.23-.27.11.12-.09a8,8,0,0,0,1.09-.73,1.19,1.19,0,0,0,.52-1.41.9.9,0,0,0-1.32-.23"/>
  <path class="b" d="M59.16,93.57c-.1-.67-.15,0,0-.44a3.68,3.68,0,0,0,.17-.37,2,2,0,0,0-.09-1.53c0,.33-.07.66-.11,1A3.91,3.91,0,0,0,59.23,89a9.63,9.63,0,0,0-.31-1.47A13.62,13.62,0,0,0,58,86.2c.22.41,0-.33-.07-.46a3.16,3.16,0,0,0-.47-.62,6.3,6.3,0,0,0-1.18-1,8.16,8.16,0,0,0-2.81-1.37c-1.11-.17-2,1.79-.72,2,.42.07.36.13,1,.52.39.22.75.44,1.11.68a4.7,4.7,0,0,1,1.06.82c.28.32-.09-.08.16.43a5.84,5.84,0,0,0,.48.74,8,8,0,0,1,.84,2.62c.12.45,0-.41.06,0,0,.12-.05.26,0,.39s0,.27,0,.39c.06.41.27-.64.07-.24A1.86,1.86,0,0,0,57.55,93c0-.33.08-.66.11-1a3.57,3.57,0,0,0-.5,2.32c.18,1.31,2.15.39,2-.72"/>
  <path class="b" d="M65,88.34a3.84,3.84,0,0,0-1-.33c-.47-.11.32.4,0-.05-.15-.19-.16-.26-.37-.39a5.37,5.37,0,0,0-1.76-.47,5.52,5.52,0,0,0-3.84.35l.76-.18-.53,0c-1.11,0-2,2-.73,2a2.7,2.7,0,0,0,1.29-.16,3.23,3.23,0,0,1,.41-.22c-.7.2-.08.12.08.12s.6-.06.88-.09.12,0-.23-.06l.35.11.39.11a5.83,5.83,0,0,1,1.66.35c.07,0,.32.48.67.59s.35,0,.79.2c1,.52,2.29-1.28,1.18-1.85"/>
  <path class="b" d="M62.39,65.1A6.75,6.75,0,0,0,62,67.73a6.28,6.28,0,0,0,.35,1A5.73,5.73,0,0,0,62.65,70a4.57,4.57,0,0,0,.71.91,5,5,0,0,0,.53,1.06,11.21,11.21,0,0,0,1.77,1.81,8.86,8.86,0,0,1,1.65,1.62,5.18,5.18,0,0,1,1,2.25l.32,1.07c.07.2.09.44.18.64.33.71.11-.32,0,.21a2,2,0,0,0-.1.65c0,.15.45,1,.31.4-.1-.41-.06,0-.12.29a3.41,3.41,0,0,0-.11.78c0,.09,0,.18,0,.27,0,.83.18-.3.07.15a5.15,5.15,0,0,1-.33.61c-.17.4-.32.82-.47,1.2a12.18,12.18,0,0,0-.4,1.58c.12-.52.15-.61-.19-.12a2.48,2.48,0,0,0-.36.91l.79-.79a8.27,8.27,0,0,0-2.1,1.71c-.3.27-.57.56-.86.84-.48.47.49-.17-.16.14-.21.09-.44.16-.65.24-.78.28-1.2,1.33-.45,1.86.43.3.69.59,1.14.87.6.36-.5-.51.11.2.23.28.55.29.77.51a5.9,5.9,0,0,1,.69,1.09,3.16,3.16,0,0,0,.44.64c.54.46-.09-.53.09.27a2.94,2.94,0,0,0,.33.77c.33.65-.11-.78.1.18s.42.72.43,1.37A6.1,6.1,0,0,0,68,97.58c.13.51.07-.73,0-.21,0,.13-.1.26-.09.39,0,.38.2.67.23,1-.11-1.39-.28,1.34-.13.63a3.54,3.54,0,0,1-.3.62c-.07.18-.28,1.28-.1.68-.14.47-.39,1-.58,1.53.17-.45.06-.09-.14.13a3.69,3.69,0,0,0-.63.84,1.75,1.75,0,0,0-.09.41c-.16.73.09-.12.18-.21a2.85,2.85,0,0,0-.58.62c-.29.56.75-.41-.08,0a3.65,3.65,0,0,0-.89.67,2.39,2.39,0,0,0-.28.35c-.28.43-.19,0,.29-.17a4.19,4.19,0,0,0-.79.31,8.45,8.45,0,0,0-1.31.66,3.38,3.38,0,0,0-.68.82c.61-.89.4-.11-.08-.19s-.29,0,0,0c-.12,0-.3-.08-.43-.06-.32,0-.59.17-.9.23-.48.08.16,0-.47,0a8.61,8.61,0,0,0-.88,0,9.82,9.82,0,0,0-1.54.07c-.64.11.3.34-.2-.09-.19-.17-.49-.07-.7-.16.42.19-.23-.27-.36-.33-.3-.14-.6-.09-.91-.23A11.86,11.86,0,0,1,53,104.53c-.43-.41-.46-.76-1.06-1a2.25,2.25,0,0,0-.71-.22c-.18,0-1.23.16-.6.14-.47,0-1-.16-1.44-.17a4.28,4.28,0,0,0-.8,0c-.76.11.27.25-.28-.11a1.44,1.44,0,0,0-.82-.25c-.73-.1.13.35-.44,0a8.44,8.44,0,0,0-1.38-.8c-.45-.18.12.09-.41-.23a4.27,4.27,0,0,1-.6-.34c-.19-.18-.24-.44-.41-.62a3.19,3.19,0,0,0-.68-.42c-.36-.34-.37-.78-.68-1.21-.12-.17-.94-.75-.66-.36s-.08-.57-.13-.7A21.84,21.84,0,0,1,41,95.3c-.07-.26-.18-.5-.23-.76-.1-.68.08.09.18-.55,0-.21-.07-1.22-.13-.64s.24-.28.31-.47a2.07,2.07,0,0,0,.11-1c0-.15-.12-.27-.16-.41-.12-.43-.22.69,0,.09,0,0,.05-.21.1-.25.47-.39-.25.38.13-.16a7.68,7.68,0,0,0,.57-.87c.22-.41.33-1.09-.22-1.32a3.19,3.19,0,0,1-1.16-.7c-.1-.12-.07-.35-.18-.45s-.56-.31-.75-.49c.3.3-.33-.53-.5-.69-.57-.54,0-.15-.46-.86A19.26,19.26,0,0,1,37.49,84c-.25-.48-.06-.15-.08-.33a4.21,4.21,0,0,0,0-.79,2.12,2.12,0,0,0-.78-1.13l.15.94a2.82,2.82,0,0,0,.23-1.1c0-.24-.2-.38-.26-.6,0,.13-.13.85.06.19A5,5,0,0,0,36.73,79c0-.08,0-.19,0-.27,0-.87-.05.59,0-.27a5.68,5.68,0,0,0,.05-.92A3.64,3.64,0,0,1,37,76c.49-1.54-.34-2.42-1.24-3.57-.33-.43-.64-.84-.92-1.29-.51-.8.11.9-.07-.06,0-.13,0-.28,0-.41a2.56,2.56,0,0,0-.51-1c-.52-.7,0,.59-.08.08,0-.17,0-.36,0-.54a3.49,3.49,0,0,0-.24-.88c-.33-.88-.23-.5-.27-1.65,0-.39-.13-2.15-.36-1.06.09-.43.37-.69.4-1.16,0-.12-.14-.75-.17-.19a3.65,3.65,0,0,1,.2-.64c0-.13,0-.29,0-.41-.19.58.11,0,.15-.12s.28-1.31.09-.67c.12-.42.42-.6.43-1.11,0-.78-.56,0-.09-.2a1.51,1.51,0,0,0,.71-1c.06-.22-.06-.51,0-.72,0,.61,0,.22,0,.24s-.37.53.1,0c.16-.17.34-.27.49-.46a6.34,6.34,0,0,0,.5-1c.06-.13.11-.27.18-.39.36-.66-.46.27.13-.19.24-.19.56-.32.8-.54a2.57,2.57,0,0,0,.51-.53c.42-.62-.8.36,0,0a4.39,4.39,0,0,0,.89-.63,26,26,0,0,1,3.76-2.08,1.25,1.25,0,0,0,.6-1.18c-.09-.56-.39-.72-.6-1.16.21.45-.13-.55-.21-.7a2.22,2.22,0,0,0-.21-.32c-.4-.52-.07.58,0-.06A4.17,4.17,0,0,0,42,49.25c0-.17-.14-.32-.17-.49-.08-.41-.15.87.1,0a1.63,1.63,0,0,0,0-1c-.05-.29,0-.26,0-.53,0,.33-.08.29.13-.07a9.77,9.77,0,0,0,.52-.93,3,3,0,0,0,.4-1.13c0,.28.13.07-.2.24a1.84,1.84,0,0,0,.48-.3,3,3,0,0,0,.43-.56c.23-.39-.84.44-.15.16a1.7,1.7,0,0,0,1-1c0-.09.07-.18.11-.27-.47.47-.52.59-.14.34,0,0,.32-.21.34-.21s-.38.19.21,0l.59-.18c.23-.09.33-.37.52-.51-.45.32-.61.4-.09.27a2.71,2.71,0,0,0,1.18-.76L46,42.68a4.3,4.3,0,0,0,2.22.11,4.74,4.74,0,0,1,1.13,0c.63.11.34,0,.79.34a1.1,1.1,0,0,0,1.61-.39c.29-.58.74-1.06,1-1.7.11-.27-.77.44-.1.16a1.74,1.74,0,0,0,.5-.28,2.56,2.56,0,0,0,.65-1.13l-.79.8c1.51-.59,2.78-1.64,4.28-2.22.21-.08.45-.12.65-.19.73-.24-.73-.26.06-.06s.87-.14,1.52-.3c-1.08.26.36.29.7.28A5.18,5.18,0,0,0,61.59,38l-.93-.16c.86.7,1.82.55,2.79,1.09.45.25.89.48,1.34.74a3.94,3.94,0,0,1,1.07,1c.09.1.26.1.35.2.3.31-.28-.27,0,0,.15.16.35.45.48.62a11.91,11.91,0,0,1,.88,1.17A21.93,21.93,0,0,0,69,45.36l-.15-.94a2,2,0,0,0,.16,1.76s.09,0,0,.37-.21.53-.24.81a2.48,2.48,0,0,0,.06.77c.25.78.35-.45,0,.2A4.63,4.63,0,0,0,68.62,50a2.63,2.63,0,0,0,0,.69c.14.39-.09.08.2-.24-.09.1-.22.18-.31.29a3,3,0,0,0-.49.83c-.06.17-.37,1.1-.06.53s-.38.31-.48.51-.1.42-.22.63c.3-.53-.24.07-.44.3a4,4,0,0,0-.44.87l.79-.79a4,4,0,0,0-1.81,1.17,3.43,3.43,0,0,0-.41.61c.2-.38,0-.13.11-.15a3.8,3.8,0,0,0-1,.38c-.84.54.75-.23-.22,0-.41.11-1.2.83-.77.51-.29.22-.64.32-.94.56s0,.11-.38.29c.41-.2.06-.07-.2,0a1.34,1.34,0,0,0-1.06.86l-.18.59.8-.79a3.34,3.34,0,0,0-1.28.85c-.51.47.36-.44-.21.18a3.47,3.47,0,0,0-.61.71,3.84,3.84,0,0,0-.19.51c-.3.76.16-.21-.1.33a4.5,4.5,0,0,0-.56,1.38c-.23,1.38,1.82.9,2-.22.16-1-.5.45,0-.1a2.92,2.92,0,0,0,.4-.59,2.09,2.09,0,0,0,.21-.64c0-.68-.64.52,0,0a2,2,0,0,0,.55-.57c.43-.7-.87.48,0,0a1.91,1.91,0,0,0,1-1.41L61.31,59a3.35,3.35,0,0,0,1.56-.54c.18-.14.33-.33.51-.46-.67.46.27-.05.35-.11s.33-.37.52-.49c-1,.6-.11.33.18.18s.49-.41.78-.59c-.33.2-.72.35-.09.2,1-.25,1.52-1.15,2.22-1.64a3.42,3.42,0,0,0,1.11-1.22c-.72,1.08.39-.17.58-.53.12-.2.16-.44.27-.63s-.18.41.16-.16a5,5,0,0,0,.4-.88c.27-.72-.39.37,0-.24a4.28,4.28,0,0,0,.81-2.63c0-.13,0-.73-.1-.14.07-.32.36-.52.4-.88s-.13-1.41-.18-.93c.13-1.25.47-1.76-.4-2.89l.15.94c.33-1.09,0-1.33-.45-2.26-.33-.62-.53-1.3-.9-1.9A9.69,9.69,0,0,0,68,39.43c-.13-.12-.34-.27-.46-.39-.59-.63.37.43-.23-.23a5.28,5.28,0,0,0-.79-.85,8.8,8.8,0,0,0-4-1.6c-.75,0,.67.38-.09,0-.19-.11-.3-.26-.54-.31s-.75.13-1.08.13c-1,0-1.43-.25-2.37.32l1-.11c-2.06-.65-6.83,1.72-7.63,3.74l.79-.79a2.83,2.83,0,0,0-1.59,1.33c-.07.13-.09.28-.16.4-.19.35.28-.44,0,.07a9,9,0,0,0-.57.89l1.61-.39a3.86,3.86,0,0,0-2.47-.83,6.51,6.51,0,0,0-1.08,0c-.17,0-.34.07-.52.09-.4,0,.14.16-.46-.08a1.16,1.16,0,0,0-1.23.3c-.72.64.54,0-.11,0a1.52,1.52,0,0,0-.65.19c-.26.09-.3.37-.52.5.84-.5.3-.36-.07-.23a3.29,3.29,0,0,0-2.06,1.93l.8-.8a3.16,3.16,0,0,0-.89.42c-.19.15-.76,1-.27.46A3.85,3.85,0,0,0,41,45.21c-.25.64.08-.11-.15.42-.08.19-.51,1-.16.41a3.46,3.46,0,0,0-.82,1.71,6.85,6.85,0,0,0,0,.79c0,.87.09-.35,0,.15,0,.13-.13.25-.14.39a4.57,4.57,0,0,0,.19,1c.08.54,0-.21-.06.41a3.11,3.11,0,0,0,.49,1.73s-.08.2.09.57.38.31.42.61l.6-1.18c-1,.52-1.93.84-2.87,1.45a11.68,11.68,0,0,0-1.28.94c-.49.41.21-.19-.37.25a8.6,8.6,0,0,0-.84.76c-.33.34.42-.32,0,0-.1.06-.19.14-.28.2a3.44,3.44,0,0,0-.76.53,4.82,4.82,0,0,0-.93,1.47c-.1.21-.58.89-.15.45s-.48.24-.63.43a2.28,2.28,0,0,0-.4,1.86l.36-1a3.09,3.09,0,0,0-.94,1.09,1.43,1.43,0,0,0-.16.84c0,.83.41-.4,0,.13a2.6,2.6,0,0,0-.27.7c-.23.7.14-.25-.07.33a6.14,6.14,0,0,0-.4,1.39c0,.26-.13.45,0,.72.21.63.37-.66.05.12a2.12,2.12,0,0,0-.05,1.45A12.37,12.37,0,0,0,31.9,69a5.46,5.46,0,0,1,.29,1,3.45,3.45,0,0,0,.52,1.32c.22.43-.09-.16,0,.41a2.61,2.61,0,0,0,.21.76c.16.31.54.66.74,1s.54.7.81,1c.1.14.18.32.3.46s.13.12.17.18c.49.61-.11-.24.18.09.11.14.06.64.16.14A4.27,4.27,0,0,1,35,76a3.54,3.54,0,0,0-.24,1.37c0,.24,0,.49,0,.74,0,.7,0-.24,0,.41a9.17,9.17,0,0,0,0,1.57c0,.22.06.45.08.67,0,.59,0-.17,0,.44a2,2,0,0,0,0,.88c.24.67.3-.59,0,.28a.9.9,0,0,0,.16.94c.68.62.24.26.31.87a3.45,3.45,0,0,0,.46,1.34c.13.22.37.42.48.63-.19-.36-.07.1,0,.23s.31.42.42.62.14.11,0-.09c0,.14,0,.28.08.43a5.49,5.49,0,0,0,.91,1.08c.1.1.11.31.21.4s.6.33.75.49c-.33-.35,0,.22,0,.27a5.83,5.83,0,0,0,.56.55,4.1,4.1,0,0,0,1.23.72l-.22-1.32c-.68,1.26-1.33,1.8-1,3.31-.12-.54,0-.46-.17,0a2.56,2.56,0,0,0-.24,1c0,.09.08.52.11.19s-.16.18-.16.25a4.17,4.17,0,0,0,0,1.06c.16,1.06.55,2.1.81,3.13a5.57,5.57,0,0,0,.22.8c.06.12.51.75.33.34.13.29.06.56.25.86s.23.11.35.21c.73.6-.29-.62.13.05a6.87,6.87,0,0,0,.93,1.43c.11.1.81.45.47.15.25.22.36.63.62.87a6.11,6.11,0,0,0,1.34.86c.25.12.57.08.82.23s.34.41.57.56a1.79,1.79,0,0,0,.92.27c.94,0-.34-.27.28-.07a6.58,6.58,0,0,0,1.78.31,10.15,10.15,0,0,0,1.44.19,8.23,8.23,0,0,0,.86-.19c-.22,0,.07.21.15.31a9.2,9.2,0,0,0,2.74,1.83,10.82,10.82,0,0,0,1.42.68c.4.17-.35-.17.08,0,.12.05.2.21.32.26a5.73,5.73,0,0,0,.89.28,2.24,2.24,0,0,0,1,.15c.14,0,.29-.1.42-.11-.5,0-.06.06,0,.06a8.22,8.22,0,0,0,.86,0c.11,0,.23,0,.34,0,.3,0-.33,0,.19,0a7.24,7.24,0,0,0,1.8-.18c-.53.08.29.1.46.09a3.69,3.69,0,0,0,.92-.25,2.17,2.17,0,0,0,.87-.44,2.66,2.66,0,0,0,.37-.51c.31-.49-.72.37-.24.19a15.54,15.54,0,0,0,1.59-.76,6.3,6.3,0,0,0,1.26-1.07c-.56.48.43-.15.52-.23a4.68,4.68,0,0,0,.63-.74,2.89,2.89,0,0,0,.59-.92c.3-.86-.53.18,0-.16a2.71,2.71,0,0,0,.93-1.54,4.94,4.94,0,0,1,.1-.53c.17-.44-.16.44,0,0a7.39,7.39,0,0,0,.36-.88c.14-.52-.2.25.08-.41a4.14,4.14,0,0,0,.42-1c0-.16,0-.26,0-.39.1-.89-.06.58,0-.31,0-.39.17-.62,0-1s-.14,0-.14.2c0-.21.17-.44.16-.65s-.22-1.13-.18-.65a6.72,6.72,0,0,0-.11-1.95c0-.12-.18-.2-.23-.32-.42-.87.21.84,0-.07a2.2,2.2,0,0,0-.32-.92c-.17-.26-.31-.34-.11.23-.07-.2.08-.49,0-.68a4.34,4.34,0,0,0-.5-.76,13.5,13.5,0,0,0-.92-1.51c-.25-.29-.53-.36-.78-.59s.48.37-.13-.14c-.12-.1-.17-.29-.3-.39s-.34-.09-.48-.19c-.39-.29.08,0-.15-.12s-.51-.46-.79-.67l-.45,1.87a7.59,7.59,0,0,0,2.52-1.73c.4-.34,1-.64,1.17-1.16s-.71.49.08,0a2.53,2.53,0,0,0,.82-.87c.41-.59-.17.32.19-.3a3,3,0,0,0,.44-.86c.08-.24.08-.5.14-.75.11-.46-.17.43,0,0,.06-.17.18-.32.25-.49.17-.41.34-.8.52-1.2a4.49,4.49,0,0,0,.25-1.72c0-.54.34-1,0-1.53s-.12.65,0-.23a2.43,2.43,0,0,0-.11-1A27.34,27.34,0,0,0,70,75.48c-.75-2-2.71-3-4.09-4.48a6.57,6.57,0,0,1-.5-.65c0-.08-.3-.4-.09,0-.08-.16,0-.39-.09-.55s-.37-.35-.54-.6-.47-1-.34-.5a6,6,0,0,1-.1-3.31c.36-1.4-1.58-1.48-1.89-.29"/>
  <path class="b" d="M61.46,75.79c-.36-.56-.17,0-.2-.52a8.42,8.42,0,0,0,0-.87,6.76,6.76,0,0,0-.73-1.59c-.23-.6-.16-1.08-.62-1.6a12,12,0,0,0-1.18-1.27c-.13-.11-.37-.14-.15.06-.13-.11-.15-.34-.27-.47A3.81,3.81,0,0,0,57.7,69a6.46,6.46,0,0,0-1.55-.73,15.12,15.12,0,0,0-1.6-.72,3.1,3.1,0,0,0-.91-.09c-.6,0,0,.17-.61-.07C52,67,50.71,68.78,51.85,69.25a7.45,7.45,0,0,0,1.72.25,10.51,10.51,0,0,1,1.34.59c.26.11.51.22.78.31.55.2.1-.11.49.23s.8.76,1.23,1.12-.28-.33.05,0c.07.09.09.28.17.38a4.46,4.46,0,0,0,.61.53c.34.33.06-.11.16.14a2,2,0,0,1,.08.35,3.37,3.37,0,0,0,.21.83c.11.24.32.52.45.76a1.51,1.51,0,0,1,.11.32c.13.4,0-.37,0,0A2.82,2.82,0,0,0,59.6,77c.68,1,2.47-.24,1.86-1.19"/>
  <path class="b" d="M93.3,102c-.37-.76-.21.4-.11-.27a1.55,1.55,0,0,0,0-.88c-.24-.72-.23.58,0-.27a3.22,3.22,0,0,0,.08-.82,4.72,4.72,0,0,0-.55-1.47c-.09-.25-.33-1.22-.35-1.28a5.94,5.94,0,0,0-.71-1.48c-.15-.18-.44-.25-.6-.42s.08-.13-.17-.61a1.8,1.8,0,0,0-.56-.61c-.09-.07-.82-.56-.49-.23-.21-.21-.29-.5-.52-.72s-.48-.22-.71-.46c-.8-.86-2.38.71-1.57,1.57a4.07,4.07,0,0,0,.56.54c.11.07.3.06.4.15-.22-.21-.15,0,0,.1a5.41,5.41,0,0,0,.66.6c.34.24.29.12.34.2A8.12,8.12,0,0,0,89.76,97c.41.45,0-.16.27.4.11.24.18.49.28.72s.22.47.3.69.18.33.06,0c0,.12,0,.28,0,.41.29.74.54.5.46,1.16a5.25,5.25,0,0,0-.16.71c0,.21.33,1.13.27.63s-.18.38-.17.55a2.46,2.46,0,0,0,.34.9C92,104.28,93.8,103,93.3,102"/>
  <path class="b" d="M82.18,96.13a7,7,0,0,0,2-.25,5.12,5.12,0,0,0,1-.38c.15-.08.32-.19.47-.25-.43.17-.63.12,0,.17a1.27,1.27,0,0,0,1.18-.6c.11-.17.22-.35.34-.52l-.93.6a2.61,2.61,0,0,0,1.68-.55,1.87,1.87,0,0,0,.38-.46c.27-.49-.09,0-.32.12a3.93,3.93,0,0,0,.84-.49,2.47,2.47,0,0,0,.6-.65c.41-.7-.73.32,0-.07s.88-.88,1.25-1.43a9.25,9.25,0,0,0,.88-1.3,4.18,4.18,0,0,0,.21-.77c.07-.28,0-.32-.1,0,0-.17.22-.3.27-.48a1.45,1.45,0,0,0,0-.92c-.12-.39-.43.66-.07.1a1.9,1.9,0,0,0,.2-.37,2.25,2.25,0,0,0,0-1.8c-.37-1.15-2.2.11-1.85,1.18a2.16,2.16,0,0,1,.13.41c-.1-1,.06-.37-.1-.22a1.93,1.93,0,0,0-.36.75c-.07.41.12,1.2.26.32,0,.29-.32.64-.39.93,0,.13-.14.75,0,.48s-.34.38-.46.53a8.1,8.1,0,0,0-.87,1.51l.79-.8A2.92,2.92,0,0,0,87.78,92s-.49.53.1,0c-.25.22-.6.25-.85.49s-.79.79-.18.37c-.53.36.41-.19-.28,0A2.19,2.19,0,0,0,85.15,94l1.18-.6a4.7,4.7,0,0,0-2.06.5c.19-.06-.68.13-.91.16a6,6,0,0,1-1,0c-1.16,0-1.62,2-.23,2"/>
  <path class="b" d="M101.69,90.86a4.44,4.44,0,0,1-1.14-.55,1.44,1.44,0,0,0-.71-.32h-.56q-.27,0,.09,0c.06-.11.28.1,0-.08l-.25-.12a1.52,1.52,0,0,0-.92,0c-.21.1.44.18.14,0A1.8,1.8,0,0,0,98,89.7a4.12,4.12,0,0,0-.78-.14c-1.11-.14-2,1.83-.73,2l.36,0c.44.06-.27-.1.16,0a3,3,0,0,0,.83.2,1.45,1.45,0,0,0,.29,0c.55-.11-.18.09-.15-.1a3.25,3.25,0,0,0,.59.27,2.74,2.74,0,0,0,.81,0c.31,0-.36-.24-.21,0,.05.08.21.15.28.2a4.63,4.63,0,0,0,1.1.52c1.06.36,2.33-1.46,1.18-1.86"/>
  <path class="b" d="M76.54,71.85a4.69,4.69,0,0,0-1.48,1.78c-.27.58.4-.25-.1.21a1.56,1.56,0,0,0-.29.21,3.33,3.33,0,0,0-.75,1.09,14.3,14.3,0,0,0-1.15,4.09,8.92,8.92,0,0,0,.35,3.92,9.19,9.19,0,0,0,2,3.81c.74.89,2.32-.67,1.57-1.58A7.73,7.73,0,0,1,75,82.08c-.11-.5,0,.14-.09-.17,0-.16,0-.36,0-.53a2.59,2.59,0,0,0-.33-.81c0,.22.16-.73.18-.87,0-.29,0-.58,0-.89a20.37,20.37,0,0,1,1-3.5c.13-.37-.71.53-.08.16a2.69,2.69,0,0,0,.45-.37,3.85,3.85,0,0,0,.63-.92s.19-.44.2-.52c0-.49.07,0-.24.21a7.3,7.3,0,0,0,1-.77c1.06-.91-.21-2.15-1.26-1.25"/>
  <path class="b" d="M90.74,70.06a5.25,5.25,0,0,0,1.32-.79c.72-.44-.59.21.25,0l.66-.18a4.75,4.75,0,0,1,.93-.27,5.94,5.94,0,0,1,.73,0c.8.07-.33-.11.37.07.42.12.84.2,1.28.3a3.35,3.35,0,0,1,.55.11c.71.24-.2-.23.32.22.15.12.27.32.42.46l.41.14c-.15-.19-.19-.19-.1,0s.19.43.43.63c.66.53.07-.31.22-.06a12.44,12.44,0,0,0,.56,1.17c.17.24.32.28.43.57-.14-.38-.1.06-.09.23,0,.52.29.92.35,1.38-.08-.54-.13.2-.12.32a7.27,7.27,0,0,0,.2.77c-.13-.85,0-.36-.13-.07,0,0-.32,1.1,0,.41a12.77,12.77,0,0,0-.58,1.24c-.1.37,0,.17-.18.5.33-.57-.19,0-.38.19a3.41,3.41,0,0,0-.83,1.13.92.92,0,1,0,1.63.8c.28-.55.54-.52,1-1a4.43,4.43,0,0,0,.72-1.5,6.1,6.1,0,0,0,.74-2.77c0-.5,0-.24,0-.35a6.37,6.37,0,0,0,0-.75c-.08-.45-.11-.93-.2-1.38A7.46,7.46,0,0,0,100,69.13l-.4-.18c.18.21.2.16,0-.15a5.39,5.39,0,0,0-.53-.54c-.44-.36.19.24-.31-.17-.21-.17-.3-.37-.55-.52a9.84,9.84,0,0,0-2.72-.82,6.26,6.26,0,0,0-2.94.36c-.73.25.18,0-.39.13a3.25,3.25,0,0,0-.78.26,6.94,6.94,0,0,0-.67.51c-.48.34.43-.07-.35.17-1.17.35-1.09,2.3.29,1.88"/>
  <path class="b" d="M107.68,69c-1.05-.91-2.66-1.62-4-1l.73,0a2.43,2.43,0,0,0-2.54.22l1-.11-.59-.2a1.15,1.15,0,0,0-1.23.29l-.43.43,1-.37a3.18,3.18,0,0,0-3.07,1.54c-.81,1.2.91,1.87,1.64.8.51-.76-.65.21.14-.18.13-.06.4-.15.48-.27s-.65-.06-.22.07c.74.22,1.24-.29,1.72-.76l-1.22.3a2.94,2.94,0,0,0,.95.27,1.39,1.39,0,0,0,.63-.18c.68-.31,0-.06-.12-.14a2.24,2.24,0,0,0,2-.1l-.74,0c.77.44,1.57.4,2.27,1,.89.77,2.46-.81,1.57-1.58"/>
  <path class="b" d="M90.15,55.47c1,1.81,4.72,3.38,6.61,2.78.89-.29-.54-.09.26,0A2.57,2.57,0,0,0,98,58a13.88,13.88,0,0,0,1.63-.41,7.16,7.16,0,0,0,3.18-2.07c.9-1-.34-2.33-1.26-1.26-.15.18-.29.36-.45.53s-.15.24.09.06c-.13.09-.36.16-.5.24a9.43,9.43,0,0,1-1.29.59c-.5.17-1,.22-1.49.38-.18.05-.77.23-.28.16a7.4,7.4,0,0,0-1,0c-.14,0-.26.15-.4.2-.43.15.63,0,.22-.12s-.55,0-.8,0c-.44-.11.41.08-.05-.06a3.12,3.12,0,0,1-.35-.2c-.23-.11-.54-.14-.79-.23A4.24,4.24,0,0,1,92,54.29c-.59-1.1-2.39.18-1.85,1.18"/>
  <path class="b" d="M89.05,45.81l.36-.45-.93.61a1.88,1.88,0,0,0,1.75-1.19l-.92.61a2.45,2.45,0,0,0,2.2-2.16c-.13.25-.25.49-.37.74a4.07,4.07,0,0,0,1.13-1.7,6.42,6.42,0,0,0,.29-.84c0-.08.15-.63,0-.25,0-.14.1-.29.15-.44.47-1.37-1.49-1.44-1.88-.29a10.12,10.12,0,0,0-.29,1.08c0,.18,0,.09,0,0,0,.11-.09.21-.13.32s-.11.28-.16.42,0,.08,0,0a.91.91,0,0,1-.15.23h0l-.22.19a2.47,2.47,0,0,0-.58,1.4l.37-.74-.39.35.74-.37a2.08,2.08,0,0,0-1.76,1.24l.93-.61A2.45,2.45,0,0,0,87.41,45a.9.9,0,0,0,.23,1.33c.54.28,1.09-.13,1.41-.53"/>
  <path class="b" d="M84.05,51.05a6,6,0,0,0-.18,1.68c0,.22-.12.42-.07.66.14.66.34-.41-.12.28a1,1,0,0,0-.11,1,2,2,0,0,1,.37.65c-.12-.43-.13,0-.14.2a2.31,2.31,0,0,0,.27,1.36,16.18,16.18,0,0,0,1.34,2.24,8.44,8.44,0,0,0,4,3.1c1.06.35,2.34-1.47,1.18-1.86a7.37,7.37,0,0,1-3.68-2.9c-.14-.14-.15-.1,0,.11,0-.14,0-.28,0-.42a3.55,3.55,0,0,0-.28-.55,7.61,7.61,0,0,0-.64-1c-.3-.34-.07-.45-.12.08,0-.34.24-.57.22-.94a2.47,2.47,0,0,0-.53-1.23c0,.33-.08.66-.11,1a3.13,3.13,0,0,0,.58-2c0-.42-.11-.81-.12-.62a8.25,8.25,0,0,1,.27-1c.3-1.35-1.76-.87-2,.23"/>
  <path class="b" d="M77.92,56.37a4.42,4.42,0,0,0,1.89.76l.76.21c.19.06.42.08.61.15-.53-.2,0,.06.12.15a4.64,4.64,0,0,0,2,.34,2.13,2.13,0,0,0,1-.21,2.39,2.39,0,0,1,.44-.18c-.55.14-.08.06.18.11,1.1.2,2-1.76.72-2a3.65,3.65,0,0,0-2,.32c.33-.11.42-.05,0-.14a3.55,3.55,0,0,0-.46,0c-.31,0-.62,0-.92,0l.67.22A4.91,4.91,0,0,0,81,55.19a9,9,0,0,0-.93-.23,3.57,3.57,0,0,1-.47,0c.51.11.17.08-.08-.12-.93-.72-2.49.86-1.58,1.57"/>
  <path class="b" d="M80.81,79.49a17.27,17.27,0,0,0,.1-3,6,6,0,0,0-.5-1.44c-.27-.64.11.23-.12-.44a2.89,2.89,0,0,0-.33-.77A16.7,16.7,0,0,0,78,71.55c-.33-.35-.84-.56-1.18-.9-.08-.07.06.07-.19-.29s-.33-.52-.51-.77-1-1.14-.79-.87a5,5,0,0,1-.54-1.32c-.11-.32-.57-1.72-.52-.72,0-.71.2-1.09-.1-1.84-.06-.15-.18-.87-.18-.35,0-.27.22-.59.23-.9s-.06-.37-.06-.55c0-.46-.17.44,0,0,0-.17.19-.33.26-.5a5.3,5.3,0,0,0,.35-1.41,3.52,3.52,0,0,1,.13-.8c-.22.47.28,0,.42-.19a4.18,4.18,0,0,0,.4-.89c.28-.59,0,0,0,0,.15-.24.14-.15.33-.36a2.34,2.34,0,0,0,.51-.84c.21-.51-.65.57-.21.25A4.84,4.84,0,0,0,76.8,58c.09-.09.17-.26.27-.34.67-.57-.53.43.18-.09.23-.17.43-.34.65-.52-.45.38-.67.28-.23.19a1.93,1.93,0,0,0,.65-.22,2.24,2.24,0,0,0,.7-1l-.93.61.74-.1c.74-.09,1.74-1.5.7-1.92s-.73-.3-1.3-1c-.4-.47-1-.83-1.35-1.3a6.09,6.09,0,0,1-1-1.57c-.2-.52-.2-1.26-.56-1.71s-.1.55,0-.26a1.62,1.62,0,0,0-.25-1.06c-.21-.52,0,.13.05-.36a10,10,0,0,0,0-1.08c0-.63.29-1.23.29-1.87,0-.08,0-.2,0-.28-.11-.66-.51.51,0,0A1.86,1.86,0,0,0,76,43c.14-.5-.68.75,0,.17a1.83,1.83,0,0,0,.37-.46,1.8,1.8,0,0,0,.14-.53c.14-.87-.41.56-.12.12.18-.28.37-.54.55-.82.47-.77-.39.53.11-.21a4.06,4.06,0,0,0,.36-.46c.31-.66-.79.27,0,.08a1.32,1.32,0,0,0,.41-.17,3,3,0,0,0,.81-.78c.61-.83-.71.38.15-.14.2-.12.35-.24.53-.37.7-.48-.37.23.23-.19.28-.2.61-.53.9-.7-.76.45-.15.3.34.14.18-.06.29-.24.46-.31-.53.2-.07.1.09,0a3.47,3.47,0,0,1,.46-.13c.68-.18-.36,0,.28-.1s1.16-.07,1.76-.11a4.87,4.87,0,0,1,.65-.05c-.11,0-.53,0,0,.1a3.21,3.21,0,0,0,1.16.09c.23,0,.86,0,.55-.08.29.1.59.41.9.53.8.32,1.12.26,1.45.56s.44.45.68.65c.66.55-.37-.42.29.15.09.08.13.23.22.32a5,5,0,0,0,1.7,1.19,12.25,12.25,0,0,0,2.1,0c.63.07,1.24.34,1.84.42.86.1.62-.1,1.61.31a12.38,12.38,0,0,1,1.59,1c.3.19,0,0,.46.41.24.25.61.38.85.62-.63-.63-.09.32.07.54s.24.11.33.22c.33.38,0-.23.31.35.17.27.28.54.46.8,0,.06.41.37.17,0,.08.14,0,.37.12.52.29.62.1.11.24.61a6.34,6.34,0,0,0,.52,1.08c.2.41.1,0,.06.52a3.33,3.33,0,0,0-.06,1c0,.16.26.31.33.46.19.42.06-.76-.1,0a3,3,0,0,0-.07,1c.1.55,0-.06.13-.25a3.8,3.8,0,0,0-.31.6c0,.32.08.65,0,.93-.09.58-.56.94-.73,1.47-.54,1.68,1.52,2.46,2.31,3.58L105,59.69c.32.47.13,0,.32.67.1.33.15.7.28,1a9.45,9.45,0,0,1,.5.94c-.13-.48,0,.66.07.83.18.81,0-.32.11.15.06.25,0,.5.07.76a3.76,3.76,0,0,0,.25.37.29.29,0,0,1,.08.3c.17-.51.19-.63,0-.35a2.12,2.12,0,0,0-.26,1.27c0,.16.16.29.2.44.12.51.14-.26,0,.29a4.07,4.07,0,0,0-.2,2.25c.13-.33.25-.66.37-1a3,3,0,0,0-.75,1.2c-.06.22.08.46.06.68,0-.47.18-.59-.15-.12a1,1,0,0,0-.11,1c.33.54.64.64,1.07,1,.64.55.26.43.61,1a18.83,18.83,0,0,1,1.28,2.44c-.1-.22.29.62.38.94a9.22,9.22,0,0,1,.3,1.55c0-.45-.08.1-.1.27s-.05.47-.06.72c0,.48.11,1,.09,1.46s-.16.81-.2,1.22c0,.22,0,.43,0,.65s-.08,1.08.09.58-.27.24-.32.36a3.44,3.44,0,0,0-.2.78c0,.18-.12,1,.07.44s-.28.34-.35.48c-.19.39-.32.84-.55,1.24.38-.66.11-.45-.26,0a2.11,2.11,0,0,0-.43.89c0-.08.75-.76.18-.27a2,2,0,0,0-.23.18,6.2,6.2,0,0,0-.54.83,4.21,4.21,0,0,1-.72.74c-.14.15-1,1-.42.57s-.53.14-.68.25a4.48,4.48,0,0,0-.5.47c-.42.4,0,.15.09.07-.14.1-.35.13-.5.23-.46.29-.87.56-1.34.82a5.59,5.59,0,0,0-.75.43c-.6.45.38.1-.48.06-.68,0-1.8.81-1.29,1.58.27.42.36.81.59,1.24.06.12.49.54.27.09,0,.12,0,.38.09.53a7,7,0,0,1,.12,1.1,1.44,1.44,0,0,0,.15.68c.35.58.3-.6,0,0-.11.27-.1,1.33,0,.81-.1.41-.47.75-.59,1.19a1.4,1.4,0,0,0-.11.53c.06.63.47-.51.08,0a2.06,2.06,0,0,0-.51,1.43l.61-.93a4.28,4.28,0,0,0-1,1,2.32,2.32,0,0,0-.34.59c-.19.56.61-.12.06,0s-1.3.77-1.84,1.12a4.73,4.73,0,0,1-2,.44,3.67,3.67,0,0,1-2,0c-.25-.05.33,0-.26-.13a3.18,3.18,0,0,0-.75-.19,2.07,2.07,0,0,0-1.4.64,5,5,0,0,0-.66.83,6.27,6.27,0,0,0-.58.93,5.32,5.32,0,0,0-.83.7c-.15.18-.28.38-.44.56.45-.53.51-.47.07-.22a2,2,0,0,0-.59.42c-.5.57.77-.11,0,0a1.86,1.86,0,0,0-1.28.83l1-.36a2.37,2.37,0,0,0-1.37.11,3.64,3.64,0,0,0-.52.35c-.49.29.15.14-.31.15a10,10,0,0,0-1.11-.08c-.22,0-.45.15-.66.16s.18-.13-.29-.09a1.82,1.82,0,0,0-.65.12c-.55.25.5.26,0,0a1.6,1.6,0,0,0-.61-.14c-.46,0-.85,0-.21.16-.77-.18-1.54-.51-2.27-.76a8.13,8.13,0,0,1-1.94-1,9.44,9.44,0,0,1-1.32-1.37c-.16-.16-.51-.29-.64-.45.22.27.09,0,0-.15a8.82,8.82,0,0,0-.54-1.17c-.21-.35-.41-.63-.6-1-.09-.15-.3-.5-.16-.15-.08-.21-.07-.51-.15-.74s-.34-.65-.24-.26a4.09,4.09,0,0,1,0-.7,2.33,2.33,0,0,0-.2-.73c-.07-.17-.08.67.12-.07a2.88,2.88,0,0,0-.07-1.4c-.08-.46,0,.16-.06-.44,0-.26,0-.53,0-.79-.13.33-.25.66-.37,1a2.63,2.63,0,0,0,.79-1.2c.07-.24-.1-.44-.12-.67,0,.49-.11.68.14.16a4.29,4.29,0,0,0,.25-1.17c.13-.71-.15.37.07-.23.08-.2.17-.44.27-.63s-.33.52.09-.12a4.12,4.12,0,0,0,.39-.6c.4-.84-.51.42-.14.08.17-.16.37-.3.55-.47A6.89,6.89,0,0,0,77.42,90l-.93.61c1.18-.21,1.7-1,2.68-1.45a19.1,19.1,0,0,0,2.55-1.11c.3-.2,1.22-1.45.73-1a11,11,0,0,0,1.22-1,5.58,5.58,0,0,0,1.44-2.71c.21-1.38-1.83-.91-2,.22-.09.59,0,.14,0,.27s-.22.22-.34.38c-.26.33-.31.61-.57.88s-.71.46-1,.86a2.65,2.65,0,0,0-.17.36c-.49.54.42-.2-.19.1-.4.19-.76.45-1.15.66.53-.28-.5.12-.74.23a8.41,8.41,0,0,0-2.12,1.43c-.25.2.87-.42,0-.11A1.69,1.69,0,0,0,76,89a9.8,9.8,0,0,0-.67.92c-.14.17-1,1.15-.52.63a7.33,7.33,0,0,0-1,1.16c-.09.14.17-.4-.17.15-.13.21-.24.4-.35.62a7.17,7.17,0,0,0-.43,1.18c0,.19,0,.4-.1.59-.18.65.15-.49-.11.22a1.72,1.72,0,0,0-.12,1.44c.13-.33.25-.66.37-1a2.86,2.86,0,0,0-.65,2.89c.1.52.13-.22.08.31,0,.23-.24.43-.24.68s.22.52.27.85c-.07-.47-.08.3-.06.46,0,.61.37.79.56,1.29-.16-.42-.13.23-.06.37a7.74,7.74,0,0,0,.44.67c.21.37.5.73.71,1.1s.23,1,.57,1.37c.07.07.67.46.5.28s.15.41.24.51a8.09,8.09,0,0,0,.88.82,7.5,7.5,0,0,0,2.45,1.3,13.05,13.05,0,0,0,2.49.85,2.74,2.74,0,0,0,.81,0c.83-.06-.17-.1.07,0a2.7,2.7,0,0,0,.74.2c.38,0,.74-.21.56-.19a14,14,0,0,0,2.82-.15,3,3,0,0,0,.73-.38c.14-.1.8-.4.22-.25s.31.15.47.11a1.55,1.55,0,0,0,.84-.48c.48-.54-.79.27.13,0a2.35,2.35,0,0,0,.79-.43c.55-.39-.24.13.23-.2a6.78,6.78,0,0,0,.81-.6A18,18,0,0,0,92,104.36c.16-.21.4-.32.52-.56.35-.73,0,.17-.31,0a2.29,2.29,0,0,0,.74.29c.12,0,1,0,.48-.06a12.06,12.06,0,0,0,2.88,0,4.48,4.48,0,0,0,2.69-1.1c.1-.08.64-.42.29-.25s.42-.07.53-.12a4,4,0,0,0,1.2-.92c.17-.22.27-.54.4-.74.27-.44-.25.32.26-.22a2,2,0,0,0,.61-.93c.27-1-.53.5,0-.2.38-.52.31-.92.49-1.44s.59-.93.64-1.59c0-.13-.12-.27-.1-.4,0,.31.07.2.08,0a3,3,0,0,0,0-.94c-.1-.57,0,.1-.13-.44,0-.27,0-.55-.1-.83a4.88,4.88,0,0,0-.42-1.47c-.28-.52-.1,0-.34-.4-.15-.27-.25-.55-.43-.82l-1.29,1.59a5.49,5.49,0,0,0,3.29-1.08c.43-.28.9-.53,1.3-.85.21-.16.33-.4.52-.57.49-.44-.21.25.44-.17a7.87,7.87,0,0,0,.75-.66c.41-.35-.26.29.32-.19a4.49,4.49,0,0,0,1.11-1.44c.06-.12.13-.25.18-.38.18-.5-.63.58-.21.25a2.56,2.56,0,0,0,.71-.72c.36-.6.17-.36-.2-.09a3,3,0,0,0,.92-.91c1.29-2,1.23-3.28,1.54-5.58a13.42,13.42,0,0,0-.28-5.8c-.18-.54-.51-1-.73-1.45a8,8,0,0,0-.57-1.62c-.35-.52,0,.07-.36-.49a4.78,4.78,0,0,0-.46-.74c-.52-.63-1-.68-1.19-1,0,.33-.07.66-.11,1a2.17,2.17,0,0,0,.46-1.83c-.13.33-.25.66-.37,1a2.36,2.36,0,0,0,.75-1.45,1.9,1.9,0,0,0-.12-.63c-.28-.64-.32.4,0-.09a2.75,2.75,0,0,0,0-2.72c0,.33-.07.66-.11,1a2.19,2.19,0,0,0,.41-1.86c0-.12-.48-.88-.33-.39a10.25,10.25,0,0,1-.2-1.13c-.09-.49.15.67,0-.19,0-.13,0-.23,0-.39a3.62,3.62,0,0,0-.33-.72c-.25-.54-.38-1.1-.61-1.67a15.11,15.11,0,0,0-1.77-2.79,8.19,8.19,0,0,0-1.15-1.13c-.18-.18-1.07-1.15-1-.5,0-.3.65-1.15.77-1.5a3,3,0,0,0,.16-.76,1.49,1.49,0,0,0-.07-.52c-.12-.44-.32.77-.06.13a4.63,4.63,0,0,0,.29-1.65,2.38,2.38,0,0,0,0-.92c0-.18-.21-.28-.27-.44-.27-.7,0,.49,0,0a2.86,2.86,0,0,0-.12-1.71c-.1-.22-.64-1.18-.38-.25-.09-.32,0-.7-.12-1a7.47,7.47,0,0,0-2-2.78c.58.6.17-.18,0-.43s-.44-.32-.64-.5-.38-.43-.58-.57a7.75,7.75,0,0,0-.94-.42c.44.27-.32-.45-.39-.5a3.24,3.24,0,0,0-.71-.38,8.39,8.39,0,0,0-1.71-.52c-.59-.1.08.06-.54,0l-.76-.14a9.43,9.43,0,0,0-1.84-.21c-.82,0-.81.2-1.41-.25s-.85-.78-1.28-1.16a5.89,5.89,0,0,0-1.38-1,3.77,3.77,0,0,0-.68-.18c-.12,0-1-.36-.6-.15-.64-.3-.93-.63-1.7-.61a7.54,7.54,0,0,1-.83.12c.48,0-.58-.23-.73-.25a10.36,10.36,0,0,0-1.57.06c-.13,0-.26.09-.39.1-.84.09.35,0-.17,0a5.23,5.23,0,0,0-1,.16,6,6,0,0,0-.79.19c-.12.05-.25.17-.37.21-.82.29.39-.1-.13.06a2.66,2.66,0,0,0-1,.37c-.12.08-.18.25-.29.33.56-.39,0-.06-.12,0s-1.09.85-.51.45a6.65,6.65,0,0,0-1,.72c-.21.2-.64.54-.2.32a2.79,2.79,0,0,0-1.12.66,4.21,4.21,0,0,0-.47.64c-.12.19-.23.36-.34.55-.37.66.12-.1,0,.18a3.63,3.63,0,0,0-.56,1c-.2.63-.09.12.17-.15-.17.17-.42.28-.52.51A4.45,4.45,0,0,0,74,43c-.14.52-.17.4.23-.06a2.56,2.56,0,0,0-.7,1,12.85,12.85,0,0,0-.24,1.76,5.94,5.94,0,0,0-.15.94,4.88,4.88,0,0,1,.06.52c0,.31,0-.38-.07.16a2.3,2.3,0,0,0,.47,2.1l-.15-.94C73,50,74,51.89,74.8,53.15a8.93,8.93,0,0,0,3.55,3.3l.7-1.93a2,2,0,0,0-1.94,1.26c.3-.21.61-.41.92-.61a3.69,3.69,0,0,0-1.58.76c-.08.06-.44.24-.58.35s-.17.25-.27.35c-.45.41.23-.23-.06,0a4.69,4.69,0,0,0-.71.7c-.08.11-.09.27-.16.39-.26.41.29-.41,0,0a4.14,4.14,0,0,0-.92,1.48c-.14.62.53-.53-.15,0a2.37,2.37,0,0,0-.52.66,6.56,6.56,0,0,0-.36,1.59c-.11.46-.35.79-.49,1.25a3.47,3.47,0,0,0-.07.79c0,.13,0,.27,0,.39,0,.56,0-.21,0,.15a3,3,0,0,0,0,1.63c.06.2.15.39.21.6.18.62,0-.07.07-.2,0,.19-.22.5-.21.7a5.49,5.49,0,0,0,.54,1.39c.09.25.11.49.21.74s.19.2.24.32-.16-.24.07.19A17.14,17.14,0,0,0,75.06,72a6.87,6.87,0,0,0,1.14,1c.11.1.58.47.29.16.21.22.32.55.52.79a9.08,9.08,0,0,1,1.79,2.7c.37,1,0,2.08,0,3.1,0,1.4,2,.94,2-.22"/>
  <path class="b" d="M81.86,68.83a9.49,9.49,0,0,0,.56,2.7c.06.12.26.8.19.29,0,.34-.12.6,0,1a7.44,7.44,0,0,0,.78,1.17,8,8,0,0,0,2,1.84c.2.14.27.35.49.46s1,.31.49,0a2.44,2.44,0,0,0,1.56.51l-.68-.21c.9.7,1.92.53,3,.7s2-1.79.72-2a7.75,7.75,0,0,0-2.4-.15l.68.22a2.34,2.34,0,0,0-1.71-.58l.68.22a2.8,2.8,0,0,0-.6-.54c-.08,0-1-.31-.48,0a7.73,7.73,0,0,1-1.16-.76c-.68-.65-1.07-1.61-1.74-2.27.08.22.15.45.22.67a3.82,3.82,0,0,0-.49-2.14c-.09-.21-.19-.43-.14-.09a3.44,3.44,0,0,1,0-.55,3.92,3.92,0,0,0-.12-1.18c-.31-1.29-2.26-.37-2,.73"/>
</svg>
