<svg xmlns="http://www.w3.org/2000/svg" viewBox="0 0 145 145">
  <defs>
    <style>
      .a {
        fill: #e54d59;
      }

      .b {
        fill: #fff;
      }
    </style>
  </defs>
  <path class="a" d="M139.56,90.68a.25.25,0,0,0,.12.25,49.9,49.9,0,0,1-2.24,5.65c.71-2.49,1.37-5,2.27-7.43-.05.51-.11,1-.15,1.53m-6.79,17.75c.7-.84,1.36-1.71,2-2.59a.33.33,0,0,0,.51.17c-.83.81-1.67,1.62-2.52,2.42M117.4,119.08c.43-.38.86-.76,1.29-1.12a8.9,8.9,0,0,0,1.85-1.32c.41-.34.81-.7,1.2-1.07a32.3,32.3,0,0,0,4.71-4.19c.48-.38,1-.76,1.45-1.13a70.46,70.46,0,0,1-10.5,8.83M85.81,133.3a49.52,49.52,0,0,0-7.56,1.27l5-1.24c2.29-.57,4.59-1.13,6.9-1.6.79-.16,1.58-.31,2.37-.41h0c-2.23.73-4.5,1.39-6.79,2m-42.28,2.16c.67.21,1.34.41,2,.59.94.26,1.89.49,2.84.7a8,8,0,0,1-4.86-1.29m-17-11.37h0c-.14-.28-.28-.56-.43-.83l.35.32.75,1-.67-.5m-10-11.42a35.59,35.59,0,0,1,2.62,2.59c.94,1.08,1.91,2.15,2.83,3.25-1.19-1.11-2.41-2.2-3.53-3.39a12.91,12.91,0,0,1-1.92-2.45m7.48,9.4a55.32,55.32,0,0,1-9.28-10.45.3.3,0,0,0,0-.16c-.22-.46-.42-.91-.62-1.37a16.28,16.28,0,0,0,1.35,1.52,8.62,8.62,0,0,0,1.87,3.13,39.67,39.67,0,0,0,3.79,3.77c1.12,1,2.21,2.12,3.32,3.18.32.48.63,1,.91,1.48L24,122.07M8.76,100.31c-.12-.31-.24-.62-.35-.93a.24.24,0,0,0,0-.34c-.12-.17-.23-.35-.35-.53-.3-.86-.57-1.73-.83-2.6a.3.3,0,0,0,.33-.18c0,.23.06.45.1.67a.26.26,0,0,0,.24.23c.72,2.08,1.71,4.07,2.6,6.08s1.58,4,2.37,6.05a55.08,55.08,0,0,1-4.14-8.45M5.5,87.77,5.23,85a.32.32,0,0,0-.12-.22c-.11-1.13-.18-2.26-.23-3.39.2.74.46,1.46.7,2.18.2,1.76.42,3.51.55,5.25,0,.39.63.41.61,0,0,0,0-.09,0-.13.25,1.73.42,3.47.62,5.2a.3.3,0,0,0-.12.31c.1.43.21.85.33,1.27v0a49.12,49.12,0,0,1-2-7.7m-.37-9.23c0,.68.08,1.35.14,2a6.91,6.91,0,0,1-.14-2M2.3,72.05c.19-.64.39-1.28.59-1.92a.36.36,0,0,1,0,.1c-.17,1.47-.3,2.94-.39,4.42a.32.32,0,0,0-.27,0c0-.88,0-1.76,0-2.65M22.7,26.61a.31.31,0,0,0,.44-.07,39.82,39.82,0,0,1,6.21-6.37c-.86.93-1.68,1.9-2.45,2.9l0,0a75.79,75.79,0,0,0-9.8,11.2,69.44,69.44,0,0,1,5.62-7.69M38.9,17c-1.91,1.29-3.8,2.62-5.69,3.94A64,64,0,0,1,38.9,17m-1.47-3.19a1.44,1.44,0,0,0,.56.45c-.76.59-1.51,1.2-2.24,1.83A65.07,65.07,0,0,0,30,20.37a54.5,54.5,0,0,1,7.44-6.56M48.6,11.06a.26.26,0,0,0-.11-.41l1-.32c-.18.21-.35.43-.52.65l-.39.09h0m2-1.08.87-.26-.6.76-.92.25c.21-.25.43-.51.65-.75m1.89-.56.78-.21c-.18.23-.35.48-.53.72l-.87.26.62-.77M54.28,9h0l1.54-.4a40.44,40.44,0,0,1,4.73-.85C58.25,8.2,56,8.93,53.74,9.63c.18-.23.35-.46.54-.68M74.09,5.39c.57.07,1.14.14,1.71.24l.43.11c1.23.31,2.43.71,3.63,1.12.39.13.78.28,1.16.42Q78.2,6.47,75.3,5.91c-1.07-.2-2.15-.38-3.23-.52a13.58,13.58,0,0,1,2,0M90.4,13.32l.73.32a13.64,13.64,0,0,1-1.4-.49l.67.17m43.5,31.5c0,.21.07.42.1.63l-.05-.08c-.69-1.25-1.41-2.47-2.15-3.69.11.16.21.33.31.49.21.34.74,0,.53-.29a83.4,83.4,0,0,0-9.92-13.14c-.27-.29-.7.14-.43.43A79.76,79.76,0,0,1,130,38.93a.37.37,0,0,0-.34,0l-.93-1.64a.3.3,0,0,0-.53.3L129,39q-1.71-2-3.53-3.84a30.31,30.31,0,0,1-3.08-4.58.3.3,0,0,0-.53.3c.31.58.65,1.15,1,1.7-.79-.76-1.6-1.51-2.42-2.25l.61.46c.3.25.74-.18.43-.42a25.77,25.77,0,0,0-3.8-2.47q-3.9-3.3-8.06-6.27a.26.26,0,0,0,0-.15c1,.4,2,.83,2.92,1.31a.33.33,0,0,0,.06.47c2.79,2.05,6,3.57,8.35,6.2.26.29.69-.13.43-.43a24.45,24.45,0,0,0-5.25-4.14.27.27,0,0,0,.07-.46,26.77,26.77,0,0,0-7.4-3.9,14.33,14.33,0,0,0-3.28-2.27,17,17,0,0,0-5.38-3.21c-.2-.18-.39-.36-.58-.56a.3.3,0,0,0-.51.14l-.3-.12C96.12,12.75,93.45,11.1,91,9.18c.57.25,1.13.51,1.69.78a31.85,31.85,0,0,1,7.43,4.56c.29.26.73-.17.43-.43A33.11,33.11,0,0,0,93,9.43c-1.2-.58-2.43-1.12-3.67-1.63L89,7.55a.29.29,0,0,0-.39,0c-1.21-.48-2.44-.92-3.68-1.31-.37-.12-.54.47-.16.59,1.42.45,2.83,1,4.22,1.53a61.15,61.15,0,0,0,6.19,4.55c-1.67-.85-3.38-1.65-5.1-2.38a1.45,1.45,0,0,1,0-.47c0-.39-.57-.4-.61,0v.2c-1.18-.49-2.37-1-3.57-1.39a32.15,32.15,0,0,0-3-1.44A19.69,19.69,0,0,0,75.72,5h-.07A4.34,4.34,0,0,1,74,4.18c-.29-.25-.73.17-.43.43l.18.14c-.51,0-1-.06-1.55,0-1.18,0-3,.29-3.84-.66-.27-.29-.71.14-.44.43a2.64,2.64,0,0,0,.86.59,47.26,47.26,0,0,0-7,0A64.53,64.53,0,0,0,45.92,9c-2.74.95-5.44,2-8.11,3.16a1,1,0,0,0-.63,1.13l-1,.76a.27.27,0,0,0-.1.06c-4.54,3.6-9.36,7-13,11.57a.26.26,0,0,0-.37,0,78.91,78.91,0,0,0-7.51,10.44,21.64,21.64,0,0,1,3.87-6.19c.28-.27-.15-.71-.43-.44-2.18,2.13-3.31,5.18-4.7,7.84-1.54,2.94-3.27,5.79-5,8.59a31.67,31.67,0,0,1,4.32-8.57c.24-.31-.29-.63-.52-.32C9.49,41.22,8.1,46.49,6.32,51.36c-.14.37.45.54.59.17C7.47,50,8,48.43,8.54,46.87a.3.3,0,0,0,.48,0c1.52-2.37,3-4.76,4.36-7.22a.41.41,0,0,0,.18,0A81.82,81.82,0,0,0,8,50.73c-.2.5-.41,1-.6,1.52-.13-.2-.49-.23-.55.06-.22,1-.42,2-.58,3.08l-.18.53a.28.28,0,0,0-.11.22,1.36,1.36,0,0,0,0,.2c-.22.66-.42,1.33-.62,2-.06-.28-.51-.36-.58,0a43.25,43.25,0,0,0-1.19,7.56c0,.22-.08.43-.11.64-.17.49-.33,1-.5,1.46-.16-.28-.66-.14-.56.21s.16.53.23.8L2.3,70v-.06c0-.4-.62-.42-.61,0q0,1,0,2.07V72a.27.27,0,0,0,0,.2c0,1.21,0,2.43-.09,3.65a.31.31,0,0,0,.61,0,2.71,2.71,0,0,1,0-.29c0,.57.12,1.13.21,1.7,0,2.23,0,4.46.2,6.67A38.76,38.76,0,0,1,1.08,71.05c0-.39-.58-.41-.61,0A42.37,42.37,0,0,0,3,87.17a60.57,60.57,0,0,0,4.81,17.08,56.7,56.7,0,0,0,4.41,8,.27.27,0,0,0,0,.35c3.16,5.62,8.08,10.18,13,14.23a.32.32,0,0,0,.53-.28,56.66,56.66,0,0,0,5.9,3.83.33.33,0,0,0,.06.34c5.41,5.37,13.18,6.73,19.52,10.6a.3.3,0,0,0,.31-.52c-5.93-3.62-13.14-5-18.44-9.62a60.83,60.83,0,0,0,9.67,4.06.26.26,0,0,0,0,.39c2.25,1.91,5.21,1.87,8,1.63,1.59.3,3.18.55,4.79.74v0a.31.31,0,0,0,.58,0c12.91,1.42,26.21-.59,38.4-4.75a98.8,98.8,0,0,0,22.31-10.84q2.11-1.38,4.14-2.88a.35.35,0,0,0,.14,0,11.31,11.31,0,0,0,3.19-2.35c1.16-1.08,2.3-2.16,3.48-3.21s2.24-2.06,3.35-3.1a.31.31,0,0,0,.45,0,55.05,55.05,0,0,0,6.64-7.26c.25-.31-.18-.75-.42-.44-.61.76-1.23,1.51-1.86,2.26a.3.3,0,0,0-.1.07l-.44.42h0c2.52-3.32,4.15-7.23,6.67-10.56.24-.31-.29-.62-.52-.31a36,36,0,0,0-2.38,3.63c.35-.7.68-1.41,1-2.13a46,46,0,0,1,3.27-4.71c.24-.3-.18-.74-.43-.44-.59.72-1.13,1.47-1.66,2.23a49.33,49.33,0,0,0,2.86-12.61,52.08,52.08,0,0,0-4.06-24.51,58.41,58.41,0,0,0-5.22-9.78,20.1,20.1,0,0,1-.39-2.08c-.05-.39-.65-.24-.6.14"/>
  <path class="a" d="M51.19,10.1c-2.9,1.44-5.92,2.59-8.79,4.08-.35.19,0,.72.3.53,2.87-1.49,5.9-2.64,8.8-4.08.35-.18,0-.71-.31-.53"/>
  <path class="b" d="M111.4,75.26c-.56.65-2.78,2.34-3.71,1.36a1.5,1.5,0,0,0-.4-.29,33,33,0,0,0-.16-7.62l.25,0a4.49,4.49,0,0,1,5,3.45,3.91,3.91,0,0,1-1,3.12m-12.25,15c-8.67,11.84-24.11,15.79-38.08,13-7.06-1.43-14.35-4.36-19.1-10-4.45-5.3-6.31-12.45-6-19.27.37-8.32,3.92-16.18,8.54-23C48.78,44.7,55,39.26,62.71,38.28c17.65-2,27.82,5.22,35.55,16s8.87,25.11.89,36m-65.94-12c-1.84-.19-2.47-2.83-2.47-4.54a21.18,21.18,0,0,1,.19-2.75,6.58,6.58,0,0,1,.25-1.45,13.85,13.85,0,0,1,1.48-2.17,1.44,1.44,0,0,0,1.1,1.18,36.54,36.54,0,0,0-.55,9.73m73.42-12.29a35.49,35.49,0,0,0-2.37-7C96.83,42.69,78.67,31,62,34.76A31.39,31.39,0,0,0,45,45.48,54.75,54.75,0,0,0,34.49,65.31,3.78,3.78,0,0,0,32.08,65c-2.68.53-3.7,3.13-4,5.55-.32,2.71-.57,5.87,1.09,8.22a5.36,5.36,0,0,0,4.38,2.33,31.09,31.09,0,0,0,2.23,7.5c3.12,7,8.92,11.91,16,14.79,14.69,6,32.72,4.75,44.83-6.08a32.15,32.15,0,0,0,10.24-17.8c3.4,1.63,8-2.76,8.42-6,.61-4.83-4.14-8.32-8.62-7.57"/>
  <path class="b" d="M90.85,56A14.82,14.82,0,0,1,89,59.75c-.79,1.12-1.31,2.42-1.87.9s-.06-2.4-1.22-3.62a1.45,1.45,0,0,0-1.74-.23,56.3,56.3,0,0,1-7.74,4.47,17,17,0,0,0,.42-4.13A1.44,1.44,0,0,0,74.7,55.9c-3.33,2-7.75,5.59-11.91,6.26A24.39,24.39,0,0,0,64.11,57a1.45,1.45,0,0,0-2.4-1.39,16.31,16.31,0,0,1-10.39,4.09c1.36-1.59,2.66-3.24,3.88-5,1.07-1.5-1.42-2.93-2.48-1.44a62.42,62.42,0,0,1-5.43,6.6c-.65.7-.5,2.24.64,2.39a19.41,19.41,0,0,0,12.62-2.38,20.91,20.91,0,0,1-1.17,3,1.46,1.46,0,0,0,1.24,2.16c4.56.6,9.2-2.64,13.19-5.24a14,14,0,0,1-.94,3.26c-.42,1,.31,2.63,1.62,2.1a58.71,58.71,0,0,0,9.87-5.1c.21,1.1,0,2.52.7,3.43a2.68,2.68,0,0,0,2.64,1.12c3-.56,5.06-5.42,5.92-7.89.6-1.75-2.17-2.5-2.77-.76"/>
  <path class="b" d="M60.22,69.34a3.76,3.76,0,0,0-4.34.56C54.47,71.3,54.8,74,57,74.2a1.07,1.07,0,0,0,.4,0,2.82,2.82,0,0,0,3-.34,2.7,2.7,0,0,0-.23-4.47"/>
  <path class="b" d="M84.8,71.87c0-.05,0-.1,0-.15a2.23,2.23,0,0,1,0-.23,1.36,1.36,0,0,0-.61-.81A2.32,2.32,0,0,0,82.28,70l-.14-.11a1.46,1.46,0,0,0-2,.52c-1,1.56-.93,4.86,1.5,4.92a3,3,0,0,0,2.29-1,2.27,2.27,0,0,0,.83-2.39"/>
  <path class="b" d="M60.44,93.21a17.86,17.86,0,0,1,21.79-.33c1.49,1.1,2.92-1.38,1.45-2.47a20.72,20.72,0,0,0-25.27.77c-1.43,1.17.61,3.18,2,2"/>
</svg>
