<svg xmlns="http://www.w3.org/2000/svg" viewBox="0 0 145 145">
  <defs>
    <style>
      .a {
        fill: #e54d59;
      }

      .b {
        fill: #fff;
      }
    </style>
  </defs>
  <path class="a" d="M139.25,92.62a.27.27,0,0,0,.11.26A45.82,45.82,0,0,1,137,98.47c.78-2.47,1.51-5,2.47-7.37-.06.51-.13,1-.19,1.52M132,110.19c.72-.82,1.41-1.67,2.07-2.54a.33.33,0,0,0,.51.19c-.85.79-1.71,1.57-2.58,2.35m-15.65,10.24,1.33-1.08a9.2,9.2,0,0,0,1.87-1.27c.43-.33.83-.68,1.24-1A32.78,32.78,0,0,0,125.6,113l1.49-1.1a69.28,69.28,0,0,1-10.74,8.55M84.41,133.82a49.38,49.38,0,0,0-7.59,1.08l5.07-1.11c2.3-.51,4.61-1,6.94-1.42.79-.14,1.58-.27,2.38-.35h0q-3.37,1-6.83,1.79m-42.33,1.06c.67.22,1.33.44,2,.64q1.39.42,2.82.78a8.16,8.16,0,0,1-4.83-1.42M25.36,123.07h0c-.13-.29-.27-.57-.41-.85.11.11.22.23.34.34l.72,1-.65-.51M15.7,111.39c.88.87,1.77,1.72,2.55,2.65.91,1.11,1.85,2.21,2.75,3.33-1.17-1.14-2.35-2.26-3.44-3.48a12.5,12.5,0,0,1-1.86-2.5M22.93,121a55.64,55.64,0,0,1-9-10.69.31.31,0,0,0,0-.16c-.2-.46-.39-.92-.58-1.39a15,15,0,0,0,1.31,1.56,8.55,8.55,0,0,0,1.78,3.18,40.87,40.87,0,0,0,3.69,3.87c1.1,1.07,2.16,2.18,3.24,3.26q.46.73.87,1.5L22.93,121M8.24,98.83c-.11-.31-.22-.62-.32-.94a.24.24,0,0,0,0-.34q-.18-.27-.33-.54c-.28-.87-.54-1.74-.77-2.62a.32.32,0,0,0,.34-.16c0,.22,0,.44.08.66a.25.25,0,0,0,.23.24c.67,2.1,1.61,4.11,2.44,6.15s1.48,4.07,2.21,6.11a56.5,56.5,0,0,1-3.92-8.56M5.32,86.2c-.07-.94-.13-1.88-.21-2.82A.3.3,0,0,0,5,83.16c-.08-1.13-.12-2.26-.14-3.39.19.74.42,1.47.65,2.2.15,1.75.32,3.51.4,5.26,0,.39.63.42.61,0a.57.57,0,0,0,0-.13c.2,1.73.33,3.48.49,5.21a.29.29,0,0,0-.13.31c.08.43.18.86.29,1.28v0A48.81,48.81,0,0,1,5.32,86.2M5.18,77c0,.67.05,1.34.09,2a6.9,6.9,0,0,1-.09-2M2.53,70.41c.2-.63.42-1.27.64-1.91a.43.43,0,0,0,0,.11Q2.86,70.8,2.68,73a.31.31,0,0,0-.28,0c.06-.88.1-1.76.13-2.65M24.1,25.52a.32.32,0,0,0,.45-.06,39.74,39.74,0,0,1,6.37-6.2c-.88.91-1.72,1.85-2.52,2.84l0,0A75.3,75.3,0,0,0,18.29,33.06a68.69,68.69,0,0,1,5.81-7.54m16.46-9.19c-2,1.25-3.87,2.52-5.8,3.8a65.72,65.72,0,0,1,5.8-3.8m-1.39-3.22a1.47,1.47,0,0,0,.55.47c-.78.56-1.54,1.16-2.29,1.76a66.59,66.59,0,0,0-5.87,4.13,55.06,55.06,0,0,1,7.61-6.36m11.24-2.46a.26.26,0,0,0-.1-.4c.34-.11.69-.2,1-.3-.19.2-.37.42-.54.63l-.39.08h0m2.06-1,.87-.23-.62.75-.93.22c.22-.25.45-.5.68-.74m1.9-.5.79-.2-.55.71-.88.24.64-.75m1.77-.43h0l1.55-.36a40.67,40.67,0,0,1,4.75-.72c-2.32.44-4.59,1.11-6.87,1.76.18-.23.37-.45.56-.67m19.9-3c.56.08,1.13.18,1.7.28l.43.13c1.21.34,2.41.77,3.6,1.21l1.15.45c-1.87-.58-3.77-1.1-5.69-1.52C76.17,6,75.09,5.77,74,5.6a14.59,14.59,0,0,1,2,.05M92.14,14l.72.35c-.48-.16-.94-.33-1.39-.53l.67.18M134.8,46.64c0,.21,0,.42.08.62a.22.22,0,0,1,0-.08c-.66-1.26-1.34-2.51-2.05-3.74l.3.5c.2.34.74.06.54-.28A84.78,84.78,0,0,0,124,30.27c-.26-.29-.71.12-.44.42a79.53,79.53,0,0,1,7.46,10,.34.34,0,0,0-.34,0c-.3-.55-.6-1.11-.89-1.67a.31.31,0,0,0-.54.29c.24.46.49.92.74,1.38-1.1-1.34-2.25-2.65-3.43-3.93a30,30,0,0,1-3-4.65.3.3,0,0,0-.54.28c.3.59.62,1.17,1,1.73-.77-.78-1.56-1.55-2.36-2.31q.3.23.6.48c.29.25.74-.17.44-.42A25.76,25.76,0,0,0,119,29.31q-3.81-3.4-7.89-6.48a.26.26,0,0,0,0-.15A32,32,0,0,1,114,24.06a.34.34,0,0,0,0,.48c2.73,2.12,5.92,3.72,8.18,6.41.25.3.7-.12.44-.42a24.28,24.28,0,0,0-5.14-4.28.27.27,0,0,0,.08-.46,27,27,0,0,0-7.29-4.09,14.39,14.39,0,0,0-3.22-2.35A17.14,17.14,0,0,0,101.79,16a6.25,6.25,0,0,1-.57-.58.3.3,0,0,0-.51.13l-.3-.12c-2.54-1.84-5.17-3.56-7.58-5.54.55.26,1.11.53,1.66.81a31.85,31.85,0,0,1,7.3,4.76c.29.27.74-.15.45-.41a32.87,32.87,0,0,0-7.42-4.86c-1.19-.62-2.4-1.19-3.63-1.73L90.9,8.2a.31.31,0,0,0-.4,0c-1.2-.51-2.41-1-3.64-1.4-.37-.13-.55.45-.18.58,1.42.49,2.81,1,4.19,1.64a58.52,58.52,0,0,0,6.06,4.71q-2.48-1.33-5-2.51a1.22,1.22,0,0,1,0-.47c0-.39-.56-.42-.61,0,0,.07,0,.14,0,.21-1.16-.53-2.34-1-3.52-1.49-1-.55-1.92-1.06-2.92-1.52a20.15,20.15,0,0,0-7.14-2.58h-.06A4.4,4.4,0,0,1,76,4.44c-.29-.26-.73.15-.44.42l.18.15a13.47,13.47,0,0,0-1.56-.09c-1.17,0-3,.21-3.82-.77-.26-.29-.71.12-.44.42a2.55,2.55,0,0,0,.84.62,47.4,47.4,0,0,0-7-.15,64.7,64.7,0,0,0-15.9,3.44c-2.77.88-5.5,1.88-8.2,2.95a1,1,0,0,0-.66,1.11l-1,.74a.27.27,0,0,0-.11.05c-4.63,3.48-9.53,6.75-13.28,11.23a.26.26,0,0,0-.37,0,76.7,76.7,0,0,0-7.78,10.24,21.5,21.5,0,0,1,4-6.09c.29-.26-.13-.71-.41-.45-2.24,2.08-3.45,5.09-4.91,7.71-1.62,2.91-3.42,5.71-5.28,8.46A32.06,32.06,0,0,1,14.33,36c.25-.31-.27-.64-.51-.33C10.52,39.78,9,45,7.09,49.83c-.15.37.43.55.58.19C8.27,48.5,8.83,47,9.42,45.4a.31.31,0,0,0,.49,0c1.57-2.32,3.1-4.68,4.54-7.09a.3.3,0,0,0,.18,0A81.79,81.79,0,0,0,8.79,49.24c-.23.5-.44,1-.65,1.51a.3.3,0,0,0-.55,0q-.37,1.52-.66,3.06c-.07.17-.13.35-.19.52a.32.32,0,0,0-.12.22l0,.2q-.34,1-.66,2c-.06-.28-.51-.38-.59-.05A43.17,43.17,0,0,0,4,64.26c0,.21-.09.42-.13.64-.18.48-.36,1-.53,1.44-.16-.29-.67-.16-.57.2s.14.53.2.8c-.12.33-.23.66-.35,1v-.07a.31.31,0,0,0-.61,0c0,.69,0,1.38-.05,2.07,0,0,0,0,0,0a.28.28,0,0,0,0,.2c0,1.22-.1,2.44-.19,3.65a.31.31,0,0,0,.61,0c0-.09,0-.19,0-.29,0,.58.09,1.14.17,1.71a64.7,64.7,0,0,0,0,6.68,38.55,38.55,0,0,1-1.22-13c0-.39-.57-.42-.61,0a42.7,42.7,0,0,0,2.09,16.2,60.54,60.54,0,0,0,4.36,17.19,57.87,57.87,0,0,0,4.2,8.08.28.28,0,0,0-.06.35c3,5.69,7.81,10.38,12.63,14.56a.33.33,0,0,0,.54-.26,55.52,55.52,0,0,0,5.79,4,.29.29,0,0,0,.05.33c5.27,5.52,13,7.08,19.24,11.12a.31.31,0,0,0,.32-.52c-5.83-3.77-13-5.36-18.18-10.1a60.43,60.43,0,0,0,9.56,4.32.25.25,0,0,0,0,.39c2.19,2,5.16,2,7.93,1.84,1.58.34,3.17.63,4.77.86v0a.31.31,0,0,0,.58.05c12.87,1.77,26.22.1,38.51-3.73a99,99,0,0,0,22.59-10.26c1.43-.88,2.84-1.81,4.21-2.77l.14,0a11.35,11.35,0,0,0,3.26-2.28c1.18-1,2.35-2.09,3.55-3.12s2.3-2,3.44-3a.3.3,0,0,0,.44,0,54.59,54.59,0,0,0,6.84-7.09c.25-.29-.17-.75-.42-.45-.63.75-1.26,1.49-1.91,2.22a.3.3,0,0,0-.11.06l-.45.41h0c2.61-3.26,4.34-7.12,6.95-10.37.25-.31-.27-.64-.52-.33a38.23,38.23,0,0,0-2.47,3.56c.37-.69.72-1.39,1.06-2.1a43.83,43.83,0,0,1,3.39-4.62c.25-.3-.16-.75-.42-.45-.6.7-1.17,1.43-1.71,2.18a49.81,49.81,0,0,0,3.18-12.53,52.1,52.1,0,0,0-3.41-24.6,59,59,0,0,0-5-9.92c-.14-.69-.26-1.38-.34-2.09,0-.39-.63-.26-.59.13"/>
  <path class="a" d="M56.28,9.05c-2.9,1.45-5.93,2.6-8.8,4.09-.35.18,0,.71.31.53,2.87-1.49,5.9-2.64,8.79-4.09.35-.17.05-.7-.3-.53"/>
  <path class="b" d="M97.19,102.45H93.72a203,203,0,0,0-.36-21.92c-.25-4-.36-18.76-.34-22,2,0,2.1,0,4.08-.14,1,14.72-.74,28.57.09,44.12m-10.5,0H84a1.33,1.33,0,0,0-.3-.23c-.49-1.09-.14-4.48-.14-5.34,0-2.81.24-5.59.46-8.38.55-6.93-1.24-13.85-.41-20.75,1.08.11,2.17.2,3.25.25-.07,6.3-.95,29.27-.19,34.45m-12.86-.21h0c0-7.2-.33-14.39-.39-21.59a11.52,11.52,0,0,0,3.3-.35c0,7.35.87,14.67,1,22l-3.91-.08m-10.62.21a1.55,1.55,0,0,0,.17-.54c.61-5.31-.76-10.8-1-16.09-.12-3.14.36-6.79-.24-10l.69,0c1-.08,2.08-.29,3.12-.4.84,3.87.22,8.33.51,12.19.37,5,.84,9.93.93,14.91l-4.21,0m-7.48-1.91c0,.5-.07,1.1,0,1.69h-3c0-4.32-.41-8.63-.44-12.94,0-2.43-.12-5-.2-7.7a13.5,13.5,0,0,1,1.81,0q.66,0,1.32.06a122.24,122.24,0,0,0,.45,13.52,41.21,41.21,0,0,1,.14,5.33M112.52,103c-.14-.19-5.84-2.5-8.43-3.62-1.45-.63-2.72,1.51-1.25,2.15.87.38,1.74.78,2.6,1.17-.67,0-5.2-.22-5.75-.22-.3-15.55,1.09-30.28-.2-45.43a1.26,1.26,0,0,0-1.25-1.24c-2.76.18-3.66.21-6.43.21a1.26,1.26,0,0,0-1.25,1.24c-.17,3.27,1,37.49.67,45.2h-2c-.36-6.61.14-11.63.21-17.34.1-7.32,0-12.18,0-18.3,0,0-.57-1.23-1.25-1.25-1.87,0-3.73-.21-5.6-.41-.73-.08-1.17.63-1.24,1.24-1.16,9.41-.07,19.08-.2,28.57,0,1.06-.38,5,.21,7.5-.26,0-1-.09-1.07-.09-.15-7.86-1-23.82-1.08-24a1.42,1.42,0,0,0-.19-.52c-.23-.41-4.55.47-6,.19-1.21.12-2-.22-2,1,0,7.34.21,22.82.37,23.19H69.91c-.11-5.25-.62-10.48-1-15.7-.31-4.12,0-13.74-1-13.72-1.28,0-6.7.52-6.47.54-1.29.21-2-.1-2.07.9-.09.22.42,8.2.52,11.57.14,5,.42,16.08.9,16.59-.31,0-2.08-.18-2.73-.18-.13-.81,0-22.69-1-22.93-.38-.25-5.35-.45-7.17.33a1,1,0,0,0-.61.64c-.24.35.26,7.53.41,10.19.21,3.92.38,7.85.41,11.78-.92,0-4,.1-4.84.1.68-2.17.2-4.9.09-7C45.09,88.94,44.55,72.8,45,72c0-.06-.46-19.57-.55-29.28a26.74,26.74,0,0,0,4.07,6.14c1.11,1.16,2.87-.6,1.76-1.76C47.59,44.29,44.1,37,43.88,36.81a1.21,1.21,0,0,0-1.18-.41,1.16,1.16,0,0,0-1.44,1.17c.05,2-.89,4.12-1.61,6-.53,1.32-1.43,3.62-2.76,4.39a1.25,1.25,0,0,0,1.26,2.15C40,49,41.86,44,41.94,43.85c.11,9.34.39,19.31.63,28.66.15,5.89.28,11.79.33,17.69,0,2.11.8,11-.45,12.27a1.27,1.27,0,0,0,1,2.13s4.42.07,4.42.07H59.26s20.53,0,20.88,0c0,0,6.84.21,10.32.17,0,0,14.54.08,15.16.09-.26.14-2.33,1.22-2.57,1.37-1.36.86-.11,3,1.25,2.15,2.1-1.33,7.89-3.1,8.08-3.43a1.28,1.28,0,0,0,.14-2.06"/>
  <path class="b" d="M64.28,58.83c-.06-.14-.11-.14,0,0"/>
  <path class="b" d="M97.65,41.13a1.24,1.24,0,0,0-1.53-.87c-1.17.47-4.26.8-4.46.93h0c-1.54.37,1,2.57,1.21,2.67C91.94,45,90.58,46,89.71,47a80.65,80.65,0,0,0-5.39,6.15c-1.88,2.48-9.76,10.52-11.63,12.3-.4-.24-6.23-4.68-7.17-5.48-.33-.28-1.19-1.07-1.24-1.13s0,.13,0,.12c-.42-1.12-2.39.55-2.39.6A14.84,14.84,0,0,0,60.74,61c-1.36,1.77-7.33,7.85-8.67,9.34-1.18,1.32-2.81,2.41-3.7,3.94a1.25,1.25,0,0,0,2.15,1.26c.74-1.28,2.32-2.35,3.31-3.44,1.36-1.48,6.39-6.86,7.6-8,.77-.74,1.28-1.78,2-2.57,1,.91,5.73,4.62,7.07,5.54a5.36,5.36,0,0,0,2.58,1.24,1.08,1.08,0,0,0,1.16-.84c3.79-3.67,15-16.23,17.21-18.64,1-1.1,2.46-2.25,3.47-3.53l1,.86A1.3,1.3,0,0,0,97.75,46c.42-.25,0-4.5-.1-4.87"/>
</svg>
