<svg xmlns="http://www.w3.org/2000/svg" viewBox="0 0 145 145">
  <defs>
    <style>
      .a {
        fill: #ffc40c;
      }

      .b {
        fill: #fff;
      }
    </style>
  </defs>
  <path class="a" d="M5,76a.3.3,0,0,0-.18-.22,47.15,47.15,0,0,1,.6-6c0,2.59.06,5.19-.15,7.76Q5.11,76.7,5,76M6.59,57c-.43,1-.84,2-1.21,3.05a.34.34,0,0,0-.55,0c.59-1,1.17-2,1.76-3M18.44,42.54,17.5,44a9.22,9.22,0,0,0-1.41,1.77c-.3.45-.59.9-.86,1.36a31.11,31.11,0,0,0-3.37,5.33c-.36.5-.72,1-1.09,1.49a70.25,70.25,0,0,1,7.67-11.38M44.88,20.16a49.34,49.34,0,0,0,6.92-3.31l-4.51,2.59c-2,1.17-4.1,2.35-6.19,3.44-.71.37-1.43.73-2.17,1h0c1.94-1.31,3.94-2.57,6-3.76M84.93,6.43c-.7,0-1.41,0-2.11,0-1,0-1.95,0-2.92.11a8,8,0,0,1,5-.1m19.5,6.23h0c.21.24.43.46.64.69l-.42-.22-1-.77.78.29m12.72,8.24c-1.09-.57-2.21-1.11-3.23-1.77-1.2-.78-2.43-1.54-3.62-2.35,1.45.75,2.92,1.46,4.33,2.29a12.94,12.94,0,0,1,2.52,1.83m-9.78-7a55.17,55.17,0,0,1,11.8,7.49.37.37,0,0,0,.08.15c.33.37.65.76,1,1.14a16,16,0,0,0-1.71-1.09,8.67,8.67,0,0,0-2.66-2.49,39.41,39.41,0,0,0-4.68-2.58c-1.37-.69-2.71-1.43-4.07-2.14-.44-.38-.87-.76-1.28-1.17l1.56.69M128,30.63c.2.26.4.53.59.8a.25.25,0,0,0,.06.34c.17.13.33.27.48.41.53.75,1,1.5,1.52,2.27a.3.3,0,0,0-.27.26c-.09-.21-.18-.41-.28-.62a.26.26,0,0,0-.29-.15c-1.27-1.8-2.77-3.44-4.17-5.13s-2.64-3.44-4-5.16a55.63,55.63,0,0,1,6.31,7m6.59,11.16c.34.88.69,1.76,1,2.63a.3.3,0,0,0,.17.18c.42,1.06.8,2.12,1.16,3.2-.4-.65-.85-1.28-1.28-1.91-.68-1.63-1.37-3.25-2-4.89-.13-.37-.73-.22-.59.15a.61.61,0,0,0,.05.12c-.72-1.59-1.36-3.22-2-4.83a.3.3,0,0,0,0-.33c-.21-.38-.43-.76-.67-1.13v0a50.15,50.15,0,0,1,4.09,6.83m2.9,8.77c-.22-.64-.45-1.28-.7-1.91a6.58,6.58,0,0,1,.7,1.91M142,56c0,.67,0,1.35,0,2l-.05-.09c-.24-1.47-.52-2.92-.85-4.36a.34.34,0,0,0,.26-.12c.21.85.44,1.7.67,2.55M135,105.32a.32.32,0,0,0-.41.19,39.9,39.9,0,0,1-4.21,7.83c.57-1.13,1.09-2.29,1.55-3.46a.08.08,0,0,0,0,0,75.16,75.16,0,0,0,6.33-13.46,69.27,69.27,0,0,1-3.27,8.94M122,119c1.48-1.78,2.93-3.57,4.38-5.37A62.55,62.55,0,0,1,122,119m2.29,2.65a1.56,1.56,0,0,0-.66-.28q.86-1.16,1.65-2.37a67,67,0,0,0,4.35-5.7,54.29,54.29,0,0,1-5.34,8.35m-10,5.73a.26.26,0,0,0,.22.36l-.89.59c.11-.25.22-.51.32-.77l.35-.19h0m-1.66,1.6-.76.49.37-.9c.27-.17.54-.34.82-.5-.14.31-.28.61-.43.91M111,130.06c-.22.15-.46.29-.69.43.11-.28.21-.56.31-.85l.77-.49c-.13.31-.25.61-.39.91m-1.55.94v0c-.46.27-.91.54-1.38.8a38.25,38.25,0,0,1-4.31,2.12c2.08-1.12,4-2.44,6-3.74-.1.27-.21.54-.32.8M91.4,139.88c-.56.1-1.13.18-1.7.25h-.45c-1.27,0-2.54,0-3.8-.08L84.22,140c2,0,3.92-.08,5.87-.26,1.09-.1,2.18-.23,3.26-.39a12.71,12.71,0,0,1-1.95.55m-17.86-3.12-.8-.11a12.29,12.29,0,0,1,1.49.09l-.69,0M23,118.46l-.27-.57.08.06c1,1,2,2,3.07,3l-.43-.39c-.29-.26-.73.17-.43.43a84,84,0,0,0,13.16,9.89c.33.2.63-.33.3-.53a78.71,78.71,0,0,1-10.12-7.26.31.31,0,0,0,.31-.14l1.35,1.32a.3.3,0,0,0,.43-.43l-1.12-1.1c1.46,1,2.95,1.85,4.46,2.72A31.61,31.61,0,0,1,38.05,129c.27.28.7-.15.43-.43-.47-.48-.95-.93-1.44-1.37,1,.52,2,1,3,1.5l-.71-.28c-.36-.15-.67.38-.3.53a24.89,24.89,0,0,0,4.33,1.32q4.66,2.1,9.48,3.81a.35.35,0,0,0,.06.14c-1.07-.11-2.13-.25-3.17-.46a.32.32,0,0,0-.19-.43c-3.24-1.2-6.77-1.78-9.73-3.66-.33-.21-.63.32-.3.53a24.68,24.68,0,0,0,6.2,2.54.26.26,0,0,0,.05.46,27.14,27.14,0,0,0,8.19,1.71,13.86,13.86,0,0,0,3.77,1.27,17,17,0,0,0,6.06,1.61c.24.11.48.24.72.38a.31.31,0,0,0,.45-.27l.32,0c3,1,6,1.84,8.9,3-.62-.08-1.23-.17-1.84-.27a32.51,32.51,0,0,1-8.39-2.34c-.36-.17-.66.36-.3.52a32.81,32.81,0,0,0,8.54,2.41c1.32.22,2.64.41,4,.55l.35.16a.3.3,0,0,0,.39-.09c1.29.13,2.59.21,3.89.25.4,0,.39-.6,0-.62-1.5,0-3-.14-4.49-.3a59.82,59.82,0,0,0-7.2-2.67c1.85.35,3.7.65,5.56.88a1.29,1.29,0,0,1,.16.44c.07.39.66.23.59-.15a1.18,1.18,0,0,0,0-.2c1.26.14,2.53.26,3.8.35a32.32,32.32,0,0,0,3.24.58,20.15,20.15,0,0,0,7.58.31H90a4.2,4.2,0,0,1,1.81.33c.35.17.66-.36.3-.53l-.22-.09a13.34,13.34,0,0,0,1.51-.38c1.12-.35,2.75-1.09,3.87-.42a.3.3,0,0,0,.3-.53,2.66,2.66,0,0,0-1-.34,46.7,46.7,0,0,0,6.76-2,64.78,64.78,0,0,0,14.14-8.07c2.37-1.67,4.67-3.44,6.92-5.27a1,1,0,0,0,.3-1.26l.76-1a.32.32,0,0,0,.09-.08c3.37-4.71,7.06-9.31,9.29-14.71a.26.26,0,0,0,.35-.13,77.6,77.6,0,0,0,4.33-12.11,21.35,21.35,0,0,1-2,7,.3.3,0,0,0,.53.3c1.51-2.65,1.75-5.89,2.36-8.83.67-3.26,1.55-6.47,2.49-9.65a31.71,31.71,0,0,1-1.8,9.43c-.14.37.45.52.6.16,1.9-4.9,1.79-10.35,2.16-15.53,0-.39-.59-.39-.61,0-.12,1.63-.19,3.28-.29,4.93a.31.31,0,0,0-.45.17c-.81,2.7-1.56,5.4-2.2,8.14a.4.4,0,0,0-.19,0,81.54,81.54,0,0,0,2.29-12.17c.06-.55.12-1.09.17-1.64a.3.3,0,0,0,.51-.21c-.08-1-.17-2.08-.29-3.11,0-.19,0-.38,0-.56a.35.35,0,0,0,0-.25,1.29,1.29,0,0,0,0-.19c0-.7,0-1.39,0-2.09.14.25.6.21.58-.13a43,43,0,0,0-.95-7.6c0-.21,0-.43-.07-.64,0-.51.05-1,.08-1.54.23.23.68-.05.47-.36s-.29-.46-.43-.7c0-.35,0-.71,0-1.06,0,0,0,.05,0,.07.11.38.7.22.59-.15-.2-.67-.39-1.33-.57-2v0a.29.29,0,0,0-.07-.19c-.32-1.17-.63-2.35-.92-3.54a.3.3,0,0,0-.59.15c0,.1.05.19.07.28-.21-.53-.43-1.05-.67-1.57a63.61,63.61,0,0,0-2-6.36,38.52,38.52,0,0,1,5.06,12c.08.39.67.23.59-.15a42.52,42.52,0,0,0-6.86-14.82,60.26,60.26,0,0,0-9.34-15.09,55.86,55.86,0,0,0-6.43-6.44.28.28,0,0,0,0-.35C116.81,15.26,110.83,12.23,105,9.7a.32.32,0,0,0-.43.41,56.77,56.77,0,0,0-6.73-2.06.28.28,0,0,0-.14-.3C91,4.07,83.15,4.9,76,2.94a.3.3,0,0,0-.15.59c6.69,1.84,14,1.2,20.37,4.16A59.67,59.67,0,0,0,85.8,6.45a.27.27,0,0,0-.13-.38c-2.68-1.21-5.52-.35-8.11.64-1.61.15-3.21.35-4.81.61,0,0,0,0,0,0a.31.31,0,0,0-.57.13c-12.81,2.19-25,7.79-35.61,15.14A99.94,99.94,0,0,0,18.1,39.13c-1.1,1.28-2.16,2.58-3.19,3.92l-.12.06a11.13,11.13,0,0,0-2.42,3.15c-.81,1.35-1.62,2.7-2.45,4s-1.6,2.59-2.38,3.9a.31.31,0,0,0-.44.08A55.29,55.29,0,0,0,2.72,63.1c-.15.35.38.66.53.3.38-.9.76-1.79,1.16-2.68l.08-.1.3-.53v0c-1.51,3.89-2,8.09-3.51,12-.14.37.45.52.59.16a35.41,35.41,0,0,0,1.29-4.14c-.14.77-.27,1.54-.38,2.31A43,43,0,0,1,.94,75.86c-.15.35.38.66.53.3.37-.85.69-1.72,1-2.6a49.11,49.11,0,0,0,.74,12.91,51.89,51.89,0,0,0,10.65,22.44,59.23,59.23,0,0,0,7.71,8c.35.62.67,1.24,1,1.89.15.37.68.06.53-.3"/>
  <path class="a" d="M58.15,12.93c-2.89,1.45-5.92,2.6-8.79,4.09-.35.18,0,.71.31.53,2.87-1.49,5.9-2.64,8.79-4.09.35-.17,0-.7-.31-.53"/>
  <path class="b" d="M101.12,32.05c-.71.14,0,.05-.66-.06a3.37,3.37,0,0,0-1.1-.06c-.23,0-.47.18-.7.21.3,0,.25-.06,0-.06S98,32,97.64,32a27.93,27.93,0,0,1-3.42,0,18.14,18.14,0,0,0-4,.16c-.53.05.73,0-.17-.06-.14,0-.29-.05-.44-.06a8.33,8.33,0,0,0-1.12.11c-.4,0,.74.22.08-.11a1.24,1.24,0,0,0-.53-.15,2.49,2.49,0,0,0-1.25.56l1.06-.12c-1.14-.49-2.06-.14-3.24-.11A14.75,14.75,0,0,1,83.12,32a1.51,1.51,0,0,0-.84.1c-.56.24.6.35-.21-.12a1.09,1.09,0,0,0-1.06.11l-.58.36,1.07-.12c-1.51-.81-3.18,0-4.84-.17a12.39,12.39,0,0,0-2.44,0c-.69.06.46-.06-.3-.06l-.7,0c-.34,0-.66,0-1,0S71.41,32,71.05,32s-1.72.1-.63.25a6.17,6.17,0,0,0-1.25-.29,1.49,1.49,0,0,0-.69.13c-.78.42.69.17-.06.06a3.5,3.5,0,0,0-2.51.07c-.45.21-.37.23.24,0h-.3a1.91,1.91,0,0,0-.58-.24,2.61,2.61,0,0,0-1.52.44l1.07-.11A4.36,4.36,0,0,0,63,32c-.3,0-.55.25-.86.24.49,0-.29-.26-.46-.27-.53-.05-1.15.17-1.71.18l-1.79,0c-.66,0,.2.1-.46,0-.27,0-.53-.12-.8-.15a3.57,3.57,0,0,0-1,0c-.71.1.12.17-.53.1-.48-.06-2.19.07-1.13.15a18.91,18.91,0,0,1-2-.29A1.32,1.32,0,0,0,51,33.68a1.64,1.64,0,0,1,.13,1.18c0,.41-.19.81-.23,1.23A15.89,15.89,0,0,0,51,38.46a.83.83,0,0,0,.44.87,2.26,2.26,0,0,0,1.35.23c.38-.06.7-.1-.07-.17.21,0,.45.22.67.21a16.56,16.56,0,0,0,2.34-.23c.67-.15.13-.06-.15-.12.24,0,.44.22.68.27a5.42,5.42,0,0,0,1.27,0c.39,0,.76-.09,1.14-.15.7-.11.24-.13.79.19a1.09,1.09,0,0,0,1.06-.11c.19-.12.38-.24.58-.35L60,39.18a2.19,2.19,0,0,0,1.24.34,6,6,0,0,0,.71-.16c.74-.14-.09,0,.45,0a13.78,13.78,0,0,0,2.49,0c.57,0,0-.13.24-.09s.4.25.62.29a2.33,2.33,0,0,0,.79,0c.49,0,.24-.09.32-.1.25,0,1.55-.11,1-.16s.14.2.3.23a3.32,3.32,0,0,0,.89,0c.42,0,.81-.16,1.22-.21s-.76-.13,0,.12a3.18,3.18,0,0,0,.74.09,13,13,0,0,0,2.58-.2c-.46,0,.62.18.87.2a4.13,4.13,0,0,0,1.36-.11c.79-.22-.49-.27.13,0a1.72,1.72,0,0,0,.67.15c.17,0,.63-.15.2-.16.28,0,.52.22.81.21a3.52,3.52,0,0,0,1-.35s1,.08,1.4,0c.23,0-.33,0,.24,0a4.43,4.43,0,0,1,.63,0,9.14,9.14,0,0,1,1.28,0,7.55,7.55,0,0,0,2.46.16c.22,0,.47-.17.7-.18-.46,0,0,.14.17.14s.46-.07.7-.08.8,0,.36-.08c.44.08.75.36,1.25.34a2.53,2.53,0,0,0,.81-.2c.83-.26-.18-.11,0,0a11,11,0,0,0,2.57.07c1.58.08,3.2,0,4.78-.06,1.2,0,1.33.14,2.72,0,1.23-.09,2.3.37,3.06-1a5.11,5.11,0,0,0,.26-3c-.2-.79-.19.12-.17-.07a9.05,9.05,0,0,0,.12-.91c0-.21-.12-.44-.15-.66,0-.44-.09.16.08-.49.39-1.51-1.7-1.59-2-.32a3.77,3.77,0,0,0-.19,1.59c0,.13.18,1,.18.33,0,.29-.2.54-.18.84s.23.52.27.81c-.08-.57-.11.22-.1.35s.06.48,0,.71c0,.6,0,.09-.17.5l.86-.85c-.16,0-1.26,0-1.94,0-.13,0-.76.14-.21.16-.22,0-.45-.21-.67-.24-.37,0-.79,0-1.16,0a19.38,19.38,0,0,1-2.15.07,7.55,7.55,0,0,0-1.15-.15c-.26,0-1.44.22-.88.2-.73,0-1.55,0-2.28-.06-.27,0-.61-.08-.88-.08a5.47,5.47,0,0,0-.7,0l-.42.21c-.44.2-.36.2.25,0-1.23-.58-3.23-.32-4.5,0-.53.12-.41,0,.14.1-.23-.06-.44-.17-.67-.24a4.86,4.86,0,0,0-1-.11,9.34,9.34,0,0,0-2.42.08c-.36.07-.8.06.07.13-.23,0-.45-.2-.67-.21a3.06,3.06,0,0,0-1.13.15c-.36.16-.78.17.07.23-.21,0-.45-.22-.67-.21s-.31,0-.42,0c-.35,0-.37.07-.06.11l-.42-.2a6.08,6.08,0,0,0-1.22.12c-.08,0-1.27,0-.66,0a5.54,5.54,0,0,0-1.09-.22,3.38,3.38,0,0,0-1.16.29c-.32,0-.67-.13-1-.17-.12,0-.76.06-.21.11-.24,0-.42-.25-.67-.26a4.87,4.87,0,0,0-1,.17,5.23,5.23,0,0,1-.57.06c-.69,0,.4,0-.41-.11-.2,0-.38-.1-.59-.11-.06,0-1.18.24-.46.17a13.89,13.89,0,0,1-1.4.15c1.13.08-.36-.39-.75-.38-.19,0-.36,0-.54.06a3,3,0,0,1-.46,0,14.53,14.53,0,0,0-2.56,0c-.84.19-.08.07-.79,0a2.15,2.15,0,0,0-1.64.47l1.07-.12a3.07,3.07,0,0,0-2.39-.25,14.38,14.38,0,0,1-2.29-.14c-.19,0-.37.17-.56.18.59,0,0-.11-.18-.12a4.82,4.82,0,0,0-1.26.13c-1,.2.93.14-.06.06-.23,0-.43-.12-.67-.13s-.38.14-.56.17.79.23,0-.09c.14.29.29.58.44.88.07-1.39-.25-1.34-.08-2.72a5.79,5.79,0,0,0-.15-3.09l-1.39,1.71a11.18,11.18,0,0,0,1.13.13c.22,0,.37-.06.06-.09.17,0,.37.17.55.17a7.39,7.39,0,0,0,1.1-.21c-.56.05.42.2.61.21a4.36,4.36,0,0,0,1-.16c.39-.06-.43-.05.17,0a3.11,3.11,0,0,1,.44.08,4.21,4.21,0,0,0,.86.16c.2,0,1.29-.13.73-.13.61,0,1.21.07,1.85,0,.34,0,.67-.09,1-.12.57,0,0,0-.22-.08.2,0,.35.21.55.26a2.77,2.77,0,0,0,1.11-.06,4.76,4.76,0,0,1,.57-.19c-.31,0-.24,0,0,.07a2.9,2.9,0,0,0,2.11-.29L64.12,34a2.39,2.39,0,0,0,2.5,0c.26-.14-.62-.2-.1.07a2.23,2.23,0,0,0,.57,0,3.65,3.65,0,0,0,1.14.21c.2,0,.37-.23.56-.24-.52,0-.1,0,.08,0a6.24,6.24,0,0,0,1.37.12c.59,0-.18-.05.17-.06a3.67,3.67,0,0,1,.43.09,6.79,6.79,0,0,0,1.27.09c.38,0,.79-.16,1.14-.14s-.41.1.17.11c.25,0,.43,0,.69,0a12.57,12.57,0,0,1,2,.05c.67,0,1.36,0,2,0a6.75,6.75,0,0,0,1.27-.12c.65-.11-.39-.18.31-.08a1.65,1.65,0,0,1,.47.25,1.13,1.13,0,0,0,1.07-.12l.57-.36L80.8,34a2,2,0,0,0,1.09.42c.21,0,.37-.18.56-.2.53-.07-.72-.1.17,0a8.88,8.88,0,0,0,1.86.17,9.69,9.69,0,0,1,1.86-.18c-.51-.06.54.24.72.23a2.86,2.86,0,0,0,1.13-.56L87.12,34a2.67,2.67,0,0,0,1.09.34c.14,0,.29-.09.43-.1.91-.06-.36-.06.16,0a8.86,8.86,0,0,0,1.86-.07c.62-.06,1.23.1,1.86.06.18,0,1-.12.5-.16.37,0,.68.25,1.09.26a5.39,5.39,0,0,0,1-.17c.47-.08-.94-.2-.08,0,.13,0,.26.1.39.13a6.78,6.78,0,0,0,1.86-.13c.68,0,1.32-.06,2-.11s-.19.09.51.18a3.26,3.26,0,0,0,1.12,0c1.2-.24,1.71-2.45.24-2.16"/>
  <path class="b" d="M51.58,109.62c1.93.35,3.79-.21,5.69,0a7.38,7.38,0,0,0,1.41.1c.6,0-.32,0,.46,0,.24,0,.48.06.72.07a17.8,17.8,0,0,0,2.92-.06,4.71,4.71,0,0,0,.65,0c.19,0,1-.12.46-.19s.29.3.42.32a3,3,0,0,0,.84,0c.11,0,.92-.27.58-.23s.44.06.57.07c.46,0,1,.15,1.38.17a7.15,7.15,0,0,0,1.24-.22,4.15,4.15,0,0,0,1.41.29,2.14,2.14,0,0,0,.83-.37c.08,0-.49-.25,0,.07.64.48,1.16.24,1.78-.07.08,0-.62-.11,0,.15a3,3,0,0,0,.71.13,11.55,11.55,0,0,0,1.44,0c.45,0,.88.06,1.31,0s.55-.09.84-.11c.64-.06,0-.08.49,0a16.17,16.17,0,0,0,3,0c.14,0-.23.15.32.12a7.18,7.18,0,0,0,.83-.2c.19,0-.29,0,.31,0a5,5,0,0,0,.85.11c.1,0,.9-.26.58-.22s.32,0,.45.05a10.34,10.34,0,0,0,1.56.25,15.43,15.43,0,0,0,2.74-.31c.53,0-.22,0,.41.18a6,6,0,0,0,.74.11,5,5,0,0,0,1.5,0,2.53,2.53,0,0,0,.77-.28c.49-.27-.5-.21.11,0a5.4,5.4,0,0,0,1.38.11,10.89,10.89,0,0,0,1.72.13,3.54,3.54,0,0,0,.85-.11l.28-.1c.83-.29-.52-.16-.07-.1a6.25,6.25,0,0,0,1.73.11c.7-.06-.24-.07.53,0l.73,0a3.2,3.2,0,0,0,1,0c.1,0,.19-.1.29-.12.3-.1.17-.12-.38-.07l.24.11c-.21.13-.11-.59-.21-.17,0,.13,0,.29,0,.42a4.4,4.4,0,0,0,0,.73c0,1.12,0,2.23,0,3.36l1.72-1.12a3.06,3.06,0,0,0-1.42-.25c-.09,0-.78.22-.17.15-.17,0-.52-.06-.7-.06s-.72.07-.2.14c-.24,0-.41-.29-.67-.29a2.48,2.48,0,0,0-1.39.54l1.06-.12a1.71,1.71,0,0,0-1.37-.37c-.33,0-.78.14.07.18-.22,0-.44-.21-.67-.22a5.51,5.51,0,0,0-1.27.15l-.57.14c-.8.17.82.15-.06,0a4.8,4.8,0,0,0-1.37.06c1,0-.23-.19-.58-.19-.07,0-.84.15-.44.12s-.37-.07-.44-.07c-.35,0-.74,0-1.09,0s-.8,0-1.19.06c-.75,0,.37,0-.31,0H88.3c-1-.07.66.11-.33,0-.21,0-.45-.12-.67-.15a5.51,5.51,0,0,0-1.15,0c-.4,0-.75.28-1.15.35s-.12,0-.88-.19a3,3,0,0,0-2.54.39l1.07-.12a2.58,2.58,0,0,0-1.66-.19c-.15,0,.26.08-.32,0-.29,0-.54-.14-.84-.17a6.21,6.21,0,0,0-1.43.08c-.23,0-.64.19-.18.17-.21,0-.62-.1-.84-.12a25.51,25.51,0,0,0-2.61-.14,12.18,12.18,0,0,0-1.42.19,6.47,6.47,0,0,1-1.44-.24c-1.77-.22-3.63.35-5.36.11-.63-.09-1,.21-1.52.22s-.85-.24-1.3-.26c-.08,0-1.15.13-.46.16a3,3,0,0,1-.61-.12,2,2,0,0,0-1.79.44l1.07-.11a7.94,7.94,0,0,0-4.11-.26c.57-.06-.34,0-.52,0-.33,0-.61.1-.94.11a4.18,4.18,0,0,0-1.07,0c-.78.15.65.17-.41-.15a3.23,3.23,0,0,0-2,.06c-.34.17.16.15.22,0s-.06-1.17-.11-.6a7.86,7.86,0,0,0,.08-2.12c-.1-.69,0,.08,0-.54a2.64,2.64,0,0,0-.11-1.3c-.41-1.36-2.49-.38-2.15.78s0,2.75.09,4c.1,2.27,1.45,1.76,3.19,2a8.09,8.09,0,0,0,1.1,0c.76,0-.39,0,.3,0,.19,0,.38,0,.57,0,.78,0,1.52-.27,2.29-.3-.59,0,.43.11.6.13l1.07.07c.25,0,.5-.06.14-.1.23,0,.43.26.67.28a2.26,2.26,0,0,0,1.4-.59l-1.07.12a3.69,3.69,0,0,0,2.1.24c.75-.07-.15-.07-.22-.08.23,0,.44.19.67.24a3.36,3.36,0,0,0,1,0c.39,0,.75-.26,1.13-.32-.94.15-.07.2.32.27a7.38,7.38,0,0,0,2-.12c.62-.07,1.26,0,1.88,0,.31,0,.61-.12.92-.13s.62,0,.13,0c.21,0,.45.22.67.27a6.25,6.25,0,0,0,2.12-.28c-.57.06.28.12.47.14.35,0,.68-.06,1,0,.67,0,1.38.24,2,.24a18.52,18.52,0,0,1,2-.24,10.44,10.44,0,0,0,1.86,0c.62,0-1-.1-.08.1.12,0,.27.14.4.14a2.9,2.9,0,0,0,.82-.2c.25-.06.69-.12.17-.13.65,0,1.19.36,1.87.35a5,5,0,0,0,.86-.12c.22-.06.49-.21.7-.25-.43.08-.06.09.18.07h.42c.92.11-.63-.07.33.07.33,0,.63.07,1,.09a7.84,7.84,0,0,0,.86.08c.23,0,.46-.16.7-.17-.45,0-.06.06.18.07a14.34,14.34,0,0,0,2.27,0c1-.15-.63,0,.48.07.29,0,1.73-.05.6-.16a9.36,9.36,0,0,0,2.24-.06c.92-.11-.6,0,.33,0,.22,0,.44.12.67.13s.28-.12.42-.12c.67,0-.7-.37.21.19a1.12,1.12,0,0,0,1.06-.12l.58-.35-1.07.12a2.68,2.68,0,0,0,1.68.27,4,4,0,0,0,.91,0c.71-.22-.55-.31.32,0a1.33,1.33,0,0,0,1.72-1.11c0-1.27,0-2.52,0-3.78,0-1.79-.37-2.52-2.17-2.38-.57,0,.74,0-.17,0l-.3,0a7.83,7.83,0,0,0-.93-.11c-.38,0-.7.18-1.05.2.52,0-.31-.13-.51-.15a8.78,8.78,0,0,0-1.83.21,10.38,10.38,0,0,1-2-.12,4.61,4.61,0,0,0-1.85,0c-.76.2.14.14-.47.14a8.5,8.5,0,0,1-1.13,0c.55.11-.34-.28-.46-.31a2.94,2.94,0,0,0-1,0,12.52,12.52,0,0,1-1.75.28,3.62,3.62,0,0,1-1.44-.2,4.33,4.33,0,0,0-1-.1c-.22,0-1.29.19-.72.19-.31,0-.62-.16-.93-.16s-.68.22-1,.25c.62,0-.45-.09-.59-.09s-.37.13-.56.14c.45,0,0-.1-.18-.1-1.34,0-2.66-.09-4-.09s-3-.33-4.29.38l1.07-.12a2.86,2.86,0,0,0-1.4-.42,1.72,1.72,0,0,0-1,.29c-.45.23-.36.24.24,0l-.28,0a2.1,2.1,0,0,0-1.42-.2,7.1,7.1,0,0,1-.85.22c.59,0,0-.18-.18-.19-.42,0-.88,0-1.3,0s-.94.16-1.42.18.24-.09-.48-.19a3,3,0,0,0-.79,0c-.45,0-.9.19-1.37.2A17.47,17.47,0,0,1,60,107.6a3.22,3.22,0,0,0-1.48,0c-.34.08.85.18-.07-.08a3.76,3.76,0,0,0-.75-.1c-2.25-.15-3.08.43-5.33,0-1.2-.21-2.19,1.89-.78,2.15"/>
  <path class="b" d="M54.66,38.48c-.15,1.32.13,2.56,0,3.87a4.65,4.65,0,0,0,.07,1.82,7.25,7.25,0,0,1,0,1.36,7,7,0,0,0,0,1.12c0-.44.23-.73,0-.24a2.78,2.78,0,0,0-.24.56,7,7,0,0,0,.11,2.13,2.15,2.15,0,0,0,.07.72c.33.6.41-.64,0,0a2.06,2.06,0,0,0-.21.42,10,10,0,0,0,.1,2.12c0,.64,0,1.2,0,1.83s-.14-.67-.07.2c0,.15,0,.25,0,.42s.2.35.22.53-.09-.39,0,.27a6.3,6.3,0,0,1,0,1.68,5,5,0,0,0-.19,1.1c0,.17.15.37.17.55-.07-.54,0,.1,0,.21a6.51,6.51,0,0,1,0,1.59,6.06,6.06,0,0,0-.19,1.13c0,.27.34,1.4.3.85s-.19.41-.22.6a4.67,4.67,0,0,0,0,1.12c0,.27.11.53.14.8,0,.08.1,1.37.14.68,0,.68-.25,1.27-.23,2a7.89,7.89,0,0,0,0,1c.06.66.18,0,.1.64a7,7,0,0,0-.15,2c.15,1,.28.92.16,1.61a5.75,5.75,0,0,0-.09.93c0,.12,0,1.14.05.52a5.82,5.82,0,0,0-.19,1.12c0,.19.2,1.21.22.61a9,9,0,0,0-.22,2.05c0,.14.22,1.09.2.53,0,.42-.17.84-.12,1.27s.06.84.19.18c-.1.5-.3.7-.18,1.22.25,1,.27-.7,0,.36a4.26,4.26,0,0,0,0,1,8.15,8.15,0,0,0-.07,2c.05.19.24.36.27.55,0-.1,0-.56,0,.06a5.43,5.43,0,0,1-.17,1,3.69,3.69,0,0,0-.09,1.95c.36,1,.32-.6.1.29-.14.58.1.77.15,1.29-.11-1.08-.24.15-.27.48,0,.14.13.28.12.42.05-.58-.07-.06-.07,0a13.83,13.83,0,0,0,.09,1.81,11.55,11.55,0,0,0,0,2.2c0,.37,0,.79.06,1.15.16,1,.32-.2.08.34a6.4,6.4,0,0,0-.34,2.28,7.81,7.81,0,0,0,.13,1.07c0,.17.06.66.08.11,0,.24-.23.46-.21.7a4,4,0,0,0,.08.52c.22,1,.21-.28.16.07a4.29,4.29,0,0,0,0,1.24c.07.74.1-.12.11-.22,0,.23-.19.47-.18.71a3.35,3.35,0,0,0,.13.69c-.06-.28.18-.85-.06-.09a8.38,8.38,0,0,0,.25,4.54c0-.36.07-.71.11-1.07a2.72,2.72,0,0,0-.5,2c.14,1.41,2.26.42,2.15-.78-.1-1-.28.64.11-.34a1.86,1.86,0,0,0,.07-1.21,13.49,13.49,0,0,1-.12-1.8c0-.35,0-.64,0-1-.06-.59-.44,1-.06.1a2.35,2.35,0,0,0,.21-.42c0-.24-.14-1.28-.13-.73a5.5,5.5,0,0,0,.07-1.29c-.21-.95-.11.71.07-.29.11-.62-.14-.68-.24-1.22.16.9.18.09.2-.35s-.18-.76-.18-1.14.11-.59.12-.89,0-1.26-.12-.58.32-.54.34-.72a6.81,6.81,0,0,0-.11-1.27,25.42,25.42,0,0,0,0-3.61c-.05-.18-.14-.36-.18-.54-.11-.59-.09,1,.09.08a10.51,10.51,0,0,0,0-1.12c0,.6.22-.28.22-.46a6.4,6.4,0,0,0-.14-.66c-.09-.79-.34.77,0-.06a1.33,1.33,0,0,0,0-1c-.17-.76-.24.24-.24-.43s.35-1.44.37-2.15c0-1-.27-.86-.27-1.59,0-.31.08-.62.08-.93a4,4,0,0,1,0-.49c.08-.94,0,.69.07-.31.05-.43.21-.63,0-1.09-.35-.68,0,.73.08-.35a9,9,0,0,0-.2-1.08c0,.55.17-.61.17-.71a10.31,10.31,0,0,1-.26-1.93c-.08.55.27-.49.27-.72s-.22-.66-.23-1c0,.62.17-.58.18-.72s0-.54,0-.81a7.89,7.89,0,0,0-.07-2.17,6.31,6.31,0,0,1-.08-.76c0-.58-.09.79.07-.17,0-.14.1-.28.13-.43a6.91,6.91,0,0,0-.2-2.09c.07.59.07-.5.08-.63,0-.3.08-.58.12-.89a8.86,8.86,0,0,0-.06-2,7.84,7.84,0,0,1,.07-1.61,4.33,4.33,0,0,0-.22-1.22c0-.11,0-.53,0-.2s.15-.35.17-.44a6,6,0,0,0,0-2,8.11,8.11,0,0,0-.09-1c-.19-.92-.21.56.07-.36a8.21,8.21,0,0,0,.12-2,5,5,0,0,0,0-.87c0-.2-.19-.34-.22-.53s.11.22,0-.35c0-.19-.16-1.24-.17-.72,0-.43.18-.83.17-1.27a5.1,5.1,0,0,0-.17-1,3,3,0,0,1,0-.43c0-.3-.23.88.12,0a5.08,5.08,0,0,0,0-2.39,3.14,3.14,0,0,0-.09-.87c-.26-.69-.21.49-.06.11a3.25,3.25,0,0,0,.35-.84c0-.14,0-.28,0-.42.05-.89-.07.6,0-.3,0-.38.06-.76.07-1.14a3.45,3.45,0,0,0-.07-1.11,4,4,0,0,1-.14-.46c-.07-.35-.05.5,0-.24.09-1.47-.05-2.94.12-4.38s-2-1-2.16.24"/>
  <path class="b" d="M96.3,38.2a9,9,0,0,0-.16,3.15c0,.14.07,1.06.1.45,0,.33-.16.63-.17,1a9.12,9.12,0,0,0,.23,1.58c.16,1.09-.32,2-.22,3,0,.38.14,1.07.23.18,0,.35-.25.59-.23,1,0,.17.35,1,.3.43s-.26.54-.28.72c0,.35,0,1,.19.18a7.61,7.61,0,0,0-.25.85,3.5,3.5,0,0,0,.32,1.69c.14.32-.19,1.09.17.06-.12.33-.4.61-.42,1s.18.51.22.8c.07.51,0-.43,0,.06a3.35,3.35,0,0,1-.07.44,5.87,5.87,0,0,0,0,.94c0,.67.08,0,0,.49a4.1,4.1,0,0,0,.09,1.67c0,.06,0,.54,0,.63,0-.56-.18.22-.25.45a3.9,3.9,0,0,0-.06,1.7c.08.38.14,1.09.21.17a10,10,0,0,0-.21,1c0,.21.13.43.16.65.09.68,0-.23,0,.53,0,.31,0,.65,0,1,0-.56-.09.13-.1.31,0,.58.07,1.12.07,1.71s0,1,0,1.5A9.68,9.68,0,0,1,96.05,69a10.27,10.27,0,0,0,.17,1.44c0,.28,0,.57,0,.84,0,.7.14,0,0,.48-.09.36-.33.56-.27,1s.31.46.35.7c.11.73,0-.42-.14.41a4.11,4.11,0,0,0,0,1c0,.45.07.87.07,1.32,0,.26,0,.52,0,.79,0,.1.14,1.17.16.52,0,.52-.22,1-.2,1.57,0,.28,0,.58,0,.85,0,.49.05-.47,0,0,0,.19-.17.36-.15.56a6.84,6.84,0,0,0,.28.94c-.11-.52-.18-.5-.24.08-.1,1,.18.73.16,1.56a7.3,7.3,0,0,0,0,.81c0,.57-.25,1,.15.25a2.78,2.78,0,0,0-.28,2c0,1.15-.15,2.29-.06,3.46.06.86.18.84.1,1.32a9.44,9.44,0,0,0-.18,1.85,9.26,9.26,0,0,0,.24,1.82c.13.56.08-.78,0-.22,0,.19-.18.38-.16.57a3.47,3.47,0,0,0,.3,1.09c0-.35.08-.71.11-1.06a3.47,3.47,0,0,0-.46,2.13c0,.33.14.63.19,1s.21-.73-.11-.07a1.48,1.48,0,0,0-.13.56,6.49,6.49,0,0,0,.16.86c0,.18,0,1.18,0,.61a15,15,0,0,0,0,2,29.18,29.18,0,0,0,0,3.74c.12.87.09-.34.08.17,0,.19-.13.37-.14.56s0,.38.06.56c0,.47.43-1,0-.1a1.93,1.93,0,0,0-.23,1.1c.11,1.11.33-.45.1.49-.38,1.5,1.71,1.59,2,.31a2.68,2.68,0,0,0-.09-2L98,107.91a4.35,4.35,0,0,0,.49-1.13c0-.21-.06-.36,0-.56,0-.54,0,.74,0-.17a17.24,17.24,0,0,0-.15-2.14,9.33,9.33,0,0,1,.08-1.75,5.6,5.6,0,0,0,.06-1c0-.13,0-.29,0-.43-.1-.61-.11-.14-.1-.32a14.47,14.47,0,0,0,.12-2c-.07-.79,0,.16.06-.61a3.75,3.75,0,0,0,0-.67c0-.11-.26-.92-.17-.33a8.14,8.14,0,0,1,0-1c0-.54-.43,1,0,.11a1.94,1.94,0,0,0,.22-.43,4.5,4.5,0,0,0-.18-1.22c.12,1.17.15-.45.13-.72a3.45,3.45,0,0,1,0-.64c0-.29-.09-.58-.11-.86a6.56,6.56,0,0,1,0-1c-.06.53.24-.6.24-.88s-.19-.71-.22-1.09c.05.55.09-.5.08-.63,0-.3,0-.63,0-.93-.09-.77-.1,0,0-.68a6.1,6.1,0,0,0,0-2.13c0,.13-.38,1,0,.25a2.23,2.23,0,0,0,.28-.7,4.89,4.89,0,0,0,0-1,18.08,18.08,0,0,0-.13-2c-.1-.79-.07.16-.08.21,0-.26.26-.42.26-.7s-.32-1.42-.3-.45c0-.45.12-.93.11-1.4a8.83,8.83,0,0,1,0-1.15c-.07.58.18-.51.18-.73s-.1-.69-.11-1c0-.7-.17-1.6-.11-2.28,0,.53.26-.6.25-.87a2.39,2.39,0,0,0-.46-1.25L98,72.72a4.6,4.6,0,0,0,.42-2.85c0-.23-.14-1.59-.18-1a9.46,9.46,0,0,0,.26-1.55c0-.81-.06-1.65-.11-2.46,0-.27-.09-.59-.1-.85,0,.45,0,.06,0-.17a7.86,7.86,0,0,1,0-.84c0-.11.07.25.13-.31a9.94,9.94,0,0,0-.18-1.55c0,.54.07-.79,0-1s-.1-1.27-.21-.73a7.18,7.18,0,0,0,.43-1.56c0-.54-.22-1-.24-1.52,0,.58.14-.15.14-.28s.1-.49.1-.77-.21-.45-.22-.67c0,.59.12-.24.13-.36a2.31,2.31,0,0,0-.27-1.52l-.12,1.07a3.34,3.34,0,0,0,.41-2.39c0-.19-.12-.37-.17-.55-.14-.54-.12.12-.12-.19s.22-.74.24-1.13c0-.18-.15-.37-.16-.54,0-.39-.2.73.13.08a1.21,1.21,0,0,0-.1-1.23c-.23-.49-.07.84,0,.09a5.11,5.11,0,0,0,.12-.7c0-.19-.18-.36-.2-.53,0-.5-.12.63,0-.21a21.19,21.19,0,0,0,0-4.29c0,.57.11-.53.13-.72a8.77,8.77,0,0,0,0-1.15c0-.31-.1-.69-.15-1a4,4,0,0,1-.05-.58c0,.46,0,.06.12-.17.48-1.49-1.62-1.57-2-.32"/>
  <path class="b" d="M91.69,38.75a6.85,6.85,0,0,1,.19,1.91c0,.3-.09.6-.08.89,0,.82.23.1-.08.77a.88.88,0,0,0,.9,1.24h.3c-.26-.5-.51-1-.76-1.51a2.09,2.09,0,0,0-.39,1.78c.15.94-.06-.53.1.34,0,.14-.19,1,0,.3-.36,1.22-.84,1.9-.3,3.19.11-.43.21-.87.32-1.31-.86,1-.81,1.95-1.15,3.11-.17.59.07-.39-.14.38-.08.3-.13.71-.23,1,.2-.6-.42.62-.53.87-.22.48-.5.87.1.15a6.78,6.78,0,0,0-.66.84c-.22.4-.41.86-.6,1.26-.1.22-.66,1.6-.3.94-.26.48-.66,1-1,1.44A24.58,24.58,0,0,0,86,58.56c-.18.39-.93.93.1.24-.32.22-.68.23-1,.52S84,61,84.44,60.44a12.31,12.31,0,0,0-1.87,2.66c-.07.19-.5.87-.08.28-.17.24-.42.43-.6.67a2.14,2.14,0,0,0-.41,1.89l.65-1.27a2.75,2.75,0,0,0-1.41,2.54c0,.17.17-.18-.07.34-.05.13-.16.32-.2.41a7.3,7.3,0,0,0-.52,1.37,5.3,5.3,0,0,0-.28,2.34c.12.44-.19.06.28-.23-.16.1-.31.22-.47.33a4.53,4.53,0,0,0-1.14,1.17l1.27-.64a6.65,6.65,0,0,0-2.18.09c-.84.12-1.52-.15-2.33-.09-1.35.09-3.53,1.45-3.76,2.84-.06.36,0,.69,0,1-.07.62.09-.23,0,.16-.09.23-.29.41-.37.67-.21.67-.16,1.43-.36,2.11-.42,1.48-1.33,2.71-1.66,4.18.22-.33.44-.66.65-1a3.7,3.7,0,0,0-1.91,3l.65-1c-.78.41-.87.76-1.29,1.45.35-.57-.6.58-.78.78A12.86,12.86,0,0,0,65.25,88c.46-.71-.47.55-.53.62-1.71,2-1.81,3-2.92,5.21-.22.44-.44.68-.67,1.07a2.45,2.45,0,0,0-.4,1.07c-.12.75.17,0,0,.48a20.25,20.25,0,0,0-1.11,2.71,3.1,3.1,0,0,0,0,.86c0,.72.18,0,.06.52s-.36.89-.47,1.36a5.2,5.2,0,0,0,.15,3.22l1.12-1.72h-.33A1.33,1.33,0,0,0,59,105.16c.21.53.11.43.15-.06,0,.25-.23.45-.24.72a4.63,4.63,0,0,0,.14,1.17,6.2,6.2,0,0,1,.12.71c0-.46-.07,0-.06.2a3.69,3.69,0,0,0,.22,1.38c.42,1.24,2.39-.12,2-1.27-.18-.52-.13-.46-.14,0,0-.24.18-.47.18-.72a6.6,6.6,0,0,0-.17-1.17,4.66,4.66,0,0,1-.1-.71c0,.48.14,0,.15-.19a2.71,2.71,0,0,0-.25-1.39c-.37.58-.74,1.15-1.12,1.72h.33a1.32,1.32,0,0,0,1.11-1.72c-.23-.51-.12-.22-.13-.33a5.49,5.49,0,0,1,0-.7c0-.19,0-.38,0-.57,0-.82-.2.5.06-.29a5.39,5.39,0,0,0,.52-2.57c-.09-.58,0-.44-.15,0,.06-.2.17-.48.25-.67.26-.6,0-.1,0-.27s.22-.45.33-.67a4.62,4.62,0,0,0,.6-2.61l-.39,1.07a9.72,9.72,0,0,0,1.72-2.84c.21-.41.45-.85.62-1.26s.19-.56.29-.83c.23-.62,0-.14-.05,0a4.19,4.19,0,0,1,.27-.42c1.13-1.78,2.62-3.28,3.74-5.11-.57.92-.06.43.29.06a1.43,1.43,0,0,0,.41-1c0-.81-.56.6,0-.18l.27-.38c.42-.52-.3.22,0-.1a4.35,4.35,0,0,0,1-1.62c-.3.59.26-.21.33-.36a8.36,8.36,0,0,0,.32-.83,13.48,13.48,0,0,0,1.08-3.19c0-.25.07-.5.11-.74.08-.6,0-.14,0-.31a3.88,3.88,0,0,0,.44-1.82c.05,1.34,0-.41,0-.32-.16-.49-.1.18-.08.17a3.88,3.88,0,0,0,.59-.28,6.36,6.36,0,0,1,.75-.42c.16-.06.51-.05,0,0a2.61,2.61,0,0,1,.46.08,5.24,5.24,0,0,0,2,0c.32-.05.66-.11,1-.14.66-.06-.18-.09.58,0a1.36,1.36,0,0,0,1.27-.64c.44-.6-.21.06.48-.44a2.62,2.62,0,0,0,1-1.12,7.45,7.45,0,0,0,.28-2.43c0,.34.39-1.25.25-.88a5.2,5.2,0,0,0,.56-1,5.6,5.6,0,0,0,.25-1.27c.07-.54,0-.2,0-.3s-.69.59.1.06a1.37,1.37,0,0,0,.65-1.27l-.09-.7-.39,1.07A11.25,11.25,0,0,0,84.3,64.1c.09-.17.18-.35.26-.53.37-.82-.24.16.14-.39s1.64-1.59,1.72-2.4c0-.61-.73.33,0,0a2.46,2.46,0,0,0,.88-.65,9.71,9.71,0,0,0,.74-1,7.31,7.31,0,0,0,.42-.77c.35-.67-.35.47.1-.2a14,14,0,0,0,.88-1.25c.13-.23.21-.5.34-.73-.43.76.26-.22.31-.3.2-.38.32-.84.49-1.19s.4-.88.61-1.3c.28-.58-.18.46.27-.29a8.64,8.64,0,0,0,.42-.87c.37-.8-.23.37.14-.31.11-.21.26-.41.35-.63a6.2,6.2,0,0,0,.21-.7c.18-.58-.07.38.14-.39a9.35,9.35,0,0,0,.54-3.07c-.13.35-.26.71-.4,1.06l.44-.48a1.25,1.25,0,0,0,.31-1.32c-.21-.52-.15-.51-.2,0a5.27,5.27,0,0,1,.19-.68c0-.13.15-.78-.06-.16.08-.23.28-.42.35-.66a3.31,3.31,0,0,0-.16-2.51c0,.35-.07.71-.11,1.06l.34-.56c.43-.72.11-1.51-.76-1.51h-.3l.89,1.24A8.23,8.23,0,0,0,93.84,38c-.34-1.39-2.44-.4-2.15.78"/>
  <path class="b" d="M59.28,38.48c-.16,1.37-.13,2.77-.31,4.12-.08.62.4,1,1,1h.32l-.89-1.24a8.67,8.67,0,0,0,.06,3.79,17.17,17.17,0,0,0,.26,1.75c0,.11.33,1,.23.48a10.59,10.59,0,0,0,.1,1.12,13.34,13.34,0,0,0,.59,1.68,9.05,9.05,0,0,0,.55.86c-.23-.44.12.42.18.58.23.57.53,1.1.72,1.69a3.31,3.31,0,0,0,.21.85c.1.16,1,.86.65.46.36.46.56,1.16.89,1.66.09.13.41.48.17,0,.07.12,0,.31.11.43s.81,1,.51.52c.43.7.39,1.13,1,1.74.43.41-.47-.86-.07,0,.06.13,0,.27.12.4a5.85,5.85,0,0,0,.64.76,15.87,15.87,0,0,1,2.16,2.92,7.08,7.08,0,0,0,.56.83c.09.13.65,1,.46.5s0,.62,0,.78.2.18.27.32c.36.69-.06-.32.18.32a17,17,0,0,1,1,3.54c.17,1.07.74,3.1,1.7,3.74a7.83,7.83,0,0,0,1.77.64c.49.07.7-.19,1.13-.22-.55,0,.51.12.67.14.67.07,1.4.16,2.08.17a3.91,3.91,0,0,1,.57,0c-.2,0-.42.11,0,.11a1.16,1.16,0,0,1,.26.15c.7.48-.27-.66,0,.07a14.48,14.48,0,0,1,.44,1.69c.1.35.43.6.53.92-.3-1-.19.28-.15.55a11.48,11.48,0,0,0,1.29,3.4c.32.52.34,1.16.62,1.69s.73,1,1,1.48a6.83,6.83,0,0,0,1.11,1.6c.48.5,0-.21.34.46a3.24,3.24,0,0,0,.51.95c.2.2.45.17.66.34-.31-.25-.3-.56-.13.06a2.6,2.6,0,0,0,.48,1c.45.52.71.46,1.29,1.36,0,0,.58,1.29.61,1.34.34.61.63,1.22,1,1.85s.69,1.07,1,1.68c.06.13.12.31.17.45.22.62-.09-.42.12.31a6.16,6.16,0,0,0,.33,1c.12.25.27.67.39.9a1.66,1.66,0,0,1,.15.46c.19.75.26-.85,0,.06a2.33,2.33,0,0,0,.74,2.19c0-.33-.11-.67-.16-1a4.86,4.86,0,0,0-.07,2.7,8.29,8.29,0,0,1,.25,2.12.86.86,0,0,0,1,1h.18L92,104.36a4,4,0,0,0-.2,2.47c.08.7.06-.47,0,.32,0,.24-.12.45-.13.7a4.26,4.26,0,0,0,.23,1.18c.37,1.38,2.47.4,2.15-.78a3.26,3.26,0,0,1-.21-1c0,.57.23-.56.23-.75,0-.76-.35-1,0-1.8a.87.87,0,0,0-.89-1.24H93l1,1c0-.31.1-.68.09-1,0-.5-.2-.62-.3-1.07a10.93,10.93,0,0,1-.22-1.72c0-.94,0,.72.05-.32,0-.17.15-.23.13-.44a1.57,1.57,0,0,0-.52-1.1s-.47-.81-.13-.31c.14.22,0,.88.12.11A2.48,2.48,0,0,0,93,97.29a5.86,5.86,0,0,0-.83-1.77c.37.63.23.08.11-.41a5.75,5.75,0,0,0-.41-.92c-.3-.66-.72-1.17-1.07-1.79-.12-.21-.16-.49-.28-.69s-.77-1-.51-.57c-.69-1.11-.61-2.06-1.81-3.31-.1-.1-.26-.13-.35-.23-.65-.68.19.55-.24-.25-.14-.26-.09-.59-.28-.84s-1-.68-.61-.27c-.29-.34-.25-.82-.51-1.19A14.19,14.19,0,0,1,85,83.69c-.36-.62-.91-1.18-1.23-1.8.24.45-.07-.52-.11-.65a4.41,4.41,0,0,0-.35-.8c-.48-.8-.58-.61-.86-1.62-.09-.31,0-.59-.12-.9,0-.12-.31-1.13-.23-.57A9.28,9.28,0,0,0,82,76.17c0-.06-.36-.64-.25-.31s0-.43,0-.5c-.36-1.5-1-2.56-2.61-2.73-.63-.07-1.29-.09-1.93-.14-.33,0-.75-.09-1.08-.09s-1.48.12-.92.2-.36-.33-.53-.37-.33,0-.58-.08c0,0,.46.53,0-.06A6.22,6.22,0,0,1,73.22,70c-.17-.63-.09-1.28-.25-1.9s-.59-1.26-.83-1.91c-.1-.29,0-.6-.16-.89s-.26-.26-.39-.43c-.39-.53.26,1,0,0a5.86,5.86,0,0,0-.88-1.77c-.38-.59-.6-1.24-1-1.79a15.58,15.58,0,0,0-1.36-1.47c-.13-.14-.61-.92-.78-1.14s-.6-.57-.81-.86c.29.4,0-.46-.07-.59s-.19-.34-.29-.51c-.38-.63.06.25-.29-.29l-.57-.91c-.37-.62-.55-1.39-1.15-1.82-.42-.3-.35-.36-.1.17a6.76,6.76,0,0,1-.17-.68,6.47,6.47,0,0,0-.38-1.07c-.27-.66-.61-1.28-.9-1.9s-.16-.13-.11,0c-.08-.19-.08-.53-.15-.74s-.35-.57-.44-.86c-.19-.65-.28-1.39-.43-2.08a18.62,18.62,0,0,1-.3-2.1c0-.34.06-.69,0-1,0-.09-.05-.3-.05-.42,0-.57-.25.34,0-.43a.87.87,0,0,0-.89-1.24h-.32l1,1c.18-1.35.14-2.75.3-4.12s-2-1-2.15.24"/>
  <path class="b" d="M76.38,79l.24.53c0-.26,0-.53,0-.79-.07.17-.14.35-.2.52l.33-.52-.69.78.79-.4-.6.05.73.23a4.14,4.14,0,0,1-.42-.42l.1.15-.1-.16c-.07-.09-.13-.19-.19-.28,0,.26,0,.53,0,.79l.21-.55-.33.52.15-.14c.06-.06.33-.31.08-.11s0,0,.08,0l.21-.13-.82.2,1,.2c1.19.22,2.19-1.89.78-2.15L77,77.14a1.89,1.89,0,0,0-.58-.08,2,2,0,0,0-.79.35,2.92,2.92,0,0,0-1.39,2,2.16,2.16,0,0,0,1.58,1.87,2.35,2.35,0,0,0,1.29-.24,3.62,3.62,0,0,0,.7-.71,3.4,3.4,0,0,0,.75-1.23,1.71,1.71,0,0,0-.23-1.41c-.57-1.21-2.51.17-2,1.27"/>
  <path class="b" d="M76.4,68.35l.18.61c.07-.28.13-.55.2-.82a6.79,6.79,0,0,0-.58,1.29l.33-.52-.47.38,1.07-.4-.26,0c-.07,0-.47-.09-.21,0s-.08-.06-.15-.1l-.27-.14c.15.3.3.59.44.88,0-.25,0-.5,0-.75a3.79,3.79,0,0,0-.26-.93c-.11.43-.21.87-.32,1.31l.41-.42-.8.41a4.29,4.29,0,0,1,.8-.12c.46,0-.29-.06.13,0l.44.06a1.39,1.39,0,0,0,1.41-.91.88.88,0,0,0-.63-1.23,5.05,5.05,0,0,0-1.4-.08,2.71,2.71,0,0,0-1.06.3,4.29,4.29,0,0,0-.66.62A1.24,1.24,0,0,0,74.43,69l.18.56c0-.18-.06-.35-.08-.52v.61a.87.87,0,0,0,.44.88A4.38,4.38,0,0,0,76.1,71a1.45,1.45,0,0,0,1.32-.35l.43-.34a1.91,1.91,0,0,0,.45-.81.6.6,0,0,0,.06-.19c0-.14-.08.17-.1.2a2.49,2.49,0,0,0,.15-.28,1.56,1.56,0,0,0,.31-1.07c0-.2-.12-.39-.17-.58A.89.89,0,0,0,77.32,67c-.49.17-1.09.83-.92,1.4"/>
  <path class="b" d="M76.55,85.23l.56.35-.24-1.42-.54,1,.72-.59c-.37.15-.73.28-1.11.4l1,.17-.42-.48.22.46a9.48,9.48,0,0,1-.14-1.07c-.07.28-.13.55-.2.82l.32-.43-.72.59.2-.07c.07,0,.42-.15.15,0s0,0,.12,0h.25L76,84.7l.34.38c.84.94,2.54-.74,1.7-1.69a2.3,2.3,0,0,0-.55-.53,2,2,0,0,0-1,0,3.35,3.35,0,0,0-.75.21,2.13,2.13,0,0,0-.94.84,2,2,0,0,0-.26,1.64,1.8,1.8,0,0,0,.31.9c.13.16.28.31.41.46a1,1,0,0,0,1,.17,5,5,0,0,0,1.5-.63A4.06,4.06,0,0,0,78.62,85c.27-.52.31-1.08-.24-1.42l-.55-.35c-.51-.32-1.24.14-1.52.57a1,1,0,0,0,.24,1.42"/>
  <path class="b" d="M76.41,63.26c.12.14.24.29.37.43l-.23-.46.11.64c.21-.43.43-.85.64-1.27a3.12,3.12,0,0,0-.41.33c-.2.21.27-.08.13,0l-.25.09a7.93,7.93,0,0,1-.83.25l1,.17L76.5,63l.23.46a7.3,7.3,0,0,0-.23-1.13l-.39,1.07a3.6,3.6,0,0,0,.41-.37s-.33.21-.18.15l.14-.08.26-.17L75.68,63c.32.13.63.27.94.42,1.1.54,2.48-1.4,1.27-2A2.38,2.38,0,0,0,76.16,61a4.71,4.71,0,0,0-1.41,1,1.19,1.19,0,0,0-.39,1.06c.08.33.15.63.2,1a1.94,1.94,0,0,0,.69,1.06,1,1,0,0,0,1,.17c.31-.09.61-.17.91-.28a3.54,3.54,0,0,0,1-.63,1.37,1.37,0,0,0,.64-1.26,4.85,4.85,0,0,0-.14-.76,2.58,2.58,0,0,0-.56-.76c-.39-.46-1.16-.19-1.52.17a1.11,1.11,0,0,0-.17,1.52"/>
  <path class="b" d="M76.5,90.68l.41.48c0-.42,0-.85,0-1.27a6.16,6.16,0,0,0-.65,1.34l.59-.73-.51.27.81-.2-.53-.15.45.23a5.32,5.32,0,0,1-.76-.74c.08.24.15.48.23.73,0-.2,0-.39,0-.59l-.65,1A6.61,6.61,0,0,0,77,90.13l-1.32.31,1,.39a1.27,1.27,0,0,0,1.51-.57c.27-.41.33-1.2-.24-1.42-.34-.14-.69-.26-1-.39a1.22,1.22,0,0,0-1.31.32l-.28.29c-.25.29.36-.22,0,0a1.74,1.74,0,0,0-1,1.26,1.71,1.71,0,0,0,.24,1.29,3.42,3.42,0,0,0,.57.57,2.42,2.42,0,0,0,1,.47,1.89,1.89,0,0,0,1.35-.36,1.78,1.78,0,0,0,.83-1.17c.07-.3-.22.32,0,0l.24-.38a1,1,0,0,0,0-1.27L78.19,89c-.39-.47-1.17-.19-1.52.17a1.11,1.11,0,0,0-.17,1.52"/>
  <path class="b" d="M65.63,108.52a9,9,0,0,0,0-1.27c0,.56.07-.62.08-.87,0-.69-.07.42,0-.31,0-.21.1-.46.13-.68s-.07-.32,0-.47c.12-.89-.11.33,0-.15.09-.27.45-1.26.39-1.1s.34-.68.46-.91.39-.69.58-1c-.39.64.35-.31.47-.5a2.8,2.8,0,0,0,.4-.79c.23-.64.26-.3-.17,0,.28-.23.6-.5.89-.78.06-.07.59-.69.23-.38s.15,0,.26-.1c.4-.26.69-.55,1-.83a4.83,4.83,0,0,1,.88-.48c.17-.07.72-.23.14-.08.24-.06.49,0,.74-.08s.42-.28.65-.34c-.47.11-.07.21.18.12a3.76,3.76,0,0,0,1.29-.83l-1.07.39c.9,0,1.71-.16,2.61-.13.11,0,.72,0,.2-.11.22,0,.44.27.67.32a6.07,6.07,0,0,0,1.28,0c.79,0,.14,0,1,.1.65.08.47-.13.83,0a11.36,11.36,0,0,1,2.06,1.29c.37.23.88.18,1.24.38-1-.53.24.5.46.67s-.16-.11.25.24a5.12,5.12,0,0,1,.49.44c.58.64-.39-.35.21.26a5,5,0,0,0,.43.5c.42.33.41.24.16-.16.13.2.12.54.24.75.19.37.63.63.8,1s.12.81.34,1.23c.08.14.33.22.44.34.11.42.13.35.07-.21l-.15.49a1,1,0,0,0,.16,1c.46.47.22,0,.31.53.06.32,0,.58,0,.9s.11.59.16.91c.09.63.13,0-.13.62-.61,1.43,1.52,1.5,2,.31a5.31,5.31,0,0,0-.71-5c0,.33.11.67.16,1a2.39,2.39,0,0,0-.14-2.22c0-.1-.58-.58-.32-.11-.09-.16,0-.31,0-.46a5.21,5.21,0,0,0-.57-1.1,16.82,16.82,0,0,0-1.17-1.6c-.06-.07-1-1.08-1.16-1.18s-1-.76-.63-.38c-.35-.32-.31-.63-.81-.89-.24-.12-.54-.08-.8-.22s-.54-.58-.89-.75A10.5,10.5,0,0,0,78.8,95c-.33,0-.68,0-1,0-.7-.05.07-.1-.63-.22a8.16,8.16,0,0,0-2.26,0c-.19,0-.37.13-.56.15-.54.06.72-.15-.18,0a2.6,2.6,0,0,0-1.22.38c-.94.59.78-.12-.3,0-.21,0-.35.16-.54.2a3.86,3.86,0,0,0-.43.09,10.67,10.67,0,0,0-3.55,2,7.83,7.83,0,0,0-.83.9c.59-.59-.34.2-.47.33a2.62,2.62,0,0,0-.71,1.11c-.32,1,.54-.41-.17.41a9.51,9.51,0,0,0-1.36,2.24c-.15.34-.3.64-.44,1-.06.16-.17.67,0,.09-.08.23-.29.41-.37.65a5.54,5.54,0,0,0-.16,1.28c-.09.93.08-.38,0,.17,0,.28-.16.52-.18.82s.13.3.12.45c0-.69-.1.37-.11.45a11,11,0,0,1,0,1.15c-.24,1.49,2,1,2.15-.24"/>
</svg>
