<svg xmlns="http://www.w3.org/2000/svg" viewBox="0 0 145 145">
  <defs>
    <style>
      .a {
        fill: #ffc40c;
      }

      .b {
        fill: #fff;
      }
    </style>
  </defs>
  <path class="a" d="M139.63,85.17a.25.25,0,0,1,.21-.19,47.36,47.36,0,0,0,.19-6.07c-.33,2.57-.73,5.13-.87,7.72.15-.49.31-1,.47-1.46m.86-19c.29,1,.56,2.11.8,3.18a.33.33,0,0,1,.54,0c-.44-1.08-.89-2.15-1.34-3.22m-9.86-15.9c.25.52.49,1,.74,1.55a8.71,8.71,0,0,1,1.17,1.94c.24.48.46,1,.68,1.46A32.24,32.24,0,0,1,135.86,61c.29.54.59,1.08.89,1.62a70.77,70.77,0,0,0-6.12-12.29m-23.3-25.63a50.47,50.47,0,0,1-6.42-4.18c1.38,1,2.75,2.1,4.13,3.15,1.87,1.43,3.75,2.86,5.69,4.21.65.46,1.32.91,2,1.32h0c-1.75-1.56-3.56-3.07-5.44-4.51M69.42,5.8c.7.08,1.4.17,2.09.27,1,.14,1.93.31,2.89.49a8.09,8.09,0,0,0-5-.76M49.27,9.44h0c-.24.2-.48.4-.73.59L49,9.88l1.1-.63-.82.19m-13.69,6.5A36.52,36.52,0,0,0,39,14.61c1.29-.61,2.61-1.21,3.9-1.85-1.54.55-3.09,1.06-4.6,1.7a13,13,0,0,0-2.74,1.48M46.2,10.31a55,55,0,0,0-12.69,5.88.26.26,0,0,1-.09.13c-.38.33-.74.67-1.11,1a16.37,16.37,0,0,1,1.85-.85,8.46,8.46,0,0,1,3-2.13,40.78,40.78,0,0,1,5-1.95c1.45-.5,2.88-1.06,4.32-1.59.48-.31,1-.64,1.42-1l-1.63.49M23.52,24.17l-.69.72a.24.24,0,0,1-.11.32l-.53.35c-.62.67-1.22,1.35-1.8,2.05a.29.29,0,0,1,.23.29l.36-.57a.24.24,0,0,1,.31-.11c1.49-1.62,3.2-3,4.81-4.54s3.06-3.07,4.59-4.6a54.17,54.17,0,0,0-7.17,6.09m-8,10.21-1.37,2.47A.31.31,0,0,1,14,37c-.55,1-1.07,2-1.56,3,.48-.59,1-1.15,1.51-1.72.89-1.53,1.78-3,2.59-4.6.19-.34.75-.12.57.23l-.06.12c.91-1.49,1.76-3,2.64-4.52a.29.29,0,0,1,0-.33q.39-.54.81-1.05h0a49,49,0,0,0-5,6.24m-4,8.31c.3-.61.61-1.2.94-1.8a7,7,0,0,0-.94,1.8M6.33,47.51c-.09.67-.16,1.33-.23,2l.06-.08c.43-1.42.9-2.82,1.41-4.21a.3.3,0,0,1-.23-.16c-.33.82-.66,1.64-1,2.45m.58,49.8a.33.33,0,0,1,.38.25,40.07,40.07,0,0,0,3.15,8.31c-.41-1.19-.78-2.4-1.08-3.63a.06.06,0,0,1,0,0A75,75,0,0,1,4.83,88a69.56,69.56,0,0,0,2.08,9.28m11,15.29c-1.23-1.95-2.44-3.92-3.65-5.89a66.26,66.26,0,0,0,3.65,5.89m-2.62,2.33a1.4,1.4,0,0,1,.69-.19c-.46-.84-.9-1.7-1.32-2.57A68.22,68.22,0,0,1,11.11,106a55.66,55.66,0,0,0,4.21,9m9.15,7a.27.27,0,0,1-.26.33l.8.7c-.08-.26-.15-.53-.22-.8l-.32-.24Zm1.43,1.8.7.59c-.09-.32-.17-.63-.25-.94l-.75-.6c.09.32.19.64.3.95M27.41,125l.63.5c-.07-.29-.13-.58-.2-.87l-.69-.59c.08.32.17.64.26,1m1.42,1.13v0c.41.32.83.65,1.26,1a39.06,39.06,0,0,0,4,2.67c-1.91-1.39-3.69-3-5.48-4.5.07.28.14.56.22.84m16.76,11.16c.54.17,1.09.32,1.65.46l.44.08c1.25.2,2.52.32,3.78.42l1.24.07c-2-.26-3.88-.59-5.8-1-1.06-.24-2.12-.51-3.17-.81a12.4,12.4,0,0,0,1.86.8m18.11-.76h.8a12.26,12.26,0,0,0-1.48-.1l.68.11M116.16,125c.11-.18.22-.36.34-.53l-.09,0c-1.12.86-2.27,1.7-3.43,2.52l.48-.32c.32-.22.7.26.37.48a84.92,84.92,0,0,1-14.33,8.09.31.31,0,0,1-.23-.57,78.58,78.58,0,0,0,11-5.87.35.35,0,0,1-.29-.18l-1.51,1.13a.3.3,0,0,1-.37-.48l1.26-.95c-1.57.75-3.17,1.46-4.78,2.11a31,31,0,0,0-4.64,3c-.31.25-.68-.24-.37-.48.52-.41,1-.8,1.6-1.16-1,.38-2.07.74-3.12,1.1l.74-.19c.38-.1.61.46.23.57a25.9,25.9,0,0,1-4.47.74q-4.89,1.48-9.89,2.54a.35.35,0,0,1-.08.13c1.07,0,2.14,0,3.2,0a.34.34,0,0,1,.24-.41c3.38-.76,7-.87,10.13-2.35.36-.17.59.4.23.56a24.13,24.13,0,0,1-6.48,1.71c.12.15.12.39-.11.45a26.92,26.92,0,0,1-8.34.62,13.71,13.71,0,0,1-3.91.77,17,17,0,0,1-6.22.81,7.77,7.77,0,0,0-.76.28.3.3,0,0,1-.41-.33l-.32,0c-3.08.6-6.18,1-9.21,1.82.62,0,1.24,0,1.85,0a31.79,31.79,0,0,0,8.63-1.22c.38-.12.61.44.23.56a32.58,32.58,0,0,1-8.78,1.27q-2,.08-4,0c-.12,0-.25.07-.37.12a.31.31,0,0,1-.37-.15c-1.3,0-2.6-.13-3.89-.26-.4,0-.31-.65.08-.61,1.49.16,3,.25,4.48.28a60.5,60.5,0,0,1,7.49-1.7c-1.87.11-3.75.16-5.62.15a1.16,1.16,0,0,0-.22.41c-.12.38-.69.14-.57-.23a1.08,1.08,0,0,1,.08-.19c-1.28,0-2.55-.07-3.82-.15a30.18,30.18,0,0,1-3.29.15,19.93,19.93,0,0,1-7.56-.68l-.06,0a4.35,4.35,0,0,0-1.84.1c-.37.11-.6-.45-.23-.57l.23-.06a13.61,13.61,0,0,1-1.45-.57c-1.06-.5-2.58-1.44-3.78-.93-.36.16-.59-.4-.23-.56a2.58,2.58,0,0,1,1-.2,46.19,46.19,0,0,1-6.44-2.85,64.65,64.65,0,0,1-13-9.84q-3.2-3-6.18-6.13a1,1,0,0,1-.12-1.29c-.22-.37-.42-.73-.63-1.11a.22.22,0,0,1-.07-.09C11.44,109,8.38,104,6.87,98.36a.26.26,0,0,1-.32-.18A77,77,0,0,1,3.83,85.6,21.17,21.17,0,0,0,4.9,92.82a.31.31,0,0,1-.57.24C3.19,90.23,3.36,87,3.15,84c-.24-3.32-.69-6.62-1.21-9.9a31.79,31.79,0,0,0,.55,9.59c.09.38-.52.45-.61.07-1.25-5.1-.43-10.49-.12-15.67,0-.39.63-.31.61.08-.1,1.63-.25,3.27-.36,4.92a.32.32,0,0,1,.43.23c.44,2.78.83,5.56,1.12,8.36a.29.29,0,0,1,.18,0,81.23,81.23,0,0,1-.68-12.37c0-.54,0-1.09,0-1.64-.2.14-.54,0-.48-.27.21-1,.43-2,.69-3.05,0-.19,0-.38.05-.56a.3.3,0,0,1,0-.25l.06-.19c.07-.69.14-1.38.23-2.07-.17.23-.62.13-.55-.21A43.6,43.6,0,0,1,5,53.69c.05-.21.11-.42.16-.63,0-.51.08-1,.13-1.53-.27.19-.67-.14-.43-.42s.35-.42.52-.64.06-.7.1-1l0,.06c-.16.36-.73.13-.56-.23.28-.63.55-1.26.82-1.9v0a.26.26,0,0,1,.09-.18c.47-1.12.93-2.25,1.37-3.39a.31.31,0,0,1,.57.23l-.11.27c.28-.5.57-1,.87-1.48a66.55,66.55,0,0,1,2.85-6A38.84,38.84,0,0,0,4.81,47.94c-.13.38-.7.15-.57-.22A42.53,42.53,0,0,1,13,33.92,60.75,60.75,0,0,1,24.2,20.18a57.19,57.19,0,0,1,7.22-5.55.27.27,0,0,1,.1-.34C36.66,10.4,43,8.18,49.11,6.43a.33.33,0,0,1,.38.47,54.49,54.49,0,0,1,6.93-1.17.32.32,0,0,1,.19-.28c7.11-2.77,14.77-.92,22.13-1.94a.3.3,0,0,1,.08.6c-6.88.95-14-.64-20.75,1.47a61.26,61.26,0,0,1,10.49.13.25.25,0,0,1,.17-.35c2.82-.86,5.52.36,8,1.68,1.58.36,3.14.77,4.68,1.24l0,0c.19-.26.55-.05.55.2,12.41,3.84,23.8,11,33.32,19.66A99.41,99.41,0,0,1,131.41,47c.92,1.41,1.81,2.84,2.65,4.3a.21.21,0,0,1,.11.08,11.33,11.33,0,0,1,2,3.43c.63,1.45,1.25,2.89,1.9,4.33s1.25,2.78,1.85,4.18a.31.31,0,0,1,.43.14,56.19,56.19,0,0,1,3.19,9.31c.1.37-.46.61-.57.23-.25-.94-.51-1.88-.79-2.81a.3.3,0,0,1-.07-.11l-.24-.56h0c1,4.06.92,8.29,1.91,12.35.09.38-.51.45-.61.07a38.46,38.46,0,0,1-.73-4.27c0,.78.06,1.56.07,2.35a44.7,44.7,0,0,0,1.12,5.62c.1.38-.46.61-.57.23q-.37-1.33-.63-2.7A49.76,49.76,0,0,1,140,95.83a52.17,52.17,0,0,1-13.49,20.86,59.17,59.17,0,0,1-8.69,6.88,20.88,20.88,0,0,0-1.19,1.76c-.21.34-.69,0-.49-.37"/>
  <path class="b" d="M83.45,61.75c-2.08,0-5,.82-5,2.15a2.7,2.7,0,0,0,.93,1.66,1,1,0,0,1,.28.83,1,1,0,0,1-.51.72,4.42,4.42,0,0,0-2.62,3.71,3.31,3.31,0,0,0,.55,1.84A1,1,0,0,1,76.8,74a1.85,1.85,0,0,0-1,1.61A3,3,0,0,0,77,77.68a1,1,0,0,1,.06,1.45,3.48,3.48,0,0,0-1.19,2.35c0,1.9,2.62,2.21,2.64,2.21,9.92,0,11.51-3.53,11.51-14.89a6.75,6.75,0,0,0-6.61-7m-4.9,23.93c-1.2,0-4.67-1-4.67-4.2a5,5,0,0,1,1.11-3,4.31,4.31,0,0,1-1.21-2.86A3.58,3.58,0,0,1,75,72.94a5.33,5.33,0,0,1-.44-2.12A5.88,5.88,0,0,1,77.17,66a3.73,3.73,0,0,1-.74-2.12c0-3,4.2-4.13,7-4.13a8.79,8.79,0,0,1,8.64,9c0,11.67-2,16.88-13.54,16.88"/>
  <path class="b" d="M83.28,67.72h0a32.32,32.32,0,0,1-4.91-.65,1,1,0,0,1-.8-1.17,1,1,0,0,1,1.2-.77,30.35,30.35,0,0,0,4.6.61,1,1,0,0,1,0,2"/>
  <path class="b" d="M76.79,73.54h-.93a1,1,0,1,1,0-2A14.24,14.24,0,0,0,81,71a1,1,0,0,1,1.3.59,1,1,0,0,1-.61,1.27,14.49,14.49,0,0,1-4.92.69"/>
  <path class="b" d="M75.8,80.09a1,1,0,0,1-.06-2c1.51-.07,3.12-.23,5.08-.51a1,1,0,0,1,1.14.85,1,1,0,0,1-.86,1.12c-2,.28-3.68.45-5.25.53h0"/>
  <path class="b" d="M75.74,70.44a.83.83,0,0,1-.22,0c-1-.22-3.92-.88-3.92-2.81,0-.12,0-.23,0-.34a.45.45,0,0,0,0-.11V67c0-2.53,2-4.17,5.14-4.17.25,0,.51,0,.77,0a1,1,0,1,1-.18,2l-.59,0c-.94,0-3.11.21-3.11,2.18v.1a3.57,3.57,0,0,1,0,.37.34.34,0,0,1,0,.1,4.86,4.86,0,0,0,2.34.93,1,1,0,0,1,.76,1.19,1,1,0,0,1-1,.77"/>
  <path class="b" d="M55.76,59c-5.14,0-7.43,2.19-7.43,7.08,0,14,2.29,15.55,7.15,15.55,5.7,0,6.49-1.73,6.49-3.6a2.05,2.05,0,0,0-.17-.83,1,1,0,0,1,.17-1,3.74,3.74,0,0,0,1-2.51,1.89,1.89,0,0,0-.49-1.55,1,1,0,0,1-.22-1.15,3.82,3.82,0,0,0-1.24-5.09,1,1,0,0,1-.36-.71,1,1,0,0,1,.29-.75,2.27,2.27,0,0,0,.82-1.52c0-1.08-2.87-3.88-6-3.88m-.28,24.61c-7.12,0-9.18-3.93-9.18-17.53,0-6,3.18-9.06,9.46-9.06,4,0,8.07,3.41,8.07,5.86A3.64,3.64,0,0,1,63.09,65a6,6,0,0,1,1.73,4,5.67,5.67,0,0,1-.44,2.16A4.18,4.18,0,0,1,65,73.61,5.59,5.59,0,0,1,63.87,77,4.32,4.32,0,0,1,64,78c0,5.58-6.41,5.58-8.52,5.58"/>
  <path class="b" d="M56.3,66.25a1,1,0,0,1-1-1,1,1,0,0,1,1-1c1.8-.07,3.65-.15,5.46-.33a1,1,0,1,1,.21,2c-1.87.18-3.76.26-5.59.33h0"/>
  <path class="b" d="M56.81,72.79h-1a1,1,0,1,1,.06-2,41.25,41.25,0,0,0,7.18-.51,1,1,0,0,1,1.15.84,1,1,0,0,1-.86,1.12,47.89,47.89,0,0,1-6.58.55"/>
  <path class="b" d="M61.74,77.86a18,18,0,0,1-2.47-.23,13.34,13.34,0,0,0-2.63-.2,1,1,0,1,1-.14-2,14.67,14.67,0,0,1,3.06.21,17,17,0,0,0,2.18.2,7.71,7.71,0,0,0,.9-.05,1,1,0,0,1,1.12.88,1,1,0,0,1-.9,1.09,9.45,9.45,0,0,1-1.12.07"/>
  <path class="b" d="M63.8,70.19a1,1,0,0,1-.91-.56,1,1,0,0,1,.47-1.33c1.64-.76,2.07-1.88,2.07-2.43,0-1-1-1.66-2.85-2.09a1,1,0,0,1-.75-1.19A1,1,0,0,1,63,61.85c3.65.83,4.42,2.64,4.42,4s-.84,3.11-3.22,4.22a1,1,0,0,1-.44.1"/>
  <path class="b" d="M51.23,57.74a1,1,0,0,1-1-1c0-2.32-.09-4.72-.17-7s-.18-4.77-.18-7.16c0-.88,0-1.75,0-2.62a1,1,0,0,1,.91-1,46.52,46.52,0,0,1,5.25-.21,1,1,0,0,1,1,1c.08,3.23.29,6.51.49,9.68.13,2.07.27,4.22.37,6.35a1,1,0,0,1-2,.09c-.1-2.11-.24-4.25-.37-6.32-.19-2.87-.38-5.84-.47-8.79-1.11,0-2.15.05-3.15.13,0,.56,0,1.12,0,1.68,0,2.35.09,4.76.18,7.09s.17,4.75.17,7.11a1,1,0,0,1-1,1"/>
  <path class="b" d="M55.84,90a1,1,0,0,1-1-1l-.13-3.86a1,1,0,0,1,1-1,1,1,0,0,1,1,1L56.85,89a1,1,0,0,1-1,1h0"/>
  <path class="b" d="M52.57,109.54l-.79,0a1,1,0,0,1-1-.91c-.11-1.51-.17-3.15-.17-5s.06-4,.12-5.88c0-1.44.09-2.87.11-4.31a1,1,0,0,1,2,0c0,1.44-.06,2.89-.11,4.34-.06,1.91-.12,3.89-.12,5.82,0,1.43,0,2.73.1,3.93a26.22,26.22,0,0,0,2.78-.16c-.19-4-.36-8.34-.56-13.81a1,1,0,0,1,2-.07c.21,5.88.4,10.42.6,14.72a1,1,0,0,1-.9,1,35.27,35.27,0,0,1-4.14.28"/>
  <path class="b" d="M51.83,89.91a1,1,0,0,1-1-1c-.06-1.47-.17-2.81-.33-4.09a1,1,0,0,1,2-.24c.17,1.33.28,2.72.35,4.25a1,1,0,0,1-1,1h0"/>
  <path class="b" d="M80.21,60.41a1,1,0,0,1-1-.89,93.92,93.92,0,0,1-.49-10.42c0-2.63.06-5.29.13-7.86l0-1.05a1,1,0,0,1,.32-.7,1,1,0,0,1,.74-.27l1.11.05a29.48,29.48,0,0,0,3.37,0,1,1,0,0,1,.76.26.94.94,0,0,1,.33.71c.07,3,.13,6.32.13,9.65s-.06,6.16-.18,8.86a1,1,0,0,1-2-.09c.12-2.67.18-5.54.18-8.77,0-3,0-5.85-.11-8.59-.83,0-1.72,0-2.55-.08h-.06v0c-.07,2.56-.13,5.2-.13,7.81a92.56,92.56,0,0,0,.48,10.21,1,1,0,0,1-.9,1.1h-.11"/>
  <path class="b" d="M79.51,92a1,1,0,0,1-1-1c0-1.48-.11-2.85-.19-4.2a1,1,0,0,1,1-1,1,1,0,0,1,1.08.94c.08,1.36.14,2.75.19,4.24a1,1,0,0,1-1,1h0"/>
  <path class="b" d="M79.62,109.05a1.06,1.06,0,0,1-.71-.27,1,1,0,0,1-.31-.72c0-1.09,0-2.17,0-3.26,0-1.5,0-3,0-4.5,0-2.25,0-4.09,0-5.8a1,1,0,0,1,2,0c0,1.72,0,3.57,0,5.83,0,1.5,0,3,0,4.51,0,.74,0,1.47,0,2.21l2.53-.16h.15c-.07-1.57-.16-3.16-.25-4.71-.14-2.44-.29-5-.34-7.46a1,1,0,0,1,2,0c0,2.46.2,5,.34,7.39.11,1.87.22,3.81.29,5.71a1,1,0,0,1-.95,1l-1.13.07c-1.22.08-2.43.16-3.64.21h0"/>
  <path class="b" d="M83.72,92.21a1,1,0,0,1-1-1c0-1.7.12-3.27.26-4.78a1,1,0,0,1,1.11-.9A1,1,0,0,1,85,86.6c-.15,1.47-.23,3-.26,4.63a1,1,0,0,1-1,1"/>
  <path class="b" d="M34.68,90.2a1,1,0,0,1-1-1c0-4.21,0-8.43-.06-12.64,0-12.49-.07-25.41-.55-38.06a1,1,0,0,1,.95-1,38,38,0,0,1,4.54.07,1,1,0,0,1,1,.92c.7,9.78,1,20.2,1,33.78,0,8-.11,13.19-.2,16.81a1,1,0,0,1-2,0c.09-3.61.2-8.78.2-16.76,0-13.13-.29-23.29-.95-32.77-.76,0-1.59-.07-2.41-.06.45,12.37.49,25,.52,37.14,0,4.21,0,8.43.06,12.64a1,1,0,0,1-1,1"/>
  <path class="b" d="M37.23,107.66a19.2,19.2,0,0,1-2.43-.14,1,1,0,0,1-.88-1c-.1-4-.17-8.23-.22-13a1,1,0,0,1,2,0c.05,4.41.11,8.37.2,12.09.6,0,1.32,0,2,0v-1.6c0-4,.07-7.09.18-10.67a1,1,0,0,1,1-1,1,1,0,0,1,1,1C40.08,97,40,100.07,40,104.07c0,.85,0,1.7,0,2.55a1,1,0,0,1-1,1h-.2l-1.6,0"/>
  <path class="b" d="M99.6,92.42a1,1,0,0,1-1-1V89.59q0-3.36,0-6.72c0-2.24,0-4.48,0-6.72,0-21.38.93-33.13,1-33.93a8.78,8.78,0,0,0-.12-1.43,1,1,0,0,1,.24-.81,1,1,0,0,1,.78-.34c.71,0,1.41,0,2.08.1s1.38.09,2.06.1a1,1,0,0,1,1,1c.08,4.13.12,8.43.12,13.16,0,8.19-.12,16.51-.23,24.55,0,4.3-.11,8.6-.15,12.89a1,1,0,0,1-1,1,1,1,0,0,1-1-1c0-4.3.1-8.59.15-12.89.11-8,.23-16.35.23-24.53,0-4.36,0-8.35-.1-12.18l-1.19-.07-.83,0c0,.19,0,.38,0,.59,0,0,0,.05,0,.08s-1,11.85-1,33.81c0,2.24,0,4.48,0,6.72s0,4.48,0,6.72v1.84a1,1,0,0,1-1,1"/>
  <path class="b" d="M99.4,108a1,1,0,0,1-.72-.29,1,1,0,0,1-.29-.72c.1-3.56.15-7.42.18-11.81a1,1,0,0,1,2,0c0,4-.07,7.53-.15,10.81h.4c.79,0,1.6,0,2.4-.05,0-1,0-1.94,0-2.91q0-3.89,0-7.77a1,1,0,0,1,1-1,1,1,0,0,1,1,1q0,3.87,0,7.75c0,1.28,0,2.57,0,3.85a1,1,0,0,1-1,1c-1.15.06-2.31.08-3.44.1l-1.48,0"/>
  <path class="b" d="M45.19,92.38c9.31,0,19.49.45,30.26.93,10.35.46,21,.93,31.59,1,0-.66,0-1.33,0-2-3.11,0-6.39.06-9.66.06A241.6,241.6,0,0,1,67,91a154.11,154.11,0,0,0-19.08-1.07c-5.77,0-11.57.23-16.67.47.05.79.12,1.58.18,2.36,4.41-.22,8.92-.33,13.76-.33m62.86,3.94c-10.91-.07-22-.56-32.69-1s-20.9-.93-30.17-.93c-5.16,0-9.95.13-14.64.38a1,1,0,0,1-1.06-.91l0-.56c-.1-1.25-.21-2.54-.27-3.82a.94.94,0,0,1,.26-.71,1,1,0,0,1,.7-.33c5.36-.25,11.59-.52,17.79-.52A155.93,155.93,0,0,1,67.22,89a241.29,241.29,0,0,0,30.19,1.46c3.64,0,7.28,0,10.69-.07a1.16,1.16,0,0,1,.74.3,1,1,0,0,1,.29.72c0,1-.06,2.2-.06,3.35v.58a1,1,0,0,1-.3.71,1,1,0,0,1-.72.29"/>
</svg>
