<svg xmlns="http://www.w3.org/2000/svg" viewBox="0 0 145 145">
  <defs>
    <style>
      .a {
        fill: #39bdac;
      }

      .b, .c {
        fill: none;
        stroke: #fff;
        stroke-linecap: round;
        stroke-linejoin: round;
      }

      .b {
        stroke-width: 2.19px;
      }

      .c {
        stroke-width: 1.32px;
      }
    </style>
  </defs>
  <path class="a" d="M4.59,58.61a.24.24,0,0,0-.12-.24,47,47,0,0,1,1.94-5.76c-.58,2.52-1.11,5.07-1.89,7.53,0-.51.06-1,.07-1.53m5.85-18.08c-.64.88-1.26,1.78-1.86,2.69a.34.34,0,0,0-.52-.15l2.38-2.54m14.8-11.44L24,30.28a8.64,8.64,0,0,0-1.77,1.41c-.4.36-.78.74-1.15,1.13a31.79,31.79,0,0,0-4.48,4.43c-.46.41-.93.81-1.4,1.21a70.66,70.66,0,0,1,10-9.37M56,13.24a48.73,48.73,0,0,0,7.48-1.67l-5,1.51c-2.25.68-4.52,1.36-6.8,1.95-.78.2-1.56.39-2.35.54h0c2.19-.85,4.41-1.63,6.67-2.32M98.16,8.86c-.69-.17-1.37-.33-2.06-.48-.95-.2-1.91-.39-2.87-.55a8.15,8.15,0,0,1,4.93,1m17.59,10.47h0c.15.27.31.54.47.81l-.36-.31c-.27-.33-.54-.65-.8-1l.69.47M126.3,30.21a33.94,33.94,0,0,1-2.75-2.44c-1-1-2-2.06-3-3.11,1.25,1.05,2.53,2.08,3.71,3.21a12.84,12.84,0,0,1,2,2.34m-8-9a55.34,55.34,0,0,1,9.82,9.94.35.35,0,0,0,0,.17c.24.44.46.88.68,1.33a17.65,17.65,0,0,0-1.42-1.45,8.7,8.7,0,0,0-2-3,39.61,39.61,0,0,0-4-3.57c-1.18-1-2.32-2-3.48-3-.35-.46-.68-.93-1-1.42l1.36,1m16.39,20.92.39.92a.23.23,0,0,0,0,.34l.37.51c.35.85.67,1.7,1,2.55a.3.3,0,0,0-.32.2c0-.23-.09-.45-.13-.67a.26.26,0,0,0-.25-.21c-.84-2-1.93-4-2.92-5.94s-1.79-3.94-2.69-5.92a56.12,56.12,0,0,1,4.59,8.22m3.9,12.36c.14.94.28,1.87.43,2.8a.28.28,0,0,0,.12.21c.17,1.12.3,2.25.41,3.38-.24-.73-.54-1.44-.81-2.15-.3-1.74-.6-3.47-.82-5.21,0-.39-.66-.38-.61,0,0,0,0,.08,0,.12-.33-1.71-.59-3.43-.88-5.15a.32.32,0,0,0,.1-.32q-.18-.63-.39-1.26v0a49.61,49.61,0,0,1,2.45,7.58m.86,9.19c-.07-.67-.15-1.34-.25-2a7,7,0,0,1,.25,2M142.64,70c-.15.65-.31,1.3-.49,2a.36.36,0,0,0,0-.1c.09-1.48.15-3,.15-4.44a.31.31,0,0,0,.28-.06c0,.88,0,1.77.08,2.65m-18,46.44a.33.33,0,0,0-.44.1,40.09,40.09,0,0,1-5.86,6.68c.81-1,1.57-2,2.29-3l0,0a75.4,75.4,0,0,0,9.2-11.69,69.81,69.81,0,0,1-5.21,8M109,126.92c1.84-1.39,3.66-2.81,5.48-4.23a64.42,64.42,0,0,1-5.48,4.23m1.64,3.11a1.4,1.4,0,0,0-.58-.42c.73-.63,1.44-1.28,2.14-1.94a69.09,69.09,0,0,0,5.52-4.58,54.62,54.62,0,0,1-7.08,6.94m-11,3.33a.27.27,0,0,0,.13.4l-1,.38c.16-.22.33-.45.48-.68l.39-.1h0m-2,1.19-.85.3.56-.79.91-.3c-.2.27-.4.53-.62.79m-1.85.65-.77.26c.17-.25.33-.5.49-.75l.86-.31-.58.8m-1.73.57h0l-1.52.48a40.15,40.15,0,0,1-4.68,1.09c2.28-.62,4.49-1.47,6.71-2.29-.16.24-.33.48-.5.71m-19.6,4.59-1.72-.15-.44-.09c-1.24-.25-2.46-.58-3.68-.93-.4-.11-.79-.23-1.18-.36,1.91.44,3.84.81,5.78,1.07,1.09.15,2.17.27,3.26.35a13.33,13.33,0,0,1-2,.11m-16.71-7.07L57,133a13.69,13.69,0,0,1,1.42.43l-.68-.14M12.64,104.11c0-.21-.08-.41-.12-.62a.35.35,0,0,0,.05.08q1.14,1.8,2.34,3.57l-.34-.48c-.22-.32-.74,0-.51.32a84,84,0,0,0,10.59,12.6c.29.28.7-.17.41-.45a79.28,79.28,0,0,1-8.22-9.34.35.35,0,0,0,.33-.07c.35.53.69,1,1,1.59a.31.31,0,0,0,.52-.32c-.28-.45-.56-.89-.85-1.33,1.21,1.25,2.46,2.47,3.73,3.65a30.47,30.47,0,0,1,3.32,4.41c.2.34.72,0,.51-.33-.34-.56-.71-1.11-1.09-1.65.83.72,1.68,1.43,2.53,2.13l-.63-.43c-.31-.23-.73.21-.41.44a25.16,25.16,0,0,0,3.93,2.26q4.06,3.1,8.38,5.84a.23.23,0,0,0,0,.16c-1-.35-2-.73-3-1.16a.33.33,0,0,0-.08-.47c-2.9-1.9-6.2-3.25-8.66-5.75-.28-.28-.69.17-.42.45a24.73,24.73,0,0,0,5.47,3.87.26.26,0,0,0-.05.46A27.11,27.11,0,0,0,39,127a14,14,0,0,0,3.4,2.09A17,17,0,0,0,48,132.06c.21.17.41.34.61.53a.3.3,0,0,0,.5-.16l.31.09c2.67,1.64,5.42,3.14,8,4.93l-1.73-.68A31.92,31.92,0,0,1,48,132.6c-.31-.24-.72.2-.41.45a33.24,33.24,0,0,0,7.78,4.26c1.24.52,2.49,1,3.75,1.43l.31.24a.3.3,0,0,0,.4,0c1.24.41,2.48.79,3.74,1.11a.3.3,0,0,0,.13-.59c-1.45-.38-2.88-.82-4.3-1.31A59.69,59.69,0,0,0,53,134c1.72.76,3.46,1.47,5.23,2.11a1.41,1.41,0,0,1,0,.46c0,.4.6.38.61,0a.74.74,0,0,0,0-.21q1.8.65,3.63,1.2c1,.48,2,.91,3,1.3a20,20,0,0,0,7.31,2h.07a4.43,4.43,0,0,1,1.69.73c.31.24.72-.21.41-.45l-.19-.13c.52,0,1,0,1.56,0,1.17-.09,2.92-.44,3.87.46.28.28.69-.17.41-.45a2.63,2.63,0,0,0-.89-.54,47.22,47.22,0,0,0,7-.41,64.42,64.42,0,0,0,15.59-4.68c2.69-1.1,5.34-2.3,7.94-3.58a1,1,0,0,0,.57-1.16l1-.82a.21.21,0,0,0,.1-.06c4.35-3.83,9-7.48,12.37-12.24a.25.25,0,0,0,.37,0,78.18,78.18,0,0,0,7-10.83,21.4,21.4,0,0,1-3.54,6.39c-.26.29.19.71.45.42,2.06-2.24,3-5.35,4.29-8.07,1.38-3,3-6,4.59-8.85a31.73,31.73,0,0,1-3.87,8.79c-.22.32.33.6.54.28,3-4.34,4.08-9.68,5.6-14.64.12-.38-.48-.51-.59-.14-.48,1.56-.92,3.16-1.39,4.74a.31.31,0,0,0-.48.07c-1.39,2.44-2.73,4.91-4,7.43a.42.42,0,0,0-.19,0,81.66,81.66,0,0,0,5-11.35c.18-.51.36-1,.53-1.55.14.19.5.2.54-.09.17-1,.31-2.07.43-3.1.05-.18.09-.36.14-.54a.29.29,0,0,0,.1-.23,1.34,1.34,0,0,0,0-.2c.18-.67.35-1.35.51-2,.08.27.53.33.59,0a43.49,43.49,0,0,0,.79-7.62c0-.21.05-.42.08-.64.14-.49.27-1,.41-1.48.18.27.68.1.55-.24s-.18-.52-.26-.79l.27-1s0,.05,0,.07a.31.31,0,0,0,.61,0c-.05-.69-.08-1.38-.11-2.07a.09.09,0,0,1,0,0,.34.34,0,0,0,0-.2c-.05-1.21-.08-2.43-.09-3.65a.31.31,0,0,0-.61,0v.29c-.08-.56-.18-1.13-.3-1.68-.07-2.23-.26-4.45-.55-6.66A38.91,38.91,0,0,1,143.92,71c0,.39.6.37.61,0a42.73,42.73,0,0,0-3.35-16,60.69,60.69,0,0,0-5.71-16.8,57.14,57.14,0,0,0-4.81-7.72.28.28,0,0,0,0-.35c-3.46-5.44-8.6-9.74-13.73-13.53a.33.33,0,0,0-.52.31,55.93,55.93,0,0,0-6.09-3.52.31.31,0,0,0-.07-.33c-5.69-5.08-13.52-6-20-9.57A.3.3,0,0,0,90,4c6.1,3.3,13.38,4.32,18.91,8.64A60.15,60.15,0,0,0,99,9.08a.25.25,0,0,0,0-.39c-2.34-1.79-5.3-1.59-8-1.21-1.6-.22-3.21-.38-4.82-.48,0,0,0,0,0,0a.31.31,0,0,0-.58,0c-13-.75-26.15,2-38.1,6.75a99,99,0,0,0-21.72,12c-1.36,1-2.69,2-4,3.1a.35.35,0,0,0-.14,0,11.43,11.43,0,0,0-3.07,2.52c-1.09,1.13-2.18,2.27-3.29,3.39S13.06,36.91,12,38a.31.31,0,0,0-.45,0,55,55,0,0,0-6.26,7.6c-.22.31.22.73.45.41.57-.79,1.14-1.57,1.73-2.35a.25.25,0,0,0,.1-.08L8,43.13H8C5.65,46.59,4.23,50.58,1.88,54c-.22.33.32.61.54.29a39,39,0,0,0,2.19-3.75c-.32.72-.61,1.44-.89,2.17a43.57,43.57,0,0,1-3,4.88c-.23.32.22.74.45.42.55-.75,1.06-1.52,1.54-2.31A49.38,49.38,0,0,0,.5,68.47,52,52,0,0,0,5.83,92.73a58.81,58.81,0,0,0,5.73,9.49,20.61,20.61,0,0,1,.5,2.06c.07.39.66.21.58-.17"/>
  <path class="a" d="M56.18,12c-2.9,1.44-5.93,2.59-8.8,4.09-.35.18,0,.71.31.53,2.87-1.5,5.9-2.65,8.79-4.09.35-.18.05-.71-.3-.53"/>
  <path class="b" d="M65.24,55c-15.4,7.64-26.82,9.5-26.13,29.06.62,17.48,17,26.84,32.25,27.83,16.54,1.08,34.41-5.31,37.58-22.69,3.94-21.65-13.38-24.43-23.32-34.47"/>
  <path class="c" d="M52.53,97.58a15.74,15.74,0,0,0,3.08,2.36m11.82-43c-4.35,5.17-11.85,6.6-16.6,11.39a18.5,18.5,0,0,0-5,13.3,27.52,27.52,0,0,0,4.37,13.74"/>
  <path class="b" d="M82.89,47.24a17.61,17.61,0,0,0,8.79-4.85A7.17,7.17,0,0,0,94,38m-37-4.14c3.16-2.22,6.54.24,10,1.08,3.85.95,6.39-.73,10-1.53,4.33-1,4.93,1,8.36,1.92,3.11.78,6.37-.51,8.34,2.17M57.07,33.88a29.2,29.2,0,0,0,10,13.42m16.56,4c1.89-.59,2.91-1.42,2.24-2.49-1.33-2.13-9.24-1.59-11.42-1.58-2.85,0-8.78-.81-9.18,2.2-.11.76.59,1.36,1.79,1.81M48,40.94c3-.06,5.67,1.62,7.89,3.56s4.19,4.22,6.69,5.8a7.22,7.22,0,0,0,3.38,1.23m-.16,0a7.37,7.37,0,0,1-3.33-.18,28.26,28.26,0,0,1-4.54-1.93,16.24,16.24,0,0,0-5.75-1.7,7.71,7.71,0,0,0-5.63,1.69m18.74,4.44c-.57,4.18,23.24,3.61,20.6-.62-1.33-2.14-9.24-1.59-11.42-1.59C71.58,51.68,65.65,50.87,65.25,53.88Zm5.42,48.23A332.09,332.09,0,0,0,70,66.56m7.1,36.26a359.13,359.13,0,0,0-.73-37m7.23,7.48q-11.94-8.47-20.33,1.33C59.7,84.78,82.91,82.12,85.51,87.25c6.28,12.37-21.2,15.58-23.35,2.37"/>
</svg>
