<svg xmlns="http://www.w3.org/2000/svg" viewBox="0 0 145 145">
  <defs>
    <style>
      .a {
        fill: #ffc40c;
      }

      .b {
        fill: #fff;
      }
    </style>
  </defs>
  <path class="a" d="M11.46,107.92a.26.26,0,0,0-.25-.11A46.79,46.79,0,0,1,9,102.15c1.18,2.31,2.41,4.6,3.4,7-.3-.41-.61-.82-.93-1.22M4.32,90.31c.07,1.08.17,2.17.3,3.26a.34.34,0,0,0-.5.22c.07-1.16.13-2.32.2-3.48M8.3,72c-.06.58-.11,1.15-.18,1.7A8.94,8.94,0,0,0,7.67,76c-.07.54-.12,1.07-.16,1.61a33,33,0,0,0-.58,6.27c-.09.61-.19,1.22-.29,1.83A70.34,70.34,0,0,1,8.3,72M21.71,40.09A50.07,50.07,0,0,0,26.37,34c-1,1.45-1.89,2.9-2.84,4.35-1.29,2-2.59,3.95-4,5.87-.46.66-.94,1.3-1.45,1.92l0,0c1.13-2.06,2.33-4.09,3.62-6.07M51.16,9.67c-.64.31-1.27.62-1.89.95-.86.46-1.71.93-2.55,1.42a8.07,8.07,0,0,1,4.44-2.37m20.2-3.29h0l.88.32h-.48l-1.24-.23c.28,0,.55-.07.83-.09M86.44,7.93c-1.24,0-2.47,0-3.68-.1-1.43-.15-2.87-.28-4.3-.45,1.64,0,3.27,0,4.9.07a13.24,13.24,0,0,1,3.08.48M74.55,6.16A55.29,55.29,0,0,1,88.47,7.47a.27.27,0,0,0,.13.1c.47.19.93.38,1.38.58A16.85,16.85,0,0,0,88,8a8.7,8.7,0,0,0-3.5-1,41.38,41.38,0,0,0-5.34-.17c-1.53,0-3.07,0-4.6-.06-.56-.13-1.12-.28-1.67-.46.56,0,1.13-.07,1.7-.09m26,5.5.88.45a.24.24,0,0,0,.21.27,6.23,6.23,0,0,1,.62.15c.81.42,1.6.87,2.38,1.33a.3.3,0,0,0-.12.36c-.18-.15-.35-.29-.53-.42a.25.25,0,0,0-.33,0c-2-1-4-1.8-6-2.67s-3.9-1.87-5.86-2.81a56,56,0,0,1,8.8,3.35m10.93,7,2.12,1.87a.33.33,0,0,0,.24.08c.85.75,1.67,1.53,2.48,2.32-.65-.4-1.33-.75-2-1.11-1.35-1.15-2.7-2.28-4-3.47-.29-.27-.75.13-.46.4l.1.09c-1.36-1.1-2.67-2.25-4-3.38a.3.3,0,0,0-.12-.31c-.36-.25-.73-.49-1.11-.71h0a48.63,48.63,0,0,1,6.75,4.23m6.57,6.49c-.49-.47-1-.93-1.49-1.38a6.77,6.77,0,0,1,1.49,1.38m6.49,2.82c.3.6.6,1.2.88,1.81l-.08-.06c-.88-1.2-1.79-2.36-2.74-3.5a.31.31,0,0,0,.17-.23q.87,1,1.77,2m16.07,47.14a.33.33,0,0,0-.27.36,40.06,40.06,0,0,1-.2,8.89,37,37,0,0,0-.19-3.8v0a75.48,75.48,0,0,0-.47-14.87,68.27,68.27,0,0,1,1.13,9.45m-5.29,18.08q.76-3.37,1.47-6.76a64.56,64.56,0,0,1-1.47,6.76m3.25,1.33a1.46,1.46,0,0,0-.72,0c.16-1,.29-1.9.39-2.86a67.43,67.43,0,0,0,1.3-7.06,54.4,54.4,0,0,1-1,9.87m-6.3,9.63a.27.27,0,0,0,.36.23l-.52.93-.06-.83.22-.33h0m-.74,2.18-.46.78c0-.32-.06-.64-.08-1,.16-.27.33-.54.5-.81,0,.33,0,.67,0,1m-1,1.69c-.14.24-.29.46-.43.69,0-.29-.07-.59-.1-.89l.45-.78c0,.33.06.66.08,1m-1,1.55h0l-.86,1.35a41.77,41.77,0,0,1-2.88,3.84c1.34-1.94,2.49-4,3.66-6.07,0,.29.06.58.07.87m-12.06,16.12c-.46.33-.93.66-1.41,1l-.39.22c-1.11.61-2.27,1.14-3.42,1.65l-1.14.49q2.63-1.34,5.12-2.9c.92-.58,1.83-1.19,2.72-1.83a14.29,14.29,0,0,1-1.48,1.39M100.17,131l-.75.26a14.7,14.7,0,0,1,1.36-.59l-.61.33m-53.3,6.63c-.16-.14-.33-.27-.49-.39l.09,0c1.35.43,2.71.85,4.08,1.23l-.56-.15c-.38-.1-.57.48-.19.58A84.13,84.13,0,0,0,66,141.73c.39,0,.42-.58,0-.61a78.58,78.58,0,0,1-12.3-1.87A.36.36,0,0,0,54,139l1.8.56a.3.3,0,0,0,.19-.57l-1.5-.48c1.73.19,3.46.32,5.2.4A30.11,30.11,0,0,1,65,140.14a.31.31,0,0,0,.19-.58c-.63-.22-1.26-.4-1.9-.56,1.1,0,2.21,0,3.31,0l-.76.08c-.39,0-.42.64,0,.61a25.25,25.25,0,0,0,4.47-.8q5.1-.24,10.16-.91a.53.53,0,0,0,.12.1c-1,.39-2,.74-3,1a.32.32,0,0,0-.36-.3c-3.44.4-6.84,1.49-10.33,1.16-.39,0-.42.57,0,.61a24.51,24.51,0,0,0,6.67-.55c-.06.18,0,.4.26.38a27.06,27.06,0,0,0,8.07-2.19,14.18,14.18,0,0,0,3.94-.58,17.17,17.17,0,0,0,6.13-1.32,7.3,7.3,0,0,1,.81,0,.3.3,0,0,0,.28-.44l.3-.13c3.1-.47,6.17-1.08,9.29-1.36-.59.2-1.17.4-1.76.58a31.62,31.62,0,0,1-8.55,1.73c-.39,0-.42.62,0,.61a33.18,33.18,0,0,0,8.7-1.74c1.28-.4,2.54-.84,3.79-1.31l.4,0a.3.3,0,0,0,.3-.25c1.21-.48,2.4-1,3.58-1.55.35-.17.07-.72-.28-.55-1.36.64-2.74,1.23-4.14,1.76a61.07,61.07,0,0,0-7.63.9c1.81-.53,3.59-1.1,5.36-1.74a1.14,1.14,0,0,1,.34.32c.24.31.69-.1.46-.41l-.14-.16c1.2-.44,2.39-.91,3.56-1.41a32.5,32.5,0,0,0,3.15-1,20.1,20.1,0,0,0,6.89-3.17l.06,0a4.35,4.35,0,0,1,1.76-.52c.39,0,.42-.63,0-.61l-.23,0a12.68,12.68,0,0,0,1.17-1c.84-.82,2-2.22,3.26-2.13a.31.31,0,0,0,0-.61,2.55,2.55,0,0,0-1,.15,46.74,46.74,0,0,0,5.12-4.83,64.51,64.51,0,0,0,8.94-13.61c1.35-2.57,2.61-5.19,3.78-7.84a1,1,0,0,0-.31-1.26c.08-.41.15-.83.22-1.25a.36.36,0,0,0,0-.11c.86-5.73,2.07-11.5,1.6-17.32a.28.28,0,0,0,.25-.28A77.36,77.36,0,0,0,139.62,63a21.18,21.18,0,0,1,1.4,7.16.31.31,0,0,0,.61,0c.14-3-1.11-6-1.9-8.93-.88-3.21-1.56-6.47-2.17-9.74a31.76,31.76,0,0,1,2.69,9.22c0,.39.63.26.6-.13-.53-5.23-3.11-10-5.13-14.81-.15-.36-.69-.08-.54.28.63,1.5,1.32,3,2,4.52a.3.3,0,0,0-.32.36c.5,2.76,1.06,5.52,1.73,8.25a.26.26,0,0,0-.16.09,81.46,81.46,0,0,0-3.49-11.89c-.19-.51-.39-1-.59-1.53.23.06.51-.16.36-.42-.54-.89-1.1-1.77-1.67-2.64l-.24-.51a.28.28,0,0,0-.07-.24l-.12-.16c-.29-.63-.6-1.25-.91-1.87.24.16.63-.09.45-.38a42.76,42.76,0,0,0-4.29-6.34c-.11-.18-.23-.36-.35-.54-.21-.47-.42-.94-.64-1.41.32.1.59-.35.27-.54s-.47-.28-.71-.42c-.14-.33-.29-.65-.44-1l0,.05c.27.28.73-.12.45-.41-.47-.5-1-1-1.41-1.51a.08.08,0,0,1,0,0,.29.29,0,0,0-.15-.14c-.82-.9-1.63-1.81-2.42-2.74-.26-.3-.71.11-.46.41l.19.21-1.31-1.1c-1.49-1.65-3.06-3.24-4.71-4.74a39,39,0,0,1,9.95,8.39c.25.31.7-.1.46-.41a42.82,42.82,0,0,0-12.84-10.09,60.35,60.35,0,0,0-15.17-9.2,56.87,56.87,0,0,0-8.66-2.82.27.27,0,0,0-.2-.29C83.58,3.07,76.87,3.08,70.51,3.48a.33.33,0,0,0-.2.57,57.7,57.7,0,0,0-6.93,1.21.3.3,0,0,0-.26-.2c-7.63-.24-14.24,4.06-21.52,5.56a.31.31,0,0,0,.14.6c6.79-1.4,13-5.3,20-5.55A60.48,60.48,0,0,0,51.94,9.3.26.26,0,0,0,51.66,9c-2.94.13-5.08,2.18-6.95,4.24q-2,1.31-4,2.73h0a.31.31,0,0,0-.45.37C29.81,24.11,21.46,34.65,15.38,46A99.2,99.2,0,0,0,6.46,69.15c-.4,1.64-.76,3.28-1.06,4.93a.38.38,0,0,0-.09.12,11.47,11.47,0,0,0-.72,3.9c-.11,1.57-.22,3.14-.35,4.71s-.25,3-.35,4.56a.3.3,0,0,0-.35.27,54.93,54.93,0,0,0,.09,9.85c0,.38.64.42.61,0-.07-1-.14-2-.19-2.92a.56.56,0,0,0,0-.12l0-.61h0C4.54,98,6,102,6.44,106.15c0,.39.63.26.59-.12a36.08,36.08,0,0,0-.73-4.28c.22.75.46,1.5.72,2.24a43.26,43.26,0,0,1,.82,5.67c0,.39.64.42.61,0-.06-.92-.17-1.84-.3-2.76a49,49,0,0,0,6.51,11.17,52.14,52.14,0,0,0,19.68,15.16,58.78,58.78,0,0,0,10.49,3.59c.58.39,1.16.8,1.71,1.25.3.25.63-.26.33-.5"/>
  <path class="a" d="M56.25,12.09c-2.89,1.44-5.92,2.59-8.79,4.09-.35.18,0,.71.31.53,2.87-1.5,5.89-2.65,8.79-4.09.35-.18,0-.71-.31-.53"/>
  <path class="b" d="M85.7,41.44,87.35,43c.22-.3.5-.64.83-1,1-1.17,2.66-2.57,4.6-2.57a7.1,7.1,0,0,1,4.46,2.17l2.93-2.85c-.45-.39-1-.89-1.54-1.4-1.92-1.82-3.11-3.1-2.26-4.24l.06-.08c.55-.8,2.2-3.2,8.73-3.24a22.67,22.67,0,0,0-4-.37,15.68,15.68,0,0,0-4.29.56,14,14,0,0,0-6,3.49,13.44,13.44,0,0,0-1.5,1.74,3.63,3.63,0,0,0-.58,1.44l-.08.31a9.15,9.15,0,0,1-.7,1.78,7.79,7.79,0,0,1-2.39,2.68m2,4.82h0a1.23,1.23,0,0,1-.86-.34h0l0,0L82.8,42a1.21,1.21,0,0,1-.34-1.09,1.24,1.24,0,0,1,.75-.87,5.3,5.3,0,0,0,2.69-2.4,6.19,6.19,0,0,0,.5-1.28l.08-.3a6,6,0,0,1,1-2.23,16.71,16.71,0,0,1,8.8-6.15,18.29,18.29,0,0,1,5-.65,26.91,26.91,0,0,1,8.72,1.54,1.22,1.22,0,0,1,.78,1l.12,1.58a1.17,1.17,0,0,1-.38,1,1.21,1.21,0,0,1-1,.32,36.83,36.83,0,0,0-4.11-.26c-4.43,0-6,1.11-6.58,1.8a39,39,0,0,0,4,3.8,1.19,1.19,0,0,1,.42.87,1.21,1.21,0,0,1-.36.89L98.07,44.2a1.26,1.26,0,0,1-.94.35,1.23,1.23,0,0,1-.89-.45c-.9-1.09-2.42-2.25-3.46-2.25a4.33,4.33,0,0,0-2.73,1.73,16.46,16.46,0,0,0-1.13,1.55,1.22,1.22,0,0,1-1.23,1.13"/>
  <path class="b" d="M82.2,43.72,85,46.41l1.17-1.15-2.76-2.69ZM85,49.31a1.27,1.27,0,0,1-.88-.35l-4.51-4.39a1.18,1.18,0,0,1,0-1.7L82.51,40a1.25,1.25,0,0,1,1.74,0l4.51,4.39a1.17,1.17,0,0,1,0,1.69L85.84,49a1.27,1.27,0,0,1-.87.35"/>
  <path class="b" d="M98.94,43.35l21,20.43a.59.59,0,0,0,.4.16.56.56,0,0,0,.4-.16L123,61.63a.56.56,0,0,0,.16-.39.53.53,0,0,0-.16-.39L102,40.42Zm21.39,23a3,3,0,0,1-2.14-.86L96.33,44.2a1.17,1.17,0,0,1,0-1.69l4.76-4.64a1.25,1.25,0,0,1,1.74,0l21.86,21.28a2.91,2.91,0,0,1,.89,2.09,2.87,2.87,0,0,1-.89,2.08l-2.21,2.16a3,3,0,0,1-2.15.86"/>
  <path class="b" d="M113.46,72.81a1.45,1.45,0,0,0-.87.49,3.05,3.05,0,0,0-.71,2.87,5.53,5.53,0,0,0,1.45-1.32,2.42,2.42,0,0,0,.59-1.39.71.71,0,0,0-.38-.64h-.08m1.45,8h0a5.91,5.91,0,0,1-4-1.62,8.92,8.92,0,0,1-2.3.31,2.54,2.54,0,0,1-1.73-.67,1.6,1.6,0,0,1-.44-1.21,1.24,1.24,0,0,1,2.29-.52,7.38,7.38,0,0,0,.81-.07,5.41,5.41,0,0,1,1.21-5.36,3.49,3.49,0,0,1,3.38-1.17,3,3,0,0,1,2.22,2.9,4.54,4.54,0,0,1-1.07,2.89A8.1,8.1,0,0,1,113.45,78a3.28,3.28,0,0,0,1.47.38,1.2,1.2,0,0,1,1.22,1.2,1.22,1.22,0,0,1-1.23,1.2"/>
  <path class="b" d="M45.75,68.83a.84.84,0,1,0,0,1.68.84.84,0,1,0,0-1.68m0,4.08a3.24,3.24,0,1,1,3.35-3.24,3.31,3.31,0,0,1-3.35,3.24"/>
  <path class="b" d="M85.11,102.84a1.22,1.22,0,0,1,1.18.85l1.8,5.84,10.34-3-2.58-8.36A1.17,1.17,0,0,1,96.21,97l1.31-1.13c5.68-4.88,8.81-11.15,8.81-17.65,0-14.7-15.69-26.66-35-26.66a43.84,43.84,0,0,0-14,2.22,1.26,1.26,0,0,1-1.46-.53S53.65,49.7,46.56,48c1.73,7.12-.59,11.63-.7,11.83a1.12,1.12,0,0,1-.29.36,26.31,26.31,0,0,0-7.26,9.22L37.59,71a1.24,1.24,0,0,1-1.13.71h-2.3a2.23,2.23,0,0,0-2.27,2.18v8.6a2.22,2.22,0,0,0,2.27,2.17h2.3a1.24,1.24,0,0,1,1.13.71L38.31,87a25.82,25.82,0,0,0,6.2,8.29l1.23,1.13a1.19,1.19,0,0,1,.34,1.22l-2.78,9,10.34,3,1.89-6.12A1.23,1.23,0,0,1,57,102.6l2.62.71a45.15,45.15,0,0,0,22.57.21l2.57-.64a1.1,1.1,0,0,1,.31,0M88,112h0a2.36,2.36,0,0,1-2.25-1.6l-1.5-4.87-1.43.36a47.81,47.81,0,0,1-11.49,1.4A47.16,47.16,0,0,1,59,105.62l-1.45-.4L56,110.36a2.36,2.36,0,0,1-2.25,1.6,2.3,2.3,0,0,1-.64-.09l-10.61-3a2.32,2.32,0,0,1-1.38-1.09,2.19,2.19,0,0,1-.19-1.72l2.6-8.41L42.82,97a28.31,28.31,0,0,1-6.76-9.06l-.4-.87h-1.5a4.66,4.66,0,0,1-4.74-4.57v-8.6a4.67,4.67,0,0,1,4.74-4.58h1.5l.4-.87a28.9,28.9,0,0,1,7.69-9.89c.41-.93,2-5.34-.09-11.75a1.17,1.17,0,0,1,.24-1.15,1.27,1.27,0,0,1,1.15-.4c7.55,1.28,11.1,4.45,12.4,6a46.54,46.54,0,0,1,13.9-2.07c20.65,0,37.45,13,37.45,29.06,0,7.2-3.43,14.11-9.65,19.45l-.71.62,2.4,7.76a2.17,2.17,0,0,1-.2,1.73,2.25,2.25,0,0,1-1.37,1.08l-10.61,3A2.35,2.35,0,0,1,88,112"/>
  <path class="b" d="M85.06,68.83a1.27,1.27,0,0,1-.93-.41l-7.89-8.66A1.17,1.17,0,0,1,76,58.49l3.42-7.72a1.24,1.24,0,0,1,1.62-.63,1.19,1.19,0,0,1,.64,1.58l-3.11,7L86,66.83a1.18,1.18,0,0,1-.1,1.69,1.24,1.24,0,0,1-.82.31"/>
  <path class="b" d="M77.16,76.81a1.15,1.15,0,0,1-.31,0A1.2,1.2,0,0,1,76,75.31l3.41-12.9a1.24,1.24,0,0,1,1.51-.86A1.2,1.2,0,0,1,81.77,63l-3.41,12.9a1.24,1.24,0,0,1-1.2.9"/>
</svg>
