<svg xmlns="http://www.w3.org/2000/svg" viewBox="0 0 572.85 58.47">
  <defs>
    <style>
      .a {
        fill: #231f20;
      }

      .b {
        fill: #39bdac;
      }
    </style>
  </defs>
  <g>
    <path class="a" d="M15.91,56.47a25.24,25.24,0,0,1-3.13.54,33.88,33.88,0,0,1-4.23.28A19.2,19.2,0,0,1,4.86,57a6.47,6.47,0,0,1-2.68-1.14A4.94,4.94,0,0,1,.55,53.56,10.92,10.92,0,0,1,0,49.74V6.91A4,4,0,0,1,1.05,4,7.46,7.46,0,0,1,3.91,2.27,35,35,0,0,1,11,.68a63.92,63.92,0,0,1,8-.5Q31.47.18,38.1,5.55T44.74,20.1a21.81,21.81,0,0,1-1.41,8,16.71,16.71,0,0,1-4.19,6.19,18.81,18.81,0,0,1-7,4,30.86,30.86,0,0,1-9.77,1.41H15.91Zm4.73-29.19a8.72,8.72,0,0,0,5.87-1.77,6.8,6.8,0,0,0,2-5.41,6.68,6.68,0,0,0-2.13-5.32q-2.15-1.87-6.23-1.87c-1,0-1.78,0-2.41.05a15.07,15.07,0,0,0-2,.22v14.1Z"/>
    <path class="a" d="M65.11,39V56.47A25.84,25.84,0,0,1,62,57a33.88,33.88,0,0,1-4.23.28A19,19,0,0,1,54.06,57a6.13,6.13,0,0,1-2.64-1.14,5,5,0,0,1-1.59-2.27,11.16,11.16,0,0,1-.55-3.82V6.91a4,4,0,0,1,1-2.95,7.46,7.46,0,0,1,2.86-1.69A35,35,0,0,1,60.38.68a72.57,72.57,0,0,1,8.73-.5Q81.65.18,88,5.46t6.36,14.27a16,16,0,0,1-2.91,9.64,20.77,20.77,0,0,1-6.91,6.18Q87.85,40,91,43.92A54.13,54.13,0,0,1,96,51a8.59,8.59,0,0,1-3.32,4.87,9.25,9.25,0,0,1-5.41,1.68,11.39,11.39,0,0,1-3.45-.46,8.23,8.23,0,0,1-2.55-1.27,10.52,10.52,0,0,1-2-2,27.06,27.06,0,0,1-1.73-2.55L69.92,39Zm5.72-12.1a8,8,0,0,0,5.46-1.77,6.62,6.62,0,0,0,2-5.23,6.25,6.25,0,0,0-2.23-5.22q-2.22-1.78-7-1.78a21.12,21.12,0,0,0-2.19.09c-.54.06-1.15.16-1.82.28V26.91Z"/>
    <path class="a" d="M101,10.18A8.38,8.38,0,0,1,103.29,4a8.39,8.39,0,0,1,6.19-2.27h30a10.55,10.55,0,0,1,1.14,2.63,12,12,0,0,1,.5,3.46q0,3.45-1.5,4.91a5.43,5.43,0,0,1-4,1.45H116.48v8.46h20.46a11.55,11.55,0,0,1,1.14,2.59,11.43,11.43,0,0,1,.5,3.41c0,2.31-.49,3.94-1.46,4.91A5.28,5.28,0,0,1,133.21,35H116.48v9.55h23.37A11.15,11.15,0,0,1,141,47.19a11.91,11.91,0,0,1,.49,3.46c0,2.3-.49,4-1.5,5A5.33,5.33,0,0,1,136,57.1H109.48A7.84,7.84,0,0,1,101,48.65Z"/>
    <path class="a" d="M144.94,39.92a11.79,11.79,0,0,1-1.18-2.64,10.66,10.66,0,0,1-.55-3.45q0-3.37,1.55-4.87a5.5,5.5,0,0,1,4-1.5h19.46a19.77,19.77,0,0,1,1.13,2.64,9.93,9.93,0,0,1,.59,3.45q0,3.38-1.54,4.87a5.51,5.51,0,0,1-4,1.5Z"/>
    <path class="a" d="M191,36.37v20.1a25.73,25.73,0,0,1-3.18.54,34.93,34.93,0,0,1-4.28.28A19.1,19.1,0,0,1,179.9,57a6.47,6.47,0,0,1-2.68-1.14,4.89,4.89,0,0,1-1.64-2.27,11.18,11.18,0,0,1-.54-3.82v-48c.66-.12,1.72-.29,3.18-.5A29.28,29.28,0,0,1,182.4.91a19,19,0,0,1,3.68.32,6.64,6.64,0,0,1,2.69,1.13,5,5,0,0,1,1.63,2.28A10.92,10.92,0,0,1,191,8.46V22.91L209.86,1.18q6.18,0,8.87,2.32A7.09,7.09,0,0,1,221.41,9a9,9,0,0,1-1.18,4.46,23.41,23.41,0,0,1-3.82,4.73L205,29.55q2.28,2.55,4.78,5.28c1.66,1.81,3.3,3.59,4.91,5.31s3.15,3.39,4.63,5l3.87,4.09a8.16,8.16,0,0,1-.73,3.55A8.1,8.1,0,0,1,217.77,57a9.6,9.6,0,0,1-3.27.55,9.48,9.48,0,0,1-6.09-1.87,32.39,32.39,0,0,1-4.55-4.41Z"/>
  </g>
  <g>
    <path class="b" d="M246.32,14.46a12.38,12.38,0,0,1-1.18-2.73,12.1,12.1,0,0,1-.54-3.64q0-3.54,1.59-5.09a5.69,5.69,0,0,1,4.14-1.54H290a11.63,11.63,0,0,1,1.18,2.72,11.84,11.84,0,0,1,.55,3.64q0,3.54-1.59,5.09A5.69,5.69,0,0,1,286,14.46H275.88v42a25.84,25.84,0,0,1-3.14.54,33.76,33.76,0,0,1-4.23.28,19.1,19.1,0,0,1-3.68-.32,6.41,6.41,0,0,1-2.68-1.14,4.89,4.89,0,0,1-1.64-2.27,11.16,11.16,0,0,1-.55-3.82V14.46Z"/>
    <path class="b" d="M294.43,29.19a33.1,33.1,0,0,1,2.22-12.55A25.33,25.33,0,0,1,311.84,1.91a34.5,34.5,0,0,1,22.64,0,26.38,26.38,0,0,1,9.14,5.59,25.87,25.87,0,0,1,6.14,9.14A33.1,33.1,0,0,1,352,29.19a33.84,33.84,0,0,1-2.18,12.59,25.47,25.47,0,0,1-6,9.19,26.07,26.07,0,0,1-9.14,5.59,33.53,33.53,0,0,1-11.46,1.91,32.6,32.6,0,0,1-11.46-2,25.51,25.51,0,0,1-9.09-5.68,26.23,26.23,0,0,1-6-9.18A33.25,33.25,0,0,1,294.43,29.19Zm16.36,0c0,5.51,1.12,9.64,3.37,12.36a12,12,0,0,0,18.09,0c2.24-2.72,3.37-6.85,3.37-12.36s-1.11-9.55-3.32-12.28a11,11,0,0,0-9.05-4.09,11.25,11.25,0,0,0-9.05,4.05Q310.8,20.92,310.79,29.19Z"/>
    <path class="b" d="M369.53,57.1a7.84,7.84,0,0,1-8.45-8.45v-47c.66-.12,1.72-.29,3.18-.5a29.28,29.28,0,0,1,4.18-.32,19,19,0,0,1,3.68.32,6.64,6.64,0,0,1,2.69,1.13,5,5,0,0,1,1.63,2.28A10.92,10.92,0,0,1,377,8.37V44.28h20.82A11.49,11.49,0,0,1,399,47a11.05,11.05,0,0,1,.55,3.5q0,3.63-1.55,5.13a5.62,5.62,0,0,1-4.09,1.5Z"/>
  </g>
  <g>
    <path class="b" d="M407.63,10.18A8.38,8.38,0,0,1,409.9,4a8.39,8.39,0,0,1,6.19-2.27h30a11,11,0,0,1,1.13,2.63,12,12,0,0,1,.5,3.46q0,3.45-1.5,4.91a5.43,5.43,0,0,1-4,1.45H423.09v8.46h20.46a11.55,11.55,0,0,1,1.14,2.59,11.43,11.43,0,0,1,.5,3.41c0,2.31-.49,3.94-1.46,4.91A5.28,5.28,0,0,1,439.82,35H423.09v9.55h23.37a11.15,11.15,0,0,1,1.14,2.63,11.91,11.91,0,0,1,.5,3.46q0,3.45-1.51,5a5.33,5.33,0,0,1-3.95,1.5H416.09a7.84,7.84,0,0,1-8.46-8.45Z"/>
    <path class="b" d="M478.37,58.29c-1,0-2.21,0-3.54-.09s-2.72-.19-4.14-.37-2.85-.41-4.27-.68a20.82,20.82,0,0,1-4-1.14q-5-1.9-5-6.64V6.91A4,4,0,0,1,458.51,4a7.46,7.46,0,0,1,2.86-1.69A37.78,37.78,0,0,1,469.64.59q4.37-.4,7.82-.41a44.88,44.88,0,0,1,12.87,1.73,26.37,26.37,0,0,1,9.91,5.32,23.84,23.84,0,0,1,6.41,9.05,33.32,33.32,0,0,1,2.28,12.91,33.62,33.62,0,0,1-2.19,12.68,24.42,24.42,0,0,1-6.23,9.1,26,26,0,0,1-9.68,5.5A40.5,40.5,0,0,1,478.37,58.29ZM473.28,45c.67.12,1.49.23,2.46.32s1.87.13,2.72.13a17.28,17.28,0,0,0,5.69-.9,11.51,11.51,0,0,0,4.45-2.82,13,13,0,0,0,2.91-5,22.56,22.56,0,0,0,1.05-7.32q0-8.17-3.82-12.32A13.19,13.19,0,0,0,478.56,13c-.85,0-1.72,0-2.6.09s-1.77.16-2.68.28Z"/>
    <path class="b" d="M515.29,29.19a32.91,32.91,0,0,1,2.23-12.55,25.89,25.89,0,0,1,6.09-9.14,26,26,0,0,1,9.09-5.59,34.5,34.5,0,0,1,22.64,0,26.28,26.28,0,0,1,9.14,5.59,25.74,25.74,0,0,1,6.14,9.14,32.91,32.91,0,0,1,2.23,12.55,34,34,0,0,1-2.18,12.59,25.62,25.62,0,0,1-6,9.19,26,26,0,0,1-9.14,5.59A33.49,33.49,0,0,1,544,58.47a32.51,32.51,0,0,1-11.45-2,25.46,25.46,0,0,1-9.1-5.68,26.51,26.51,0,0,1-6-9.18A33.45,33.45,0,0,1,515.29,29.19Zm16.37,0c0,5.51,1.12,9.64,3.36,12.36a11,11,0,0,0,9,4.1,11.18,11.18,0,0,0,9.1-4.1c2.24-2.72,3.36-6.85,3.36-12.36s-1.11-9.55-3.32-12.28a11,11,0,0,0-9-4.09,11.23,11.23,0,0,0-9,4.05Q531.65,20.92,531.66,29.19Z"/>
  </g>
</svg>
